<?xml version="1.0" encoding="UTF-8" standalone="no"?>
<svg width="74px" height="73px" viewBox="0 0 74 73" version="1.1" xmlns="http://www.w3.org/2000/svg" xmlns:xlink="http://www.w3.org/1999/xlink" xmlns:sketch="http://www.bohemiancoding.com/sketch/ns">
    <!-- Generator: Sketch 3.2.2 (9983) - http://www.bohemiancoding.com/sketch -->
    <title>aftereffects-icon</title>
    <desc>Created with Sketch.</desc>
    <defs></defs>
    <g id="Resume-Tools" stroke="none" stroke-width="1" fill="none" fill-rule="evenodd" sketch:type="MSPage">
        <g id="aftereffects-icon" sketch:type="MSLayerGroup">
            <rect id="Rectangle-2" fill="#201037" sketch:type="MSShapeGroup" x="0.5" y="0" width="73" height="73" rx="40"></rect>
            <path d="M31.402,41.734 L33.586,49 L40.474,49 L31.696,20.692 L23.296,20.692 L14.644,49 L21.28,49 L23.296,41.734 L31.402,41.734 Z M24.22,36.946 L25.9,30.94 C26.362,29.302 26.782,27.16 27.202,25.48 L27.286,25.48 C27.706,27.16 28.21,29.26 28.714,30.94 L30.478,36.946 L24.22,36.946 Z M61.6,40.768 C61.684,40.306 61.81,39.34 61.81,38.248 C61.81,33.166 59.29,28 52.654,28 C45.514,28 42.28,33.754 42.28,38.962 C42.28,45.388 46.27,49.42 53.242,49.42 C56.014,49.42 58.576,49 60.676,48.16 L59.836,43.834 C58.114,44.38 56.35,44.674 54.166,44.674 C51.184,44.674 48.58,43.414 48.37,40.768 L61.6,40.768 Z M48.328,36.4 C48.496,34.678 49.588,32.242 52.276,32.242 C55.216,32.242 55.888,34.846 55.888,36.4 L48.328,36.4 Z" id="Ae" fill="#DAB8FC" sketch:type="MSShapeGroup"></path>
        </g>
    </g>
</svg>