<?xml version="1.0" encoding="UTF-8" standalone="no"?>
<svg width="74px" height="73px" viewBox="0 0 74 73" version="1.1" xmlns="http://www.w3.org/2000/svg" xmlns:xlink="http://www.w3.org/1999/xlink" xmlns:sketch="http://www.bohemiancoding.com/sketch/ns">
    <!-- Generator: Sketch 3.2.2 (9983) - http://www.bohemiancoding.com/sketch -->
    <title>cinema4d-icon</title>
    <desc>Created with Sketch.</desc>
    <defs></defs>
    <g id="Resume-Tools" stroke="none" stroke-width="1" fill="none" fill-rule="evenodd" sketch:type="MSPage">
        <g id="cinema4d-icon" sketch:type="MSLayerGroup">
            <rect id="Rectangle-2" fill="#1E298A" sketch:type="MSShapeGroup" x="0.558365458" y="0" width="73" height="73" rx="40"></rect>
            <g id="Imported-Layers" transform="translate(8.558365, 7.000000)" fill="#E9ECF2" sketch:type="MSShapeGroup">
                <path d="M57.7946304,29.0113281 C57.7946304,44.9953125 44.8879377,57.9546875 28.9638911,57.9546875 C13.0421012,57.9546875 0.133151751,44.9953125 0.133151751,29.0113281 C0.133151751,13.0250781 13.0421012,0.06796875 28.9638911,0.06796875 C33.0148638,0.06796875 36.8694942,0.90625 40.3675486,2.4196875 C40.5232685,2.75046875 40.6315953,3.08804688 40.6564202,3.40976562 C40.7737743,4.9209375 39.8462257,7.70992188 34.2922179,8.86992188 C28.7359533,10.0321875 18.8922023,12.7665703 14.5022568,15.6101562 C10.2321479,18.3760313 4.31727626,25.6015625 4.31727626,33.2707031 C4.31727626,40.9375781 8.36824903,46.98 12.0716732,49.535625 C15.7750973,52.09125 20.832607,54.9957813 28.4290272,53.486875 C36.0277043,51.9757031 40.6654475,46.0510938 40.6654475,46.0510938 C40.6654475,46.0510938 45.287393,41.4020313 46.790428,33.1528906 C48.2957198,24.90375 48.5281712,20.3725 50.1485603,18.2813281 C51.1889494,16.9378125 52.8499611,16.0746094 54.5177432,15.5988281 C56.6120623,19.6067188 57.7946304,24.1696875 57.7946304,29.0113281" id="Fill-1"></path>
                <path d="M26.6268897,31.0759229 C24.6965513,29.2822955 22.3096659,25.6295649 24.4175277,20.394571 C24.4175277,20.394571 26.423074,15.5268553 31.8221515,13.3244135 C37.4918962,11.0116859 39.2224952,10.3511989 40.6196517,8.49741559 C42.1898477,6.41426245 42.1048566,3.2888166 42.1048566,3.2888166 C42.1048566,3.2888166 45.8287729,4.81092408 49.4328457,8.38835748 C52.6074788,11.5395844 53.59252,14.4021041 53.59252,14.4021041 C53.59252,14.4021041 49.0027946,15.4763162 47.4236307,18.0394887 C45.8444668,20.6026612 44.5204801,24.0366617 43.142686,26.8903831 C41.9479185,29.3649587 39.5889558,32.6817166 34.9874091,33.1703296 C30.6076138,33.635617 28.4390149,32.7596737 26.6268897,31.0759229" id="Fill-2"></path>
            </g>
        </g>
    </g>
</svg>