<?xml version="1.0" encoding="UTF-8" standalone="no"?>
<svg width="74px" height="74px" viewBox="0 0 74 74" version="1.1" xmlns="http://www.w3.org/2000/svg" xmlns:xlink="http://www.w3.org/1999/xlink" xmlns:sketch="http://www.bohemiancoding.com/sketch/ns">
    <!-- Generator: Sketch 3.2.2 (9983) - http://www.bohemiancoding.com/sketch -->
    <title>codekit-icon</title>
    <desc>Created with Sketch.</desc>
    <defs></defs>
    <g id="Resume-Tools" stroke="none" stroke-width="1" fill="none" fill-rule="evenodd" sketch:type="MSPage">
        <g id="codekit-icon" sketch:type="MSLayerGroup">
            <rect id="Rectangle-2" fill="#FDC23A" sketch:type="MSShapeGroup" x="0.558365458" y="0.5" width="73" height="73" rx="40"></rect>
            <g id="Imported-Layers" transform="translate(17.000000, 18.000000)" sketch:type="MSShapeGroup">
                <path d="M38.9025,29.3500909 C38.7287604,31.3738636 39.1197083,35.8324091 37.1110729,37.0697727 C36.5409687,37.4209091 35.8674062,37.5512727 35.2090104,37.6655455 C29.8555833,38.5948636 24.4111562,38.8730455 18.9854167,38.8104545 C13.9510312,38.7523636 8.70363542,38.7274091 3.76322917,37.6718182 C1.47197917,37.1822727 1.1253125,36.4131818 0.777291667,35.0836364 C0.430625,33.7554545 0.291145833,30.9586364 0.153020833,29.3495455 C0.0135416667,27.7418182 -0.0120520833,19.4706818 0.196489583,16.0438636 C0.40503125,12.6170455 1.13519792,7.14095455 1.69040625,4.41368182 C2.24561458,1.68640909 3.5555,1.51745455 4.73565625,1.30772727 C14.4209271,-0.414 24.6098125,-0.0890454545 34.32,1.30772727 C35.2920208,1.4475 36.5421875,1.37727273 37.0973958,4.10454545 C37.6526042,6.83181818 38.4867708,12.7063636 38.6939583,16.1331818 C38.9025,19.56 39.0419792,27.7418182 38.9025,29.3500909" id="Fill-1" fill="#FFFFFF"></path>
                <path id="Fill-2" fill="#000000" d="M19.5975,38.8554545 L19.5975,38.8595455 C19.5975,38.8595455 19.5798958,38.8595455 19.5446875,38.8581818 C19.5609375,38.8568182 19.5785417,38.8568182 19.5975,38.8554545"></path>
                <path id="Fill-3" fill="#000000" d="M19.5446875,38.8581818 C19.4878125,38.8581818 19.4580208,38.8595455 19.4580208,38.8595455 L19.4580208,38.8554545 C19.4932292,38.8568182 19.5230208,38.8568182 19.5446875,38.8581818"></path>
                <path d="M13.4364479,10.3615909 L5.28734375,18.3190909 C4.82638542,18.7690909 4.80214583,19.5057273 5.23236458,19.9855909 L13.0131354,28.6639091 C13.4704375,29.1739091 14.2586979,29.1942273 14.7413229,28.7083636 L15.9550625,27.4861364 C16.4083021,27.0295909 16.4221146,26.2939091 15.9862083,25.8205909 L9.93051042,19.2454091 L16.137875,13.0996364 C16.6138646,12.6283636 16.6129167,11.8553182 16.1357083,11.3851364 L15.1003125,10.3652727 C14.6382708,9.91009091 13.9003854,9.90845455 13.4364479,10.3615909" id="Fill-4" fill="#FDC23A"></path>
                <path d="M25.4323333,10.3615909 L33.5815729,18.3190909 C34.0423958,18.7690909 34.0666354,19.5057273 33.6365521,19.9855909 L25.8556458,28.6639091 C25.3983437,29.1739091 24.6100833,29.1942273 24.1275937,28.7083636 L22.9138542,27.4861364 C22.4604792,27.0295909 22.4468021,26.2939091 22.8827083,25.8205909 L28.9384062,19.2454091 L22.7309062,13.0996364 C22.2549167,12.6283636 22.2558646,11.8553182 22.7330729,11.3851364 L23.7684687,10.3652727 C24.2305104,9.91009091 24.9683958,9.90845455 25.4323333,10.3615909" id="Fill-5" fill="#FDC23A"></path>
            </g>
        </g>
    </g>
</svg>