<?xml version="1.0" encoding="UTF-8" standalone="no"?>
<svg width="74px" height="74px" viewBox="0 0 74 74" version="1.1" xmlns="http://www.w3.org/2000/svg" xmlns:xlink="http://www.w3.org/1999/xlink" xmlns:sketch="http://www.bohemiancoding.com/sketch/ns">
    <!-- Generator: Sketch 3.2.2 (9983) - http://www.bohemiancoding.com/sketch -->
    <title>css3-icon</title>
    <desc>Created with Sketch.</desc>
    <defs></defs>
    <g id="Resume-Tools" stroke="none" stroke-width="1" fill="none" fill-rule="evenodd" sketch:type="MSPage">
        <g id="css3-icon" sketch:type="MSLayerGroup">
            <rect id="Rectangle-2" fill="#33A9DC" sketch:type="MSShapeGroup" x="0.0583654581" y="0.5" width="73" height="73" rx="40"></rect>
            <g id="Imported-Layers" transform="translate(21.558365, 18.500000)" sketch:type="MSShapeGroup">
                <path d="M27.1565179,37.7375839 L14.9949107,40.9301868 L2.833125,37.7375839 L0.0267857143,8.09528025 L29.9633929,8.09528025 L27.1565179,37.7375839" id="Fill-1" fill="#FFFFFF"></path>
                <path d="M8.09267857,3.74022718 L8.09267857,1.97600849 L10.7329464,1.97600849 L10.7329464,0.0453524416 L6.1125,0.0453524416 L6.1125,5.50192144 L10.7329464,5.50192144 L10.7329464,3.74022718 L8.09267857,3.74022718" id="Fill-2" fill="#FFFFFF"></path>
                <path d="M15.4825,1.97600849 L17.3283036,1.97600849 L17.3283036,0.0453524416 L12.7075,0.0453524416 L12.7075,1.97600849 C13.3257143,2.57873461 13.648125,2.86712739 14.5421429,3.73892144 C14.0195536,3.73892144 12.7075,3.74074947 12.7075,3.74057537 L12.7075,5.50192144 L17.3283036,5.50192144 L17.3283036,3.74022718 L15.4825,1.97600849" id="Fill-3" fill="#FFFFFF"></path>
                <path d="M22.031875,1.97600849 L23.8776786,1.97600849 L23.8776786,0.0453524416 L19.2565179,0.0453524416 L19.2565179,1.97600849 C19.8747321,2.57873461 20.1973214,2.86712739 21.0914286,3.73892144 C20.5689286,3.73892144 19.2565179,3.74074947 19.2565179,3.74057537 L19.2565179,5.50192144 L23.8776786,5.50192144 L23.8776786,3.74022718 L22.031875,1.97600849" id="Fill-4" fill="#FFFFFF"></path>
                <path id="Fill-5" fill="#1A1918" d="M6.58125,24.9367919 L6.56464286,24.8963142 L6.55125,24.9015372 L6.56785714,24.9420149 L6.61232143,24.9385329 L6.32392857,21.4391699 L6.27946429,21.4426518 L6.27946429,21.4861762 L6.29285714,21.4861762 L6.29285714,21.4426518 L6.24839286,21.4461338 L6.53678571,24.9402739 L6.58125,24.9367919 L6.56464286,24.8963142 L6.58125,24.9367919 L6.62571429,24.93331 L6.33401786,21.3991274 L6.23107143,21.3991274 L6.52821429,25.0043418 L6.59785714,24.9771826 L6.62839286,24.9652569 L6.62571429,24.93331 L6.58125,24.9367919"></path>
                <path id="Fill-6" fill="#1A1918" d="M6.58125,24.9367919 L6.56464286,24.8963142 L6.55125,24.9015372 L6.56785714,24.9420149 L6.61232143,24.9385329 L6.32392857,21.4391699 L6.27946429,21.4426518 L6.27946429,21.4861762 L6.29285714,21.4861762 L6.29285714,21.4426518 L6.24839286,21.4461338 L6.53678571,24.9402739 L6.58125,24.9367919 L6.56464286,24.8963142 L6.58125,24.9367919 L6.62571429,24.93331 L6.33401786,21.3991274 L6.23107143,21.3991274 L6.52821429,25.0043418 L6.59785714,24.9771826 L6.62839286,24.9652569 L6.62571429,24.93331 L6.58125,24.9367919"></path>
                <path d="M14.9491071,30.8117176 L14.936875,30.7698471 L14.930625,30.7715881 L14.9428571,30.8134586 L14.95375,30.7712399 L10.9007143,29.7733992 L10.6551786,26.9091444 L10.6107143,26.9128004 L10.6107143,26.9563248 L10.6241071,26.9563248 L10.6241071,26.9128004 L10.5796429,26.9163694 L10.8305357,29.842603 L14.9382143,30.8538493 L14.9491071,30.8117176 L14.936875,30.7698471 L14.9491071,30.8117176 L14.96,30.7694989 L10.9141071,29.7733992 L10.6651786,26.869276 L10.5622321,26.869276 L10.8170536,29.842603 L14.9435714,30.8584628 L14.9613393,30.8535011 L15.1208036,30.8091062 L14.96,30.7694989 L14.9491071,30.8117176" id="Fill-7" fill="#1A1918"></path>
                <path id="Fill-8" fill="#F2F2F1"></path>
                <path id="Fill-9" fill="#1A1918"></path>
                <path id="Fill-10" fill="#F2F2F1"></path>
                <path id="Fill-11" fill="#1A1918"></path>
                <path d="M6.87044643,26.869276 L6.76741071,26.869276 L7.26883929,32.5363291 L15.0285714,34.7732229 L15.0285714,34.6780786 L7.36598214,32.4697367 L6.87044643,26.869276" id="Fill-12" fill="#F2F2F1"></path>
                <path d="M14.9839286,21.4339469 L14.9633929,21.4426518 L23.6196429,21.4426518 L22.6294643,32.5431189 L14.9982143,34.7149873 L14.9839286,34.7106348 L7.32410714,32.5030764 L6.82946429,26.9128004 L10.6107143,26.9128004 L10.8589286,29.8080446 L14.9428571,30.8134586 L14.9491071,30.8117176 L14.95625,30.8134586 L14.9839286,30.8056242 L19.2053571,29.6478747 L19.4946429,24.9820573 L14.9839286,24.9681295 L6.58125,24.9420149 L6.58125,24.9367919 L6.29285714,21.4426518 L6.27946429,21.4426518 L15.4919643,17.7021635 L5.94910714,17.7021635 L5.49553571,14.1227155 L24.3071429,14.1227155 L23.9357143,17.7021635 L14.9839286,21.4339469" id="Fill-13" fill="#33A9DC"></path>
            </g>
        </g>
    </g>
</svg>