<?xml version="1.0" encoding="UTF-8" standalone="no"?>
<svg width="74px" height="74px" viewBox="0 0 74 74" version="1.1" xmlns="http://www.w3.org/2000/svg" xmlns:xlink="http://www.w3.org/1999/xlink" xmlns:sketch="http://www.bohemiancoding.com/sketch/ns">
    <!-- Generator: Sketch 3.4.2 (15855) - http://www.bohemiancoding.com/sketch -->
    <title>foundation-icon</title>
    <desc>Created with Sketch.</desc>
    <defs></defs>
    <g id="Resume-Tools" stroke="none" stroke-width="1" fill="none" fill-rule="evenodd" sketch:type="MSPage">
        <g id="foundation-icon" sketch:type="MSLayerGroup">
            <rect id="Rectangle-2" fill="#008CBA" sketch:type="MSShapeGroup" x="0.0583654581" y="0.5" width="73" height="73" rx="40"></rect>
            <path d="M50.975817,45.4166011 C50.975817,45.4166011 51.0140441,45.7918426 51.3547644,45.94161 C51.3547644,45.94161 51.1652907,46.1292308 50.8627976,45.9786404 C50.8627976,45.9786404 51.4677837,49.3154919 51.3547644,51.2649374 C51.3547644,51.2649374 51.1652907,51.1151699 50.9384209,51.0773166 C50.9384209,51.0773166 51.0514403,52.3519857 50.0675067,53.6266547 C50.0675067,53.6266547 50.0675067,53.2892665 49.878033,53.1394991 C49.878033,53.1394991 49.5605815,54.2907335 47.2943765,54.3713775 C47.3409139,54.6651521 47.3924375,54.9581038 47.4705538,55.2461181 C47.4805261,55.2815027 47.5287256,55.3053667 47.5619666,55.2823256 C47.6500552,55.2214311 47.7398059,55.1695886 47.8328807,55.1210376 C48.0830192,55.0395707 48.2359278,55.1449016 48.2359278,55.1449016 C47.9866203,55.206619 47.6899444,55.6855456 47.6226314,55.8748122 C47.8212463,55.8608229 47.9708308,55.9077281 48.1669527,56.0278712 C47.9791411,56.0517352 47.7738779,56.1480143 47.7738779,56.1480143 C48.8982547,56.6211807 49.0719389,57.3074776 49.4301106,57.7872272 C49.3229084,57.7271556 48.9788641,57.5798569 48.9572574,57.570805 C49.2896674,57.8802147 49.4675067,58.6257603 49.4932685,58.8709839 C49.5273405,59.1894454 49.5256785,59.1836852 49.5464541,59.4379606 C49.4076729,59.3894097 49.3021328,59.362254 49.2049029,59.3408587 C49.2049029,59.3416816 49.2057339,59.3425045 49.2057339,59.3441503 C49.1940995,59.3400358 49.1799721,59.3359213 49.1666757,59.3326297 C49.0694458,59.3112343 48.976371,59.2947764 48.8625206,59.2676208 C48.574986,59.2264758 47.8885594,59.1326655 47.4140441,59.1104472 C47.4206923,59.3367442 47.4223544,59.5951342 47.4173682,59.8905546 C47.1788641,59.8650447 46.942022,59.8255456 46.7060109,59.7844007 C46.6627976,59.7811091 46.6195843,59.7778175 46.5747089,59.773703 L46.5747089,59.7605367 C46.1342657,59.6815385 45.6946535,59.5984258 45.2475621,59.5778533 C44.6791411,59.5506977 44.1065649,59.563864 43.5406369,59.6346333 C43.5248475,59.6272272 43.508227,59.6189982 43.4924375,59.6099463 C43.441745,59.4610018 43.4350968,59.4519499 43.410997,59.2602147 C43.4060109,59.225653 43.4060109,59.1902683 43.3977006,59.1491234 C43.3819112,59.1458318 43.3661217,59.1433631 43.3503322,59.1417174 C43.343684,59.1392487 43.3345427,59.13678 43.3129361,59.1359571 C43.308781,59.1351342 43.3046258,59.1326655 43.2996397,59.1326655 C43.2830192,59.1310197 43.2672297,59.1293739 43.2506092,59.128551 C43.2389749,59.1244365 43.2281716,59.1227907 43.2190303,59.1252594 C43.0312186,59.1088014 42.7295566,59.0931664 42.541745,59.0832916 C42.0240164,59.0824687 41.6143211,59.1318426 41.5004707,59.1474776 C41.4963156,58.9754919 41.4813571,58.8035063 41.478033,58.6315206 C41.4747089,58.4282648 41.4871743,58.2365295 41.3783101,58.0859392 C41.2511632,56.7956351 40.443407,54.7499106 40.1932685,54.140966 C37.0370358,55.376136 33.6364818,54.189517 33.6364818,54.189517 L33.3614125,54.3582111 C32.2544873,57.4226834 32.2046258,58.474347 32.1547644,59.1515921 C32.1547644,59.1515921 31.3511632,59.0824687 30.7411909,59.0832916 C30.5533793,59.0931664 30.2517173,59.1088014 30.0639056,59.1252594 C30.0539333,59.1227907 30.04313,59.1244365 30.0314957,59.128551 C30.0157062,59.1293739 29.9990857,59.1310197 29.9824652,59.1326655 C29.977479,59.1326655 29.9741549,59.1351342 29.9691688,59.1359571 C29.9483932,59.13678 29.9384209,59.1392487 29.9326037,59.1417174 C29.9168142,59.1433631 29.9010247,59.1458318 29.8844042,59.1491234 C29.876094,59.1902683 29.876094,59.225653 29.8711078,59.2602147 C29.8470081,59.4519499 29.8403599,59.4610018 29.7904984,59.6099463 C29.6134901,59.709517 29.4240164,59.7374955 29.2220774,59.7613596 C28.1841272,59.846941 27.5608585,59.6971735 26.6650137,59.7761717 C26.6126591,59.7638283 26.5594735,59.7555993 26.5037948,59.7506619 C26.4971466,59.7506619 26.4921605,59.7523077 26.4863433,59.7531306 C26.3234624,59.6872987 26.2254015,59.59678 26.2254015,59.59678 L26.2145981,59.0734168 C25.6179222,59.1170304 24.4852353,59.2083721 24.076371,59.3441503 C24.1254015,59.2026118 24.2716619,59.0528444 24.3032408,58.9129517 C24.4004707,58.4850447 24.3339887,58.4858676 24.4736009,58.0694812 C24.6647366,57.5016816 24.9506092,56.8647585 25.3254015,56.4014669 C25.4492242,56.2484079 25.8979776,56.2089088 25.9129361,55.9883721 C25.9270635,55.989195 25.942853,55.9900179 25.9578114,55.9908408 L26.0392519,55.8616458 C26.7730469,55.827907 27.1212463,55.1885152 27.2982547,54.4339177 L25.8747089,54.4890519 C25.1176452,54.4890519 23.8303876,53.8521288 23.2627976,53.1016458 C22.6943765,52.3519857 22.278033,51.3776744 22.278033,51.3776744 C21.97554,51.4895886 21.5965926,51.8648301 21.5965926,51.8648301 C21.710443,50.702898 22.2024098,48.6785689 22.2024098,48.6785689 L21.5583655,48.2284436 L22.3918835,47.741288 C22.4292796,46.0913775 23.1863433,44.5171735 23.1863433,44.5171735 C22.9220774,44.3665832 22.3162602,44.666941 22.3162602,44.666941 C22.7326037,42.1924866 23.9816342,40.6931664 23.9816342,40.6931664 C23.4140441,40.5433989 22.6187533,41.0305546 22.6187533,41.0305546 C23.5278945,39.5682648 25.3071189,37.7685868 25.3071189,37.7685868 C25.1932685,37.4690519 24.5874513,37.1316637 24.5874513,37.1316637 C24.9663987,37.0189267 25.6852353,36.9810733 25.6852353,36.9810733 C26.1398059,36.419034 26.9724929,35.8569946 26.9724929,35.8569946 C26.8968696,34.7699463 26.178033,34.1322004 26.178033,34.1322004 C26.6317727,34.0194633 26.8968696,34.2449374 26.8968696,34.2449374 C26.8968696,32.5579964 26.2154292,31.8075134 26.2154292,31.8075134 C26.8594735,31.88322 27.1619666,32.2576386 27.1619666,32.2576386 C27.1619666,32.2576386 26.944238,30.1469052 26.8287256,27.9522361 C25.9204153,27.6979606 24.7121051,27.2058676 23.9467311,26.2817531 C22.5904984,24.6433631 22.7957616,22.7737388 22.7957616,22.7737388 C22.7957616,22.7737388 24.409612,24.459034 26.7722159,24.8745975 C26.7871743,24.4763148 26.8154292,24.1241145 26.8594735,23.8410376 C27.2001937,21.666941 29.0932685,18.5267621 29.0932685,18.5267621 C29.0932685,18.5267621 29.1306646,20.1437567 29.4331577,20.8563864 C29.4331577,20.8563864 30.6447921,16.6217531 35.2254015,14.710161 C35.2254015,14.710161 34.809058,16.0235063 34.9985317,17.5228265 C34.9985317,17.5228265 37.6852353,14 42.4179222,14 C42.4179222,14 41.4697228,14.7875134 41.4697228,17.1492308 C41.4697228,17.1492308 42.7536563,16.6991055 44.3051799,17.0364937 C44.3051799,17.0364937 42.9730469,17.9745975 43.3137671,19.5866547 C43.3137671,19.5866547 45.0032408,17.8240072 48.0323267,18.6115206 C48.0323267,18.6115206 47.208781,19.399034 46.943684,22.0602862 C46.943684,22.0602862 47.3226314,21.7986047 47.8902214,21.8356351 C47.8902214,21.8356351 46.8123821,22.7819678 46.308781,24.8433274 C48.5791411,24.3800358 50.1173682,22.7737388 50.1173682,22.7737388 C50.1173682,22.7737388 50.3226314,24.6433631 48.9663987,26.2817531 C48.1927145,27.2165653 46.9652907,27.7094812 46.0544873,27.9604651 L46.0544873,30.6834347 C46.0544873,30.6834347 46.4143211,30.0086583 47.1713848,30.0086583 C47.1713848,30.0086583 46.0544873,31.3582111 46.0544873,33.0821825 L46.0544873,35.6315206 C46.0544873,35.6315206 47.6060109,36.9061896 48.2118281,37.693703 C48.8176452,38.4812165 49.7267865,39.1181395 50.14313,39.3057603 C50.14313,39.3057603 49.8024098,39.5682648 49.1965926,39.5682648 C49.1965926,39.5682648 49.7641826,41.3300894 50.14313,43.0548837 C50.5212463,44.779678 51.0514403,45.0043292 51.544238,45.0043292 C51.544238,45.0043292 51.4686148,45.4544544 50.975817,45.4166011" id="Imported-Layers" fill="#FFFFFF" sketch:type="MSShapeGroup"></path>
            <path d="M40.968,32.184 C40.608,32.16 40.176,32.16 39.504,32.208 C37.056,32.328 35.04,33.096 33.48,34.512 C31.8,36.072 30.72,38.52 30.72,41.448 C30.72,45.168 32.76,48.264 36.912,48.264 C40.296,48.264 42.672,45.72 42.672,42.624 C42.672,39.384 40.464,37.536 37.848,37.536 C36.384,37.536 35.304,37.992 34.536,38.784 L34.464,38.784 C34.872,36.96 36.312,35.304 39.552,35.04 C40.128,34.992 40.56,34.968 40.968,34.992 L40.968,32.184 Z M36.864,45.576 C35.208,45.576 34.416,44.088 34.344,42.432 C34.344,42 34.392,41.712 34.488,41.52 C34.848,40.728 35.664,40.128 36.648,40.128 C38.208,40.128 38.976,41.376 38.976,42.816 C38.976,44.4 38.16,45.576 36.864,45.576 L36.864,45.576 Z" id="6" fill="#008CBA" sketch:type="MSShapeGroup"></path>
        </g>
    </g>
</svg>