<?xml version="1.0" encoding="UTF-8" standalone="no"?>
<svg width="73px" height="73px" viewBox="0 0 73 73" version="1.1" xmlns="http://www.w3.org/2000/svg" xmlns:xlink="http://www.w3.org/1999/xlink" xmlns:sketch="http://www.bohemiancoding.com/sketch/ns">
    <!-- Generator: Sketch 3.4 (15575) - http://www.bohemiancoding.com/sketch -->
    <title>gulp-js-icon</title>
    <desc>Created with Sketch.</desc>
    <defs></defs>
    <g id="Resume-Tools" stroke="none" stroke-width="1" fill="none" fill-rule="evenodd" sketch:type="MSPage">
        <g id="gulp-js-icon" sketch:type="MSLayerGroup">
            <rect id="Rectangle-2" fill="#D94749" sketch:type="MSShapeGroup" x="0" y="0" width="73" height="73" rx="40"></rect>
            <path d="M35.3885714,50.4213601 C32.1637143,50.4213601 29.6718571,49.9381865 28.4735714,49.6502202 C27.6541429,49.4533031 26.9961429,49.2495466 26.4962857,49.0402332 L28.0944286,51.7635881 L28.7195714,60.272772 C28.7195714,61.2267228 31.7578571,62 35.5057143,62 C39.2535714,62 42.2918571,61.2267228 42.2918571,60.272772 L42.7868571,51.6709715 L44.299,49.0322539 C43.797,49.2444171 43.1331429,49.4508808 42.3034286,49.6502202 C41.1051429,49.9381865 38.6132857,50.4213601 35.3885714,50.4213601 Z M44.3508571,22.7321373 C41.984,23.0618523 38.8427143,23.2435233 35.5057143,23.2435233 C32.1687143,23.2435233 29.0274286,23.0618523 26.6605714,22.7321373 C25.4881429,22.5688472 24.5605714,22.3762047 23.9035714,22.1599093 C23.7468571,22.1081865 23.4812857,22.019987 23.2257143,21.8794948 L24.6921429,35.3406736 C24.7602857,35.1088472 24.8361429,34.8773057 24.9202857,34.6466192 C25.0924286,34.1738472 25.2915714,33.7116192 25.5175714,33.2600777 C25.7437143,32.8086788 25.9898571,32.3819301 26.256,31.9799741 C26.522,31.5781606 26.8052857,31.2081218 27.1054286,30.87 C27.4057143,30.5320207 27.7137143,30.2413472 28.03,29.9976943 C28.3461429,29.7543264 28.6652857,29.5639637 28.9874286,29.4268912 C29.3097143,29.2898187 29.6288571,29.2211399 29.945,29.2211399 C30.3091429,29.2211399 30.6614286,29.3204534 31.0017143,29.5190803 C31.3418571,29.7175648 31.6598571,30.039158 31.9561429,30.4835751 C32.0241429,30.5828886 32.0672857,30.683342 32.0851429,30.7849352 C32.1032857,30.886671 32.1121429,30.9824223 32.1121429,31.0721891 C32.1121429,31.2849223 32.0611429,31.4529145 31.9591429,31.5757383 C31.8571429,31.6987047 31.736,31.7601166 31.596,31.7601166 C31.4677143,31.7601166 31.3487143,31.6927202 31.2387143,31.5580699 C31.1285714,31.4232772 31.0055714,31.2306347 30.8694286,30.98 C30.7412857,30.7530181 30.6002857,30.5888731 30.4462857,30.4871373 C30.2921429,30.385544 30.1251429,30.3346762 29.945,30.3346762 C29.6648571,30.3346762 29.3657143,30.4505181 29.0475714,30.6822021 C28.7292857,30.9137435 28.4141429,31.2199482 28.1021429,31.6005311 C27.7898571,31.9812565 27.4907143,32.4161269 27.2045714,32.9055699 C26.9184286,33.3948705 26.6651429,33.8959974 26.445,34.4089508 C26.2248571,34.9221891 26.05,35.4281606 25.9198571,35.9268653 C25.7897143,36.4255699 25.7247143,36.8735492 25.7247143,37.2706606 C25.7247143,37.4031736 25.7338571,37.5392487 25.7517143,37.6784585 C25.7698571,37.8180959 25.8037143,37.9444819 25.8538571,38.058044 C25.9037143,38.1716062 25.9718571,38.2647927 26.0578571,38.3378886 C26.144,38.4114119 26.253,38.4478886 26.385,38.4478886 C26.5331429,38.4478886 26.7011429,38.3983031 26.8894286,38.2989896 C27.0774286,38.1999611 27.2725714,38.069728 27.4745714,37.9091451 C27.6767143,37.7482772 27.8798571,37.5663212 28.084,37.3628497 C28.2882857,37.1596632 28.4782857,36.9540544 28.6542857,36.7458808 C28.8302857,36.5379922 28.9864286,36.3380829 29.1224286,36.1467228 C29.2585714,35.9552202 29.3605714,35.7885104 29.4287143,35.6465933 L29.987,33.9799223 C30.055,33.8003886 30.144,33.6727202 30.2541429,33.5970596 C30.3641429,33.521399 30.4772857,33.4834974 30.5934286,33.4834974 C30.6492857,33.4834974 30.7052857,33.493044 30.7614286,33.5118523 C30.8175714,33.5308031 30.8674286,33.5604404 30.9115714,33.6004793 C30.9555714,33.6408031 30.9905714,33.6926684 31.0165714,33.7566451 C31.0425714,33.8203368 31.0555714,33.8948575 31.0555714,33.9799223 C31.0555714,34.2069041 31.0355714,34.4194948 30.9955714,34.6182642 C30.9555714,34.8170337 30.9045714,35.0106736 30.8424286,35.1998964 C30.7804286,35.3888342 30.7112857,35.5791969 30.6352857,35.7706995 C30.5592857,35.9622021 30.4851429,36.1619689 30.4132857,36.3701425 C30.3972857,36.3937953 30.3682857,36.4680311 30.3261429,36.5932772 C30.2841429,36.7188083 30.2332857,36.876114 30.1731429,37.0650518 C30.1131429,37.2542746 30.048,37.4657254 29.978,37.6998316 C29.9078571,37.9339378 29.836,38.1726036 29.762,38.416114 C29.6878571,38.6596244 29.6168571,38.8984326 29.5488571,39.1325389 C29.4807143,39.3665026 29.4195714,39.5780959 29.3657143,39.7673187 C29.3117143,39.9562565 29.2667143,40.1145596 29.2305714,40.2423705 C29.1945714,40.3700389 29.1725714,40.445557 29.1645714,40.4694948 C29.1445714,40.5448705 29.1124286,40.6289378 29.0685714,40.7209845 C29.0245714,40.8131736 28.9725714,40.9008031 28.9124286,40.9834456 C28.8524286,41.0660881 28.7864286,41.1349093 28.7142857,41.1890544 C28.6422857,41.243342 28.5682857,41.2706995 28.4921429,41.2706995 C28.3641429,41.2706995 28.271,41.2280959 28.2131429,41.1431736 C28.155,41.0579663 28.1261429,40.901943 28.1261429,40.6751036 L28.1261429,40.5757902 C28.1261429,40.5425907 28.128,40.5069689 28.132,40.4694948 C28.1358571,40.3936917 28.166,40.2517746 28.2221429,40.043601 C28.2781429,39.8357124 28.3451429,39.6006088 28.4232857,39.3381477 C28.5012857,39.0756865 28.5854286,38.8038212 28.6754286,38.5224093 C28.7652857,38.2411399 28.8464286,37.9895078 28.9185714,37.767228 C28.7061429,38.0037565 28.4762857,38.2388601 28.2281429,38.4729663 C27.9798571,38.7069301 27.7257143,38.9173834 27.4657143,39.1040415 C27.2054286,39.290842 26.9432857,39.4433031 26.6792857,39.5615674 C26.4151429,39.6796891 26.161,39.7389637 25.9168571,39.7389637 C25.6367143,39.7389637 25.3955714,39.6774093 25.1932857,39.554443 C25.1568571,39.5320725 25.1224286,39.5071373 25.0881429,39.4823446 L25.9041429,48.0156088 C26.1165714,48.546658 30.1157143,49.8514119 35.3885714,49.8514119 C40.6638571,49.8514119 44.6645714,48.5453756 44.8732857,48.0147539 L46.0454286,37.8693912 C45.9484286,37.9581606 45.854,38.0449352 45.7637143,38.1290026 C45.4274286,38.4409067 45.1101429,38.7092098 44.812,38.9337694 C44.514,39.158329 44.2227143,39.3323057 43.9385714,39.454987 C43.6542857,39.5780959 43.3501429,39.6395078 43.026,39.6395078 C42.7218571,39.6395078 42.4865714,39.5732513 42.3205714,39.4408808 C42.1545714,39.3086528 42.0714286,39.1266969 42.0714286,38.8948705 L42.0714286,38.8417228 C42.0714286,38.8251943 42.0734286,38.8049611 42.0775714,38.7813083 C42.0934286,38.6396762 42.1557143,38.4762435 42.2637143,38.2920078 C42.3717143,38.107487 42.5017143,37.9161269 42.6537143,37.7176425 C42.8058571,37.5190155 42.9678571,37.3179663 43.14,37.1146373 C43.3121429,36.9114508 43.4712857,36.7188083 43.6174286,36.5365674 C43.7634286,36.3548964 43.8844286,36.1881865 43.9804286,36.0367228 C44.0767143,35.8854016 44.1247143,35.7625777 44.1247143,35.6679663 C44.1247143,35.6112565 44.1045714,35.5663731 44.0647143,35.5330311 C44.0245714,35.5002591 43.9584286,35.4834456 43.8665714,35.4834456 C43.7064286,35.4834456 43.5412857,35.5249093 43.3714286,35.6075518 C43.2011429,35.6901943 43.0328571,35.8016192 42.8668571,35.9409715 C42.7008571,36.0804663 42.5387143,36.2401943 42.3805714,36.419728 C42.2227143,36.5994041 42.0745714,36.7862047 41.9364286,36.9798446 C41.7982857,37.1739119 41.6724286,37.3689767 41.5582857,37.5651813 C41.4441429,37.761386 41.3471429,37.9422021 41.267,38.107487 C41.243,38.1596373 41.209,38.2330181 41.1648571,38.3273446 C41.1208571,38.421956 41.0728571,38.5285363 41.0208571,38.646658 C40.9687143,38.7649223 40.9137143,38.8867487 40.8557143,39.0117098 C40.7977143,39.1372409 40.7447143,39.2555052 40.6967143,39.3665026 C40.6487143,39.4776425 40.6057143,39.576671 40.5678571,39.6643005 C40.5295714,39.7516451 40.5025714,39.8120596 40.4865714,39.8452591 C40.4665714,39.8877202 40.4335714,39.9679404 40.3875714,40.0862047 C40.3415714,40.2044689 40.2884286,40.3428238 40.2285714,40.5011269 C40.1685714,40.6594301 40.1054286,40.8261399 40.0392857,41.0012565 C39.9735714,41.1759456 39.9112857,41.341658 39.8532857,41.4976813 C39.7951429,41.6535622 39.7441429,41.7907772 39.7002857,41.9090415 C39.6562857,42.0270207 39.628,42.1075259 39.616,42.1501295 C39.5761429,42.2730959 39.529,42.3886528 39.4751429,42.4977979 C39.421,42.6063731 39.3591429,42.7021244 39.289,42.7850518 C39.219,42.8676943 39.139,42.9338083 39.0488571,42.9833938 C38.9587143,43.0332642 38.8577143,43.0579145 38.7458571,43.0579145 C38.6015714,43.0579145 38.4827143,43.0234326 38.3884286,42.9550389 C38.2945714,42.8865026 38.2474286,42.7551295 38.2474286,42.5614896 C38.2474286,42.4668782 38.2594286,42.369987 38.2834286,42.2708161 C38.3074286,42.1715026 38.3375714,42.0731865 38.3735714,41.9764378 C38.4095714,41.8792617 38.4467143,41.7849352 38.4847143,41.6927461 C38.5225714,41.6004145 38.5577143,41.5119301 38.5895714,41.4267228 C38.8058571,40.9539508 39.026,40.4800389 39.25,40.0047021 C39.474,39.5296503 39.6891429,39.0593005 39.8954286,38.5935104 C39.9382857,38.4963342 39.9777143,38.4011528 40.0195714,38.3045466 C40.007,38.3168005 39.9947143,38.3296244 39.9824286,38.3415933 C39.7221429,38.5923705 39.4631429,38.8132254 39.205,39.004728 C38.9467143,39.1962306 38.6905714,39.3486917 38.4367143,39.4622539 C38.1824286,39.5755311 37.9352857,39.6323834 37.695,39.6323834 C37.531,39.6323834 37.394,39.6064508 37.284,39.554443 C37.1738571,39.5022927 37.086,39.4313342 37.0198571,39.3417098 C36.9537143,39.251943 36.9065714,39.1455052 36.8785714,39.0225389 C36.8691429,38.9805052 36.8632857,38.9366192 36.8571429,38.8928756 C36.7868571,38.9474482 36.716,39.0005959 36.6445714,39.0510363 C36.3964286,39.2257254 36.1522857,39.3665026 35.9121429,39.4727979 C35.6721429,39.5792358 35.4558571,39.6323834 35.264,39.6323834 C35.0717143,39.6323834 34.9157143,39.5685492 34.7954286,39.4408808 C34.6754286,39.3133549 34.6155714,39.0957772 34.6155714,38.7885751 C34.6155714,38.5708549 34.6475714,38.3179404 34.7114286,38.0296891 C34.6074286,38.2140674 34.4774286,38.4008679 34.3214286,38.5898057 C34.1651429,38.7790285 33.9871429,38.9515803 33.7871429,39.1077461 C33.5867143,39.2636269 33.3627143,39.3901554 33.1147143,39.4870466 C32.8664286,39.5839378 32.5962857,39.6323834 32.3042857,39.6323834 C32.1721429,39.6323834 32.0451429,39.6158549 31.923,39.5827979 C31.8008571,39.5495984 31.6938571,39.4928886 31.6018571,39.4125259 C31.5097143,39.3323057 31.4358571,39.2245855 31.3797143,39.0899352 C31.3237143,38.955285 31.2957143,38.7860104 31.2957143,38.5828238 C31.2957143,38.5781218 31.3037143,38.5060233 31.3197143,38.366386 C31.3357143,38.2268912 31.3867143,38.0070337 31.4728571,37.7068135 C31.5588571,37.4067358 31.692,37.0177461 31.8718571,36.5401295 C32.0521429,36.0626554 32.3062857,35.4834456 32.6344286,34.802785 C32.7184286,34.6229663 32.8155714,34.494158 32.9254286,34.4162176 C33.0357143,34.3381347 33.1545714,34.2990933 33.2825714,34.2990933 C33.3387143,34.2990933 33.3967143,34.3075 33.4567143,34.323886 C33.517,34.340557 33.5728571,34.3664896 33.625,34.4019689 C33.6768571,34.4374482 33.719,34.4824741 33.7511429,34.5367617 C33.7828571,34.5910492 33.7991429,34.653601 33.7991429,34.7245596 C33.7991429,34.7718653 33.793,34.8170337 33.781,34.8592098 C33.7608571,34.94 33.7178571,35.0448705 33.6521429,35.1748187 C33.586,35.3050518 33.5088571,35.4539508 33.4207143,35.6218005 C33.3328571,35.7896503 33.2397143,35.9704663 33.1417143,36.1645337 C33.0435714,36.3581736 32.9525714,36.5590803 32.8685714,36.7672539 C32.7845714,36.9754275 32.7124286,37.1868782 32.6524286,37.4020337 C32.5924286,37.6171891 32.5582857,37.8265026 32.5504286,38.0296891 C32.5504286,38.1147539 32.5702857,38.1926943 32.6104286,38.2636528 C32.6504286,38.3346114 32.7165714,38.3699482 32.8085714,38.3699482 C33.0685714,38.3699482 33.3167143,38.2847409 33.553,38.1147539 C33.789,37.9444819 34.007,37.7328886 34.2072857,37.4799741 C34.4074286,37.2270596 34.5884286,36.9550518 34.7505714,36.6642358 C34.9127143,36.3734197 35.0477143,36.1076813 35.1557143,35.8664508 C35.2318571,35.7058679 35.2988571,35.5330311 35.3568571,35.3487953 C35.4148571,35.1642746 35.478,34.9942876 35.546,34.8381218 C35.6141429,34.681956 35.692,34.5520078 35.7801429,34.4479922 C35.868,34.3441192 35.9782857,34.2919689 36.1101429,34.2919689 C36.2544286,34.2919689 36.3682857,34.346399 36.4525714,34.4551166 C36.5365714,34.5639767 36.5784286,34.6939249 36.5784286,34.8451036 C36.5784286,34.9301684 36.5515714,35.0474352 36.4974286,35.1963342 C36.4432857,35.3452332 36.3752857,35.5155052 36.2932857,35.7070078 C36.2111429,35.8985104 36.1221429,36.1029793 36.0262857,36.320272 C35.9302857,36.5379922 35.841,36.7588472 35.7592857,36.9835492 C35.6768571,37.2081088 35.6091429,37.4279663 35.555,37.6431218 C35.5008571,37.8581347 35.474,38.058044 35.474,38.2422798 C35.474,38.4125518 35.562,38.4977591 35.738,38.4977591 C35.8621429,38.4977591 36.0161429,38.4551554 36.2002857,38.3699482 C36.3844286,38.2847409 36.5775714,38.1654793 36.7795714,38.0117358 C36.83,37.9734067 36.8808571,37.9333679 36.9312857,37.8913342 C36.9877143,37.6592228 37.0538571,37.4446373 37.1308571,37.2495725 C37.2708571,36.8805311 37.413,36.5143394 37.5571429,36.150285 C37.7011429,35.7862306 37.8331429,35.4528109 37.9534286,35.1501684 L39.7722857,30.5757642 C39.8442857,30.391386 39.9414286,30.2612953 40.0632857,30.1856347 C40.1855714,30.1101166 40.3085714,30.072215 40.4327143,30.072215 C40.5565714,30.072215 40.6695714,30.1123964 40.7717143,30.1927591 C40.8738571,30.2732642 40.925,30.4032124 40.925,30.5828886 C40.925,30.6679534 40.9078571,30.7578627 40.8738571,30.8523316 C40.8398571,30.946943 40.7968571,31.0485363 40.7447143,31.1572539 C40.6448571,31.3796762 40.5257143,31.651399 40.3875714,31.9728497 C40.2494286,32.294443 40.1012857,32.6443912 39.9432857,33.0225518 C39.7851429,33.4008549 39.623,33.7944041 39.457,34.203342 C39.291,34.6124223 39.1288571,35.0106736 38.9707143,35.3983808 C38.8128571,35.7862306 38.6645714,36.1535622 38.5264286,36.5012306 C38.3884286,36.8487565 38.2695714,37.1502591 38.1692857,37.4054534 C38.1252857,37.514171 38.0822857,37.640842 38.0404286,37.7850389 C37.9982857,37.9290933 37.9774286,38.058044 37.9774286,38.1716062 C37.9774286,38.2422798 37.9894286,38.2989896 38.0134286,38.3415933 C38.0374286,38.3841969 38.0834286,38.4055699 38.1514286,38.4055699 C38.2354286,38.4055699 38.3404286,38.3760751 38.4665714,38.3168005 C38.5925714,38.2578109 38.7285714,38.1795855 38.8747143,38.0826943 C39.021,37.9859456 39.173,37.8748057 39.3308571,37.7494171 C39.4891429,37.624171 39.6461429,37.4942228 39.8021429,37.3594301 C39.9584286,37.2244948 40.1074286,37.0898446 40.2494286,36.9550518 C40.3914286,36.8204016 40.5187143,36.6962953 40.6308571,36.5827332 C40.6571429,36.5555181 40.6885714,36.5362824 40.7231429,36.5218912 C40.7907143,36.320557 40.8524286,36.1233549 40.9068571,35.9304275 C40.9388571,35.8452202 40.983,35.7248187 41.039,35.5686528 C41.0948571,35.412487 41.159,35.258886 41.231,35.1075648 C41.303,34.956386 41.3842857,34.825013 41.474,34.7140155 C41.5641429,34.6030181 41.6612857,34.5473057 41.7652857,34.5473057 C41.9254286,34.5473057 42.0415714,34.5840674 42.1135714,34.6571632 C42.1855714,34.7306865 42.2215714,34.8381218 42.2215714,34.9800389 C42.2215714,35.0083938 42.2175714,35.0532772 42.2095714,35.1146891 C42.2014286,35.1762435 42.1917143,35.2413601 42.1797143,35.3098964 C42.1677143,35.3782902 42.1545714,35.4434067 42.1405714,35.5049611 C42.1264286,35.5663731 42.1135714,35.6112565 42.1015714,35.6396114 C42.2494286,35.4787435 42.4095714,35.3193005 42.5817143,35.1609974 C42.7538571,35.0025518 42.9318571,34.8592098 43.116,34.7318264 C43.3002857,34.6040155 43.4882857,34.500285 43.6805714,34.4194948 C43.8724286,34.3394171 44.0647143,34.2990933 44.2567143,34.2990933 C44.3887143,34.2990933 44.5198571,34.318044 44.6498571,34.3559456 C44.7798571,34.3937047 44.8961429,34.4492746 44.998,34.522513 C45.1001429,34.5960363 45.1832857,34.6880829 45.2471429,34.7992228 C45.3111429,34.9102202 45.3431429,35.0390285 45.3431429,35.1856477 C45.3431429,35.379715 45.2942857,35.5864637 45.1961429,35.8063212 C45.0981429,36.0261788 44.9751429,36.2471762 44.827,36.469171 C44.6788571,36.6915933 44.5187143,36.9077461 44.3468571,37.1181995 C44.1747143,37.3286528 44.0137143,37.520013 43.8635714,37.6925648 C43.7134286,37.8654016 43.5872857,38.0117358 43.4851429,38.1322798 C43.3834286,38.2531088 43.33,38.3346114 43.3261429,38.377215 C43.3261429,38.4339249 43.3442857,38.4799482 43.3802857,38.5155699 C43.4162857,38.5509067 43.4762857,38.5687176 43.5602857,38.5687176 C43.6282857,38.5687176 43.7285714,38.5308161 43.8604286,38.4551554 C43.9924286,38.3794948 44.1777143,38.2484067 44.4157143,38.0616062 C44.6537143,37.8748057 44.9561429,37.624171 45.3222857,37.3097021 C45.5734286,37.0942617 45.8674286,36.8373575 46.1987143,36.5451166 L47.7864286,21.8790674 C47.5307143,22.0198446 47.2647143,22.1081865 47.1078571,22.1599093 C46.451,22.3762047 45.5234286,22.5688472 44.3508571,22.7321373 Z M35.4962857,19.2524611 C28.632214,19.2524611 23.0677143,20.0179558 23.0677143,20.9623057 C23.0677143,21.9066556 28.632214,22.6721503 35.4962857,22.6721503 C42.3603574,22.6721503 47.9248571,21.9066556 47.9248571,20.9623057 C47.9248571,20.0179558 42.3603574,19.2524611 35.4962857,19.2524611 Z M40.4588571,21.4620078 C40.4588571,21.6835751 39.7975714,21.8632513 38.9817143,21.8632513 C38.166,21.8632513 37.5047143,21.6835751 37.5047143,21.4620078 C37.5047143,21.2402979 38.166,21.0606218 38.9817143,21.0606218 C39.7975714,21.0606218 40.4588571,21.2402979 40.4588571,21.4620078 Z" id="Cup" fill="#FFFFFF" sketch:type="MSShapeGroup"></path>
            <path d="M37.8038221,21.2846105 C37.7964984,21.2962567 37.7927143,21.3081487 37.7927143,21.3202332 C37.7927143,21.4637176 38.3251429,21.5798446 38.9817143,21.5798446 C39.6384286,21.5798446 40.1707143,21.4637176 40.1707143,21.3202332 L41.7237143,15.0396891 L47.8998637,8.53590192 C47.9018803,8.53391766 47.9038308,8.53186421 47.9057143,8.52974093 C48.0364286,8.38226684 47.7711429,7.92588083 47.331,7.53446891 C46.8908571,7.14305699 46.4155714,7.01054404 46.2678571,7.15958549 C46.266753,7.16070014 46.2656761,7.16183054 46.2646261,7.16297656 L39.675,14.0790415 L37.8038221,21.2846105 Z" id="Straw" fill="#FFFFFF" sketch:type="MSShapeGroup"></path>
        </g>
    </g>
</svg>