<?xml version="1.0" encoding="UTF-8" standalone="no"?>
<svg width="74px" height="74px" viewBox="0 0 74 74" version="1.1" xmlns="http://www.w3.org/2000/svg" xmlns:xlink="http://www.w3.org/1999/xlink" xmlns:sketch="http://www.bohemiancoding.com/sketch/ns">
    <!-- Generator: Sketch 3.2.2 (9983) - http://www.bohemiancoding.com/sketch -->
    <title>js-icon</title>
    <desc>Created with Sketch.</desc>
    <defs></defs>
    <g id="Resume-Tools" stroke="none" stroke-width="1" fill="none" fill-rule="evenodd" sketch:type="MSPage">
        <g id="js-icon" sketch:type="MSLayerGroup">
            <rect id="Rectangle-2" fill="#F0DB4F" sketch:type="MSShapeGroup" x="0.558365458" y="0.5" width="73" height="73" rx="40"></rect>
            <g id="Imported-Layers" transform="translate(27.000000, 37.000000)" fill="#323330" sketch:type="MSShapeGroup">
                <path d="M30.6044585,3.77155402 C29.7924427,2.34045706 28.7573755,1.22664543 27.2565375,0.633232687 C25.681581,0.0105124654 24.046166,-0.083398892 22.4062609,0.262875346 C19.9993676,0.771105263 18.2416443,2.11950416 17.6508458,4.59878947 C17.0501186,7.11974238 17.5966482,9.38527424 19.6103083,11.1546814 C20.4441423,11.8873684 21.4096443,12.4102521 22.4124585,12.8647091 C23.4116047,13.3175734 24.4249802,13.739856 25.4128063,14.2162299 C25.8548617,14.42941 26.2913518,14.694133 26.6580237,15.0184266 C27.7267984,15.9636565 27.5845059,17.5843601 26.3691383,18.3261579 C26.0084743,18.5463463 25.582419,18.7086205 25.1666719,18.7777479 C23.2286482,19.1000028 21.6079684,18.5264681 20.3845059,16.938831 C20.1792253,16.6725152 19.9914625,16.3925014 19.7752411,16.0903158 C18.5375494,16.8120443 17.3132016,17.526 16.0969486,18.2353047 C16.1164901,18.3124598 16.1194625,18.345144 16.1328063,18.372795 C16.1696759,18.4490582 16.2091383,18.5241745 16.2506877,18.5980166 C17.0238103,19.9714543 18.0884111,21.0537922 19.4736443,21.7938061 C21.6883478,22.9771274 24.047747,23.1893518 26.4793043,22.7529252 C28.0421818,22.4724654 29.4110988,21.8025983 30.5150356,20.6088283 C32.4597628,18.5056981 32.7052648,13.6796482 29.4863557,11.3233269 C28.5423557,10.6321801 27.5293597,10.0757839 26.4707036,9.59456787 C25.5009644,9.15374515 24.5194625,8.73764266 23.5633202,8.26885042 C23.1812806,8.0815374 22.8082213,7.82764543 22.5086482,7.52584211 C21.4164743,6.42547368 21.9330277,4.55635734 23.4313992,4.20122715 C24.6542925,3.91140166 25.7070672,4.23900831 26.5027668,5.25667867 C26.6966008,5.50464543 26.8646324,5.77312742 27.0648538,6.06136011 C28.2420237,5.29981163 29.4081897,4.54539889 30.6044585,3.77155402 L30.6044585,3.77155402 Z M0.00720948617,18.7158199 C0.00720948617,18.7853296 0.00215019763,18.8078837 0.00828458498,18.8266787 C0.021312253,18.8668172 0.0380079051,18.9061274 0.056916996,18.9439086 C0.81486166,20.4539446 1.91285375,21.6243961 3.47162055,22.2935623 C5.40970751,23.1255762 7.40977075,23.1701745 9.4123004,22.5840249 C11.3568379,22.0148227 12.6278577,20.7143352 13.2373755,18.7655789 C13.5186719,17.8660305 13.6142925,16.9404875 13.614166,16.0011828 C13.6132174,10.9063324 13.6116364,5.81148199 13.6203004,0.716695291 C13.6207431,0.422919668 13.5360632,0.337290859 13.248,0.340476454 C12.0049328,0.354047091 10.7616126,0.346019391 9.51841897,0.346210526 C9.03962055,0.346274238 9.03936759,0.346783934 9.03936759,0.82500554 C9.03924111,5.8243518 9.0456917,10.8236343 9.03019763,15.8229169 C9.02849012,16.3786122 8.95101976,16.9459668 8.82067984,17.4863712 C8.66921739,18.1141884 8.23848221,18.5504238 7.6046166,18.707856 C6.14886957,19.0694848 5.1761581,18.6944127 4.43693281,17.6743213 C4.22621344,17.3836039 4.04654545,17.0700139 3.85264822,16.7668726 C3.79743874,16.6804792 3.74222925,16.5940859 3.67083004,16.4822715 C2.42649802,17.2408255 1.20524901,17.9854266 0.00720948617,18.7158199 L0.00720948617,18.7158199 Z" id="Fill-1"></path>
            </g>
        </g>
    </g>
</svg>