<?xml version="1.0" encoding="UTF-8" standalone="no"?>
<svg width="74px" height="74px" viewBox="0 0 74 74" version="1.1" xmlns="http://www.w3.org/2000/svg" xmlns:xlink="http://www.w3.org/1999/xlink" xmlns:sketch="http://www.bohemiancoding.com/sketch/ns">
    <!-- Generator: Sketch 3.2.2 (9983) - http://www.bohemiancoding.com/sketch -->
    <title>mamp-pro-icon</title>
    <desc>Created with Sketch.</desc>
    <defs></defs>
    <g id="Resume-Tools" stroke="none" stroke-width="1" fill="none" fill-rule="evenodd" sketch:type="MSPage">
        <g id="mamp-pro-icon" sketch:type="MSLayerGroup">
            <rect id="Rectangle-2" fill="#177BB1" sketch:type="MSShapeGroup" x="0.558365458" y="0.5" width="73" height="73" rx="40"></rect>
            <rect id="Rectangle-5" stroke="#FFFFFF" stroke-width="2" sketch:type="MSShapeGroup" x="1" y="1" width="72" height="72" rx="40"></rect>
            <path d="M19.194569,38.943205 C19.3071893,38.5919087 19.7602652,38.5136124 19.8567969,38.8695754 C19.8575753,38.8724272 19.8583538,38.8752791 19.8591323,38.8778717 C21.060069,43.6490198 22.2394677,48.4258717 23.4746576,53.1879457 C23.5935057,53.6463161 24.0237462,54.3463161 24.3548601,54.3730198 C26.0958032,54.5140569 27.8541323,54.5399828 29.6007842,54.4694643 C30.4527019,54.4349828 30.7173855,53.8503532 30.6807969,52.9201309 C30.6026893,50.942242 30.6571829,48.9506124 30.8069108,46.9758346 C30.8803475,46.0069828 31.125569,44.9717606 31.5957715,44.1366865 C31.9725563,43.4675383 32.5738032,43.086168 33.1636323,43.0065754 C33.5012336,42.9609457 34.2485753,42.7929457 35.2364677,43.571242 C35.7074488,43.9425013 35.9111513,45.3956494 35.9472209,46.0233161 C36.0803412,48.3475754 36.18855,50.6775383 36.1742779,53.0046494 C36.167531,54.1109087 36.5645563,54.6304643 37.6266639,54.6566494 C38.7022652,54.6830939 39.7789045,54.6563902 40.8545057,54.6768717 C42.2085437,54.7022791 42.7158538,54.0505013 43.0269867,52.7163532 C43.8189614,49.3185013 44.7007209,46.0927976 45.7252019,42.7556124 C46.0612462,41.6605013 46.6759867,40.4095754 47.4212526,39.5283532 C48.3001576,38.4884643 49.9152462,38.4368717 50.5730627,39.9506865 C51.0020057,40.9376865 51.032626,42.2109087 50.7972652,43.2373161 C49.9354867,46.9973532 49.1237905,48.7175383 48.3899424,51.1470569 C48.2594171,51.5800198 48.3515374,52.4003161 48.6374994,52.5620939 C49.1359867,52.8439087 49.8586766,52.9113161 50.3696196,52.7674272 C50.8616196,52.6289828 51.27655,52.1299087 51.6766893,51.7394643 C54.351031,49.128205 56.0177589,45.928168 56.8943285,42.3423532 C58.4323475,36.0503902 57.0928412,30.4594643 52.6103475,25.6779457 C51.8344614,24.8501309 51.1237082,24.7433161 50.1137589,25.2527606 C47.3755817,26.6335754 44.9547652,28.4190939 42.9491386,30.7257235 C42.6504614,31.069242 42.5349867,31.8949828 42.7392082,32.2885383 C43.2768791,33.3255754 44.0369361,34.2477606 44.7085057,35.2158346 C43.7250247,34.576242 42.788512,33.8313902 42.1005943,32.9027235 C41.0403032,31.4708346 41.1012842,31.020242 42.3678728,29.7921309 C43.5306639,28.6648717 44.7993285,27.6465013 46.1492146,26.4684272 C41.2608728,22.213205 35.9295753,18.7139828 29.3148222,20.4585383 C22.3917905,22.2845013 18.9041956,26.6916494 17.4876196,32.5986124 C16.6068981,36.2705013 16.8503032,39.9364272 18.7858665,43.3438717 C18.8709804,41.8064643 18.8268665,40.0906865 19.194569,38.943205" id="Imported-Layers" fill="#FFFFFF" sketch:type="MSShapeGroup"></path>
        </g>
    </g>
</svg>