<?xml version="1.0" encoding="UTF-8" standalone="no"?>
<svg width="73px" height="73px" viewBox="0 0 73 73" version="1.1" xmlns="http://www.w3.org/2000/svg" xmlns:xlink="http://www.w3.org/1999/xlink" xmlns:sketch="http://www.bohemiancoding.com/sketch/ns">
    <!-- Generator: Sketch 3.2.2 (9983) - http://www.bohemiancoding.com/sketch -->
    <title>photoshop-icon</title>
    <desc>Created with Sketch.</desc>
    <defs></defs>
    <g id="Resume-Tools" stroke="none" stroke-width="1" fill="none" fill-rule="evenodd" sketch:type="MSPage">
        <g id="photoshop-icon" sketch:type="MSLayerGroup">
            <rect id="Rectangle-2" fill="#1F1F3F" sketch:type="MSShapeGroup" x="0" y="0" width="73" height="73" rx="40"></rect>
            <path d="M18.898,50.25 L25.24,50.25 L25.24,40.128 C25.828,40.212 26.584,40.254 27.424,40.254 C31.204,40.254 34.438,39.33 36.622,37.272 C38.302,35.676 39.226,33.324 39.226,30.552 C39.226,27.78 38.008,25.428 36.202,24 C34.312,22.488 31.498,21.732 27.55,21.732 C23.644,21.732 20.872,21.984 18.898,22.32 L18.898,50.25 Z M25.24,26.814 C25.702,26.688 26.584,26.562 27.886,26.562 C31.078,26.562 32.884,28.116 32.884,30.72 C32.884,33.618 30.784,35.34 27.382,35.34 C26.458,35.34 25.786,35.298 25.24,35.172 L25.24,26.814 Z M41.032,49.242 C42.586,50.082 44.98,50.67 47.668,50.67 C53.548,50.67 56.572,47.856 56.572,44.034 C56.53,41.01 54.892,39.036 50.986,37.692 C48.466,36.81 47.668,36.306 47.668,35.34 C47.668,34.29 48.55,33.66 50.104,33.66 C51.868,33.66 53.632,34.332 54.556,34.836 L55.69,30.426 C54.43,29.796 52.288,29.25 49.894,29.25 C44.812,29.25 41.536,32.148 41.536,35.97 C41.494,38.406 43.132,40.716 47.374,42.144 C49.768,42.942 50.398,43.446 50.398,44.496 C50.398,45.546 49.6,46.218 47.668,46.218 C45.778,46.218 43.342,45.378 42.166,44.664 L41.032,49.242 Z" id="Ps" fill="#3DD4F8" sketch:type="MSShapeGroup"></path>
        </g>
    </g>
</svg>