<?xml version="1.0" encoding="UTF-8" standalone="no"?>
<svg width="74px" height="73px" viewBox="0 0 74 73" version="1.1" xmlns="http://www.w3.org/2000/svg" xmlns:xlink="http://www.w3.org/1999/xlink" xmlns:sketch="http://www.bohemiancoding.com/sketch/ns">
    <!-- Generator: Sketch 3.2.2 (9983) - http://www.bohemiancoding.com/sketch -->
    <title>php-icon</title>
    <desc>Created with Sketch.</desc>
    <defs></defs>
    <g id="Resume-Tools" stroke="none" stroke-width="1" fill="none" fill-rule="evenodd" sketch:type="MSPage">
        <g id="php-icon" sketch:type="MSLayerGroup">
            <rect id="Rectangle-2" fill="#6082BB" sketch:type="MSShapeGroup" x="0.0583654581" y="0" width="73" height="73" rx="40"></rect>
            <rect id="Rectangle-4" stroke="#FFFFFF" stroke-width="2" fill="#6082BB" sketch:type="MSShapeGroup" x="1" y="1" width="71" height="71" rx="40"></rect>
            <path d="M12.0443655,45.75 L15.9923655,45.75 L17.2803655,38.946 C17.7003655,39.002 18.2603655,39.058 18.9323655,39.058 C21.2283655,39.058 23.4123655,38.526 24.9523655,37.322 C26.4363655,36.174 27.5283655,34.382 27.5283655,32.002 C27.5283655,30.182 26.7443655,28.866 25.4843655,27.998 C24.1123655,27.018 22.1523655,26.738 20.4723655,26.738 C18.6523655,26.738 16.7483655,26.934 15.5443655,27.242 L12.0443655,45.75 Z M18.9603655,30.098 C19.2963655,30.014 19.8283655,29.958 20.5843655,29.958 C22.1523655,29.958 23.4683655,30.546 23.4683655,32.366 C23.4683655,34.242 21.8723655,35.81 19.4363655,35.81 C18.7643655,35.81 18.3163655,35.754 17.8963655,35.67 L18.9603655,30.098 Z M31.4203655,26.878 L27.8363655,45.75 L31.8683655,45.75 L33.3803655,37.826 L40.2123655,37.826 L38.7283655,45.75 L42.7603655,45.75 L46.3443655,26.878 L42.3123655,26.878 L40.9123655,34.242 L34.0523655,34.242 L35.4523655,26.878 L31.4203655,26.878 Z M46.4843655,45.75 L50.4323655,45.75 L51.7203655,38.946 C52.1403655,39.002 52.7003655,39.058 53.3723655,39.058 C55.6683655,39.058 57.8523655,38.526 59.3923655,37.322 C60.8763655,36.174 61.9683655,34.382 61.9683655,32.002 C61.9683655,30.182 61.1843655,28.866 59.9243655,27.998 C58.5523655,27.018 56.5923655,26.738 54.9123655,26.738 C53.0923655,26.738 51.1883655,26.934 49.9843655,27.242 L46.4843655,45.75 Z M53.4003655,30.098 C53.7363655,30.014 54.2683655,29.958 55.0243655,29.958 C56.5923655,29.958 57.9083655,30.546 57.9083655,32.366 C57.9083655,34.242 56.3123655,35.81 53.8763655,35.81 C53.2043655,35.81 52.7563655,35.754 52.3363655,35.67 L53.4003655,30.098 Z" id="PHP" fill="#FFFFFF" sketch:type="MSShapeGroup"></path>
        </g>
    </g>
</svg>