<?xml version="1.0" encoding="UTF-8" standalone="no"?>
<svg width="73px" height="73px" viewBox="0 0 73 73" version="1.1" xmlns="http://www.w3.org/2000/svg" xmlns:xlink="http://www.w3.org/1999/xlink" xmlns:sketch="http://www.bohemiancoding.com/sketch/ns">
    <!-- Generator: Sketch 3.4.2 (15855) - http://www.bohemiancoding.com/sketch -->
    <title>post-css-icon</title>
    <desc>Created with Sketch.</desc>
    <defs></defs>
    <g id="Resume-Tools" stroke="none" stroke-width="1" fill="none" fill-rule="evenodd" sketch:type="MSPage">
        <g id="post-css-icon" sketch:type="MSLayerGroup">
            <rect id="Rectangle-2" fill="#FFFFFF" sketch:type="MSShapeGroup" x="0" y="0" width="73" height="73" rx="40"></rect>
            <path d="M67.9757809,35.8012995 C67.9546169,34.9931276 67.9120426,34.1637917 67.8694684,33.3556198 C67.8268942,32.5260378 67.8057301,31.6967018 67.7205817,30.8673659 C67.571695,29.7400103 67.4228083,28.5917369 67.1676091,27.4857916 C66.9761481,26.5713072 66.6572106,25.699397 66.3382731,24.8274869 C65.9341872,23.8064439 65.5301012,22.764483 65.0197028,21.7862603 C64.1901208,20.2124908 63.1055856,18.808772 62.1059528,17.341315 C61.4466676,16.4054205 60.5961676,15.6398228 59.9580466,14.6830103 C59.5965348,14.1300377 59.0647262,13.6619673 58.5331637,13.2367173 C57.6824176,12.5562681 56.7890973,11.9393111 55.8960231,11.3440103 C55.2153278,10.87594 54.5348786,10.4295259 53.8118551,10.02544 C53.2374723,9.70625641 52.6207614,9.45105719 52.0252145,9.17469391 C51.3447653,8.85551031 50.6854801,8.47283453 49.9198825,8.32394782 C49.7284216,8.2813736 49.5583708,8.21763532 49.3669098,8.15389704 C48.8776755,7.98360017 48.4098512,7.79238532 47.9206169,7.6434986 C47.1764294,7.40946345 46.4534059,7.13285407 45.6875622,6.94163923 C44.9433747,6.75017829 44.177777,6.62245563 43.4121794,6.51614313 C42.5614333,6.38866657 41.6895231,6.34609235 40.838777,6.26094392 C40.2858044,6.19720564 39.7328317,6.13346735 39.2010231,6.1120572 C38.3930973,6.06972907 37.5635153,6.06972907 36.7553434,6.04831892 C36.3512575,6.02715485 35.9260075,5.98458064 35.5219216,6.0057447 C34.9052106,6.02715485 34.2884997,6.09089314 33.6715426,6.17604157 C33.0762419,6.23977985 32.480695,6.34609235 31.9063122,6.43124079 C31.2046989,6.51614313 30.5028395,6.55871735 29.8009801,6.64386579 C29.141695,6.72901423 28.4612458,6.85649079 27.8019607,6.96280329 C27.5679255,7.00537751 27.3338904,7.09052595 27.1001013,7.13285407 C26.5897029,7.23941267 26.0578943,7.28198688 25.5474958,7.45203767 C24.6330114,7.72840095 23.7185271,8.04758454 22.8252068,8.3876861 C21.9958708,8.72803375 21.1876989,9.08954547 20.4009372,9.51504156 C19.5927654,9.96145563 18.8271677,10.4932642 18.0613239,11.0036627 C17.3383005,11.4926509 16.6152771,12.0032955 15.9134177,12.5562681 C15.2329685,13.0878306 14.5948474,13.6833775 13.9781364,14.2789244 C13.6377888,14.6190259 13.3614255,15.0231119 13.0422419,15.4060338 C12.5106794,16.0227447 11.9788708,16.6182916 11.4684724,17.2561666 C11.0432224,17.7879752 10.6603005,18.3409478 10.2564607,18.8939205 C9.53319114,19.8721431 8.9164802,20.9141041 8.34234348,21.9563111 C8.10830832,22.3815611 7.89568332,22.8070572 7.68305832,23.2323072 C7.36387472,23.8704283 7.02377316,24.4871392 6.72599972,25.1464244 C6.51337472,25.5930845 6.34307784,26.0820728 6.21560128,26.5713072 C5.91782784,27.6132681 5.62005441,28.6766392 5.34369113,29.7188463 C5.08849191,30.6544948 5.02450753,31.6329636 5.00334347,32.5900222 C4.98193331,33.4405222 5.06708175,34.2701042 5.15223019,35.1208503 C5.17339425,35.3334753 5.04591769,35.5886745 5.30111691,35.7587253 C5.32228097,35.7587253 5.30111691,35.8438737 5.27970675,35.8650378 C5.21596847,35.9927604 5.27970675,36.120237 5.40742941,36.1628112 C5.40742941,36.1628112 5.42859347,36.1842214 5.42859347,36.2053854 L5.32228097,36.2053854 C5.25854269,36.3968464 5.47116769,36.5457331 5.38601925,36.7583581 C5.36485519,36.8009323 5.45000363,36.8858347 5.49233175,36.949819 C5.49233175,37.0135573 5.47116769,37.0987058 5.49233175,37.162444 C5.51374191,37.353905 5.59889034,37.5451198 5.59889034,37.7579909 C5.59889034,37.9068776 5.72636691,38.0769284 5.76894113,38.2258151 C5.79010519,38.2895534 5.76894113,38.3958659 5.72636691,38.4384401 C5.59889034,38.5873268 5.62005441,38.7150495 5.81151534,38.7999518 C5.85408956,38.821362 5.91782784,38.9062643 5.91782784,38.9488386 C5.91782784,39.0765612 5.87525363,39.2040378 5.85408956,39.3317604 C5.89641769,39.3743347 5.91782784,39.4166628 5.89641769,39.459237 C5.89641769,39.5229753 5.83267941,39.5869597 5.85408956,39.6295339 C6.02414034,39.9696354 6.08787863,40.3525573 6.10928878,40.7352331 C6.10928878,40.8203815 6.151863,40.90553 6.19419113,41.0118425 C6.21560128,41.0118425 6.27933956,41.0118425 6.32191378,41.0330065 L6.19419113,41.4159284 C6.30050363,41.351944 6.38565206,41.33078 6.49196456,41.2882058 C6.55570284,41.5648151 6.61968722,41.8200143 6.70458956,42.0538034 C6.72599972,42.0963776 6.76857394,42.1389518 6.83231222,42.1815261 C6.81090206,42.2241003 6.81090206,42.3090026 6.76857394,42.3304128 C6.85347628,42.7130886 6.8960505,43.0748464 7.04493722,43.4363581 C7.06634738,43.4363581 7.08751144,43.4149479 7.1086755,43.4149479 C7.04493722,43.0322722 7.002363,42.6281862 6.93862472,42.2452643 L6.93862472,42.1177878 C6.93862472,42.1177878 6.98119894,42.0963776 7.002363,42.0963776 C7.02377316,42.1815261 7.06634738,42.2878386 7.06634738,42.3515768 C7.23639816,42.3515768 7.49159739,42.4578893 7.66164817,42.4578893 C7.68305832,42.3941511 7.70422239,42.3090026 7.72563254,42.2666745 C7.59790989,42.1389518 7.49159739,41.9474909 7.36387472,41.8200143 C7.40644894,41.9900651 7.36387472,42.0538034 7.36387472,42.1177878 C7.27897238,42.0752136 7.17265988,42.0326393 7.06634738,41.9900651 C7.15124972,41.8837526 7.23639816,41.7774401 7.36387472,41.6497175 C7.36387472,41.4585026 7.25756222,41.2882058 6.95978878,41.3096159 C7.08751144,41.2670417 7.21523409,41.2033034 7.36387472,41.1607292 C7.38528488,41.2244675 7.40644894,41.2882058 7.42785909,41.33078 C7.59790989,41.0330065 7.34271066,40.7992175 7.34271066,40.501444 C7.36387472,40.1399323 7.15124972,39.7784206 7.08751144,39.3954987 C6.98119894,38.7999518 7.002363,37.9068776 6.93862472,37.3113308 C6.93862472,37.2687565 6.87488644,37.2261823 6.83231222,37.1836081 C6.81090206,37.2050183 6.70458956,37.4813815 6.6834255,37.5027917 C6.74716378,38.0131901 6.81090206,38.5235886 6.85347628,39.033987 C6.83231222,39.033987 6.81090206,39.033987 6.81090206,39.0551511 C6.72599972,38.6084909 6.64085128,38.1406667 6.53453878,37.6302683 C6.51337472,37.779155 6.49196456,37.8428933 6.49196456,37.9280417 C6.42822628,37.9068776 6.40706222,37.8854675 6.30050363,37.8428933 C6.38565206,38.0343542 6.4708005,38.1620768 6.53453878,38.3109636 C6.38565206,38.2469792 6.21560128,38.2683893 6.21560128,38.2683893 L6.21560128,38.8636901 C6.00297628,38.6510651 5.93899191,38.4810143 5.83267941,38.3321276 C5.79010519,38.1620768 5.76894113,37.99178 5.72636691,37.8217292 L5.79010519,37.800319 C5.76894113,37.7154167 5.72636691,37.6514323 5.72636691,37.587694 C5.70520284,37.4388073 5.68379269,37.2687565 5.66262863,37.0772956 C5.68379269,37.0561315 5.76894113,37.0347214 5.81151534,36.9923933 L5.64121847,36.737194 C5.81151534,36.7583581 5.91782784,36.7795222 6.02414034,36.7795222 C6.02414034,36.737194 6.04530441,36.7157839 6.02414034,36.6946198 C5.81151534,36.5031589 5.96040206,36.332862 6.04530441,36.1628112 C6.08787863,36.0776628 6.23676534,36.0564987 6.27933956,35.9713503 C6.44939034,35.6524128 6.72599972,35.3972136 6.72599972,34.9931276 C6.72599972,34.8016667 6.789738,34.5890417 6.81090206,34.3975808 C6.85347628,34.036069 6.8960505,33.6745573 6.91746066,33.3130456 C6.95978878,32.8452214 6.91746066,32.3771511 7.02377316,31.930737 C7.19382394,31.1863034 7.40644894,30.4418697 7.6404841,29.6976822 C7.81053489,29.1658736 8.00199582,28.6554752 8.21462082,28.1239127 C8.53380442,27.2943306 8.83133176,26.4649947 9.2354177,25.6779869 C9.80980051,24.5297134 10.4690857,23.4237681 11.1069607,22.2966588 C11.5110466,21.5947994 11.9365427,20.9355142 12.3829568,20.2548189 C12.8084529,19.5955338 13.2337029,18.9150845 13.7229372,18.2983736 C14.4033864,17.4264634 15.14782,16.6182916 15.977156,15.895022 C16.8279021,15.1294244 17.6360739,14.3426627 18.5505583,13.6408033 C19.7416521,12.7263189 20.996238,11.918147 22.3362185,11.2162877 C23.4207536,10.6421509 24.547863,10.1954908 25.6752185,9.76999469 C26.3982419,9.49363141 27.1850036,9.36615485 27.9294372,9.13211969 C28.7801833,8.85551031 29.6309294,8.72803375 30.5240036,8.7066236 C31.0983864,8.68545953 31.6513591,8.62172125 32.2254958,8.55798297 C32.7358942,8.51540875 33.2462926,8.47283453 33.7992653,8.40909626 C33.735527,8.4939986 33.7141169,8.53657281 33.6929528,8.57914703 C33.4589176,8.91949469 33.2037184,9.25959625 32.9699294,9.59994391 C32.7784684,9.87655328 32.5658434,10.1740806 32.3743825,10.45069 C32.0340348,10.8973502 31.6725231,11.3440103 31.3535856,11.8118345 C30.8643512,12.5136939 30.4176911,13.2367173 29.9072926,13.9385767 C29.3968943,14.6190259 28.8439216,15.257147 28.3123591,15.9164322 C27.6104997,16.8309166 26.9512146,17.766565 26.2493552,18.6810494 C25.6112341,19.5532056 24.9307849,20.3825416 24.3140739,21.2544517 C23.7611013,22.0200494 23.2718669,22.8282213 22.7403044,23.6152291 C21.9532966,24.7849127 21.1665349,25.9331861 20.3795271,27.1028697 C19.7628161,27.99619 19.1461052,28.8681002 18.5079841,29.7614205 C18.4654099,29.8251588 18.4016716,29.8465689 18.3379333,29.888897 C18.2953591,29.9314713 18.2102107,29.9740455 18.2102107,30.0166197 C18.1678825,30.1655064 18.1678825,30.3143931 18.1038982,30.4418697 C17.9338474,30.7610534 17.7637966,31.0799909 17.5723357,31.3777643 C17.4660232,31.5478151 17.3171364,31.6967018 17.1894138,31.8667526 C17.1468396,31.8455886 17.1256755,31.8244245 17.0831013,31.8244245 C17.1682497,31.6115534 17.5297614,31.4840768 17.3597107,31.1651393 C17.2533982,31.3351901 17.1468396,31.4840768 17.0405271,31.6541276 L16.7853279,32.1645261 C16.8704763,32.2285104 17.019363,32.2708386 16.8704763,32.3985612 C16.806738,32.5048737 16.7427536,32.6323503 16.6790154,32.7389089 C16.7004255,32.7389089 16.7004255,32.7600729 16.7215896,32.7600729 C16.7853279,32.6749245 16.8493122,32.6111862 16.9130505,32.5260378 C16.9342146,32.5260378 16.9556247,32.5474479 16.9767888,32.5474479 C16.9130505,32.7600729 16.7853279,32.9515339 16.6790154,33.1429948 C16.5938669,33.3130456 16.3812419,33.4405222 16.2323552,33.5682448 C16.2537654,33.5894089 16.4026521,33.6533933 16.4238161,33.6745573 C16.4875544,33.5894089 16.5089646,33.6319831 16.5727029,33.5470808 C16.6152771,33.610819 16.6790154,33.5045065 16.7004255,33.5682448 C16.7641638,33.4830964 16.8279021,33.4193581 16.8493122,33.3556198 C16.9342146,33.1429948 17.0619372,32.9726979 17.2745622,32.8877956 C17.3597107,32.8452214 17.4234489,32.781237 17.4871872,32.7174987 C18.1253083,32.0582136 18.7845935,31.4203386 19.3587302,30.7184792 C20.2520505,29.6336978 21.0602224,28.5065884 21.9107224,27.4006431 C22.2724802,26.9328189 22.6977302,26.4649947 23.080406,26.0183345 C23.1229802,26.0397447 23.1655544,26.0397447 23.1869646,26.0609088 C23.1443904,26.5075689 23.1018161,26.9753931 23.080406,27.4220533 C23.0166677,28.208815 22.9740935,28.9958228 22.9103552,29.8039947 C22.8891911,30.1229322 22.9103552,30.4418697 22.8891911,30.7610534 C22.8891911,30.8459558 22.8252068,30.909694 22.8252068,30.9948425 C22.8252068,31.2074675 22.8891911,31.4415026 22.8891911,31.6541276 C22.8252068,32.4411354 22.7403044,33.2067331 22.67632,33.9934948 C22.655156,34.1637917 22.7403044,34.3338425 22.7828786,34.4827292 C22.7614685,34.4615651 22.7403044,34.440155 22.67632,34.3975808 C22.67632,35.6312487 22.9103552,36.8435065 22.7188943,38.0557643 C22.8040427,38.0343542 22.8466169,38.0131901 22.8466169,37.9706159 C22.867781,37.8217292 22.9103552,37.6728425 22.9103552,37.5239558 C22.9317654,37.3964792 22.9103552,37.2687565 22.9103552,37.1198698 L22.9103552,36.9072448 C22.9317654,36.5243229 23.0166677,36.120237 22.9740935,35.7375612 C22.9317654,35.3120651 22.9317654,34.9079792 23.0166677,34.5038933 C23.0592419,34.3338425 22.9955036,34.1212175 23.1018161,33.9085925 L23.1018161,34.22753 C23.080406,35.4397878 23.1229802,36.6520456 22.9529294,37.8643034 C22.9317654,37.9706159 23.0166677,38.1620768 22.7828786,38.1406667 C22.7614685,38.1406667 22.7403044,38.2469792 22.6977302,38.3109636 C22.5914177,38.5235886 22.8252068,38.7999518 22.6125818,39.0125768 C22.5700075,39.0551511 22.655156,39.246612 22.67632,39.3743347 C22.67632,39.4166628 22.6977302,39.459237 22.67632,39.4806472 C22.5914177,39.6295339 22.5914177,39.6295339 22.7188943,39.6506979 C22.7403044,40.1185222 22.7828786,40.5440183 22.8040427,40.9904323 L22.867781,40.9904323 C23.1443904,40.1822604 22.9740935,39.3529245 23.1229802,38.5235886 C23.1443904,38.8636901 23.1655544,39.2040378 23.1443904,39.5655495 C23.1443904,40.1185222 23.1229802,40.6503308 23.1018161,41.2033034 C23.1018161,41.3096159 23.080406,41.4159284 23.0592419,41.5222409 C22.9955036,41.8200143 22.9740935,42.1177878 22.867781,42.3941511 C22.7828786,42.6067761 22.8252068,42.9259597 22.8252068,43.1811589 L22.8252068,43.9890847 C22.8252068,44.0104948 22.8891911,44.0742331 22.8891911,44.1593815 C22.9103552,44.3508425 22.8040427,44.5423034 22.867781,44.7549284 C22.8891911,44.7975026 22.8466169,44.8612409 22.8252068,44.9038151 C22.8040427,44.9675534 22.7828786,45.0312917 22.8040427,45.09503 L22.867781,45.4142136 C22.867781,45.4353776 22.8891911,45.4567878 22.9103552,45.4991159 C22.9317654,45.4142136 22.9317654,45.3502292 22.9317654,45.3290651 C23.2932771,45.3716393 23.1018161,45.6905768 23.2718669,45.8608737 C23.1869646,45.9032018 23.1229802,45.924612 23.1229802,45.9457761 C23.1443904,46.0309245 23.1869646,46.0946628 23.1869646,46.1798112 C23.1869646,46.3710261 23.1655544,46.5413229 23.1443904,46.7327839 C23.1443904,47.2217722 23.1229802,47.7110065 23.1229802,48.1788308 C23.1229802,48.242569 23.1443904,48.3065534 23.1443904,48.3702917 C23.1443904,48.4128659 23.1229802,48.4554401 23.1229802,48.5191784 L23.1229802,48.9658386 L23.2081286,48.9658386 C23.1655544,49.0295768 23.1229802,49.0933151 23.0592419,49.1570534 C23.0380779,49.1570534 22.9740935,49.1570534 22.9740935,49.1358893 L22.9740935,46.4561745 L22.655156,46.4561745 C22.6125818,47.7321706 22.7188943,48.8806901 22.4851052,50.0715378 C22.229906,50.0929479 22.1447575,50.1355222 21.8683943,50.1355222 C21.2091091,50.1355222 20.5498239,50.1355222 19.8905388,50.1566862 C19.103531,50.1566862 18.3379333,50.1780964 17.5509255,50.1780964 C17.1682497,50.1780964 16.7641638,50.2204245 16.3812419,50.2204245 C15.8708435,50.2204245 15.339281,50.1566862 14.8288825,50.1566862 C14.0418747,50.1566862 13.2762771,50.2204245 12.4895154,50.2418347 C11.9151325,50.2629987 11.3409958,50.2629987 10.7668591,50.2844089 C10.3839372,50.3055729 10.0010154,50.3269831 9.61833957,50.3693112 C9.44828879,50.3907214 9.29940207,50.4544597 9.08653098,50.5181979 C9.0227927,50.5181979 8.87390598,50.4970339 8.74642942,50.5181979 C8.53380442,50.5607722 8.34234348,50.6884948 8.12971848,50.7308229 C7.81053489,50.7948073 7.72563254,50.8797097 7.76796067,51.1988933 L7.76796067,51.4115183 C7.72563254,51.368944 7.66164817,51.3263698 7.61907395,51.3052058 C7.59790989,51.3052058 7.57674582,51.3263698 7.57674582,51.3263698 C7.59790989,51.3901081 7.6404841,51.4326823 7.66164817,51.4966667 C7.7467966,51.4540925 7.8531091,51.34778 7.93825754,51.34778 L8.23603098,51.34778 C8.19345676,51.34778 8.1720466,51.4752565 8.10830832,51.581569 C8.2783591,51.5178308 8.3849177,51.4752565 8.4912302,51.4326823 C8.51239426,51.4966667 8.51239426,51.581569 8.51239426,51.6029792 C8.8101677,51.581569 9.08653098,51.4966667 9.3417302,51.560405 C10.1713122,51.77303 11.0220583,51.8581784 11.8725583,51.9430808 C12.425531,51.985655 12.9573396,52.0070651 13.5103122,52.0282292 C14.2970739,52.0708034 15.0840818,52.1133776 15.8708435,52.1133776 C16.5301286,52.1133776 17.1682497,52.0496393 17.8275349,52.0496393 C18.7420193,52.0496393 19.6565036,52.0919675 20.570988,52.1133776 C20.7624489,52.1133776 20.9750739,52.0919675 21.1876989,52.0919675 L22.7403044,52.0919675 C24.122613,52.0496393 25.5049216,52.0282292 26.8874763,51.985655 C27.674238,51.9644909 28.4824099,51.9219167 29.2694177,51.9007526 L31.6936872,51.8367683 C32.6295817,51.8156042 33.5652301,51.8156042 34.4797145,51.794194 C35.1815739,51.794194 35.8622692,51.77303 36.5638825,51.7518659 C37.3508903,51.7304558 38.1590622,51.6667175 38.9458239,51.6241433 C39.37132,51.6029792 39.79657,51.560405 40.2220661,51.5178308 C40.7324645,51.4752565 41.264027,51.4115183 41.7744255,51.3901081 C42.5400231,51.34778 43.3270309,51.3263698 44.0926286,51.2837956 C45.0496872,51.2200573 46.0067458,51.1349089 46.9849684,51.1137448 C47.8782887,51.0711706 48.7927731,51.0925808 49.6858473,51.0711706 C50.4728551,51.0500065 51.2596169,51.0074323 52.0677887,50.9862683 L53.4077692,50.9222839 C53.4077692,50.9222839 54.3008434,50.9011198 54.7475036,50.8585456 C55.5131012,50.8159714 56.2786989,50.7308229 57.0442966,50.7096589 C57.5335309,50.6884948 58.0227653,50.7096589 58.5117536,50.6884948 C59.2987614,50.6670847 60.1069333,50.6245104 60.893695,50.6245104 C61.1914684,50.6245104 61.510652,50.6670847 61.8933278,50.6884948 C61.723277,50.8373815 61.6169645,50.9222839 61.4892419,51.0285964 C61.5743903,51.0500065 61.6592926,51.0925808 61.7444411,51.1349089 C61.7444411,51.156319 61.723277,51.1774831 61.723277,51.2200573 C61.6169645,51.2200573 61.510652,51.2414675 61.4040934,51.2414675 C61.3617653,51.34778 61.3191911,51.3901081 61.2766169,51.6029792 L61.6592926,51.6029792 C61.510652,51.6029792 61.3829294,51.794194 61.2340426,51.9219167 C61.2554528,51.9430808 61.2766169,51.9430808 61.2977809,51.9644909 C61.0639919,51.8793425 60.9151051,51.9219167 60.8299567,52.1559518 C60.893695,52.1771159 60.9362692,52.1771159 61.0000075,52.1771159 C60.9788434,52.2408542 60.9576794,52.3048386 60.9362692,52.3897409 C60.9151051,52.4323151 60.893695,52.4748893 60.893695,52.5386276 L60.8299567,52.4748893 C60.8299567,52.4323151 60.8299567,52.3897409 60.8087926,52.3471667 C60.68107,52.4748893 60.4896091,52.5600378 60.5959216,52.8364011 C60.5110192,52.8789753 60.4047067,52.9215495 60.2983942,52.9852878 C60.3195583,53.027862 60.3621325,53.0704362 60.3832966,53.1341745 C60.1920817,53.1553386 60.0006208,53.1979128 60.043195,53.4319479 C60.1280973,53.453112 60.2132458,53.4956862 60.2769841,53.5168503 C60.1706716,53.5594245 60.0643591,53.6231628 59.9580466,53.665737 C59.9366364,53.7083112 59.9154723,53.8146237 59.8728981,53.8360339 C59.5751247,53.8997722 59.7454216,54.0060847 59.8303239,54.1123972 C59.7665856,54.1549714 59.7028473,54.1975456 59.6391091,54.2187097 C59.7028473,54.2401198 59.7454216,54.2612839 59.7879958,54.3038581 C59.7240114,54.3464323 59.6814372,54.3675964 59.6391091,54.3890065 C59.6814372,54.4101706 59.7454216,54.4527448 59.7665856,54.4527448 C59.6814372,54.5164831 59.5751247,54.6016315 59.4476481,54.707944 C59.4476481,54.7505183 59.4476481,54.7716823 59.4688122,54.8142565 C59.3839098,54.899405 59.2987614,54.9843073 59.213613,55.11203 C59.1287106,55.2395065 59.0861364,55.4098034 58.9798239,55.53728 C58.5331637,56.0265143 58.2139801,56.6006511 57.6398434,56.9835729 C57.4272184,57.1324597 57.2357575,57.3236745 57.0442966,57.5151354 C56.6616208,57.8766472 56.3212731,58.2807331 55.9171872,58.6210808 C55.3856247,59.0677409 54.832652,59.4718268 54.2582692,59.8759128 C53.5566559,60.3649011 52.8547966,60.8541354 52.1529372,61.3219597 C51.7700153,61.5771589 51.3447653,61.7686198 50.9406794,62.002655 C50.5365934,62.236444 50.1539176,62.4493151 49.7495856,62.6831042 C49.4943864,62.8534011 49.2605973,63.0871901 48.983988,63.2149128 C48.2821286,63.5126862 47.5379411,63.7678854 46.8149176,64.0442487 C46.7509333,64.0654128 46.7086051,64.0868229 46.6446208,64.107987 C46.1130583,64.3420222 45.6026598,64.5972214 45.0708512,64.7886823 C44.5816169,64.9587331 44.0714645,65.0864558 43.56082,65.1927683 C43.3907692,65.2353425 43.1993083,65.1927683 43.0080934,65.2139323 C42.6463356,65.2776706 42.2848239,65.362819 41.9233122,65.4053933 C40.9876637,65.5331159 40.0517692,65.6180183 39.1161208,65.7457409 C38.5631481,65.8094792 38.0313395,65.9157917 37.4783669,65.97953 C37.0956911,66.0009401 36.6916051,65.9583659 36.3086833,65.9583659 C36.03232,65.9583659 35.7345466,66.0221042 35.4579372,65.97953 C35.0115231,65.9157917 34.564863,65.8094792 34.1182028,65.7243308 C34.0118903,65.7031667 33.8630036,65.6605925 33.7778551,65.7031667 C33.6078044,65.788069 33.4589176,65.6605925 33.2888669,65.7031667 C33.1825544,65.7243308 33.0762419,65.6394284 32.9696833,65.6394284 C32.8847809,65.6180183 32.7784684,65.6605925 32.6721559,65.6394284 C32.4381208,65.575444 32.2254958,65.4905417 31.9702966,65.5117058 C31.7150973,65.5331159 31.4598981,65.4053933 31.1832887,65.341655 C30.800613,65.2565065 30.4391012,65.1713581 30.0561794,65.0864558 C29.9072926,65.0438815 29.7798161,64.9801433 29.6309294,64.8949948 C29.5883552,64.9161589 29.5243708,64.9587331 29.4394685,64.9587331 C29.0779568,64.8949948 28.716445,64.8738308 28.3760974,64.7461081 C28.0783239,64.6397956 27.8019607,64.4909089 27.4827771,64.5334831 C27.3978747,64.5546472 27.3338904,64.5120729 27.248988,64.5120729 C27.1850036,64.4271706 27.1212654,64.2568737 27.0575271,64.2568737 C26.632031,64.2782839 26.3768318,63.9167722 26.01532,63.8104597 C25.8238591,63.7464753 25.6752185,63.5338503 25.4837575,63.470112 C25.0159333,63.2786511 24.6330114,62.8745651 24.1014489,62.8108268 C23.9311521,62.7894167 23.7611013,62.7045143 23.5696404,62.64053 C23.6333786,62.7256784 23.6759529,62.7894167 23.7396911,62.8534011 L23.6971169,62.8957292 C23.1229802,62.5556276 22.5488435,62.21528 21.9747068,61.8963425 C21.8895583,61.8749323 21.82582,61.79003 21.7618357,61.7474558 L21.1876989,61.3645339 C21.1239607,61.3219597 20.996238,61.2582214 20.996238,61.2793854 C20.8687614,61.4285183 20.7410388,61.3007956 20.6561364,61.2582214 C20.0817536,60.8541354 19.4224685,60.5989362 18.8694958,60.1522761 C18.6357068,59.9610612 18.3590974,59.8333386 18.1890466,59.5993034 C17.8912732,59.2377917 17.5297614,58.9825925 17.1256755,58.7699675 C16.806738,58.5999167 16.5089646,58.4084558 16.2111911,58.2169948 C16.0623044,58.1106823 15.9134177,57.9832058 15.9134177,57.7491706 C15.9134177,57.6002839 15.8496794,57.4513972 15.6582185,57.5365456 C15.57307,57.4088229 15.4881677,57.2599362 15.3818552,57.217362 C15.126656,57.1110495 14.9563591,56.9198347 14.7648982,56.7495378 C14.5736833,56.579487 14.4247966,56.3454518 14.1907614,56.2605495 C13.7655114,56.0902526 13.5103122,55.7287409 13.255113,55.4309675 C12.6595661,54.7291081 12.1277575,53.9635104 11.5747849,53.2190768 C11.5324568,53.1553386 11.4473083,53.1127643 11.38357,53.0490261 L11.3621599,53.0704362 C11.4684724,53.2830612 11.5747849,53.4745222 11.6813435,53.6871472 C11.6599333,53.7083112 11.6173591,53.7297214 11.596195,53.7508854 C11.4684724,53.6019987 11.3195857,53.453112 11.1921091,53.3042253 C11.1706989,53.3256354 11.1495349,53.3467995 11.1283708,53.3467995 L12.6595661,55.7713151 C12.7870427,55.9627761 12.8933552,56.1539909 13.0210779,56.3454518 C12.9999138,56.366862 12.9785036,56.3880261 12.9359294,56.4091901 C12.7021404,56.366862 12.4895154,56.1965651 12.3829568,56.0051042 C12.1917419,55.6650026 11.9788708,55.4523776 11.5536208,55.4947058 C11.5110466,55.345819 11.4684724,55.1757683 11.4473083,55.0268815 C11.3621599,55.0268815 11.2984216,55.0268815 11.1495349,55.0057175 C11.4473083,55.4735417 11.7025075,55.8776276 11.9788708,56.3454518 C11.8725583,56.2817136 11.80882,56.2391393 11.7662458,56.2179753 C12.1491677,56.6220612 12.425531,57.1324597 12.9147654,57.3876589 C13.0210779,57.8766472 13.5740505,58.1106823 13.7015271,58.5785065 C13.5952146,58.5573425 13.5103122,58.5359323 13.4039997,58.5147683 C13.2337029,58.3021433 13.0422419,58.0895183 12.8510271,57.8554831 C12.8933552,58.0043698 12.9573396,58.1318464 13.0422419,58.238405 C13.2974411,58.5573425 13.5314763,58.87628 13.8292497,59.1528893 C13.9355622,59.2592018 14.0844489,59.3017761 14.0844489,59.4929909 C14.1270232,59.4504167 14.1695974,59.4292526 14.2544997,59.3866784 C14.2119255,59.4718268 14.1907614,59.5144011 14.1695974,59.5781393 C14.2544997,59.5781393 14.3184841,59.5993034 14.3822224,59.5993034 C14.4247966,59.7270261 14.3608122,59.918487 14.6160114,59.8759128 C14.6374216,59.8759128 14.6585857,59.8970768 14.6799958,59.918487 C14.7863083,60.1948503 14.9563591,60.1948503 15.1903943,60.0885378 C15.2329685,60.0673737 15.339281,60.0885378 15.360445,60.131112 C15.4667575,60.3649011 15.6156443,60.3863112 15.8071052,60.2162604 C15.8071052,60.3225729 15.8282693,60.4288854 15.8282693,60.5137878 L15.9134177,60.5137878 C15.9134177,60.4714597 15.8922536,60.4074753 15.8922536,60.3011628 C15.9985661,60.3863112 16.0623044,60.4288854 16.1048786,60.4714597 C16.3175036,60.768987 16.5089646,61.0455964 16.806738,61.2793854 C17.2108239,61.6197331 17.5723357,61.9812448 17.9550114,62.3004284 C18.699445,62.9171393 19.528781,63.4275378 20.358363,63.895362 C21.3791599,64.4694987 22.3573825,65.0864558 23.3995896,65.6391823 C24.6541755,66.2987136 25.994156,66.7451276 27.3764646,67.0643112 C27.886863,67.1706237 28.3760974,67.2769362 28.8864958,67.4044128 C29.333156,67.5321354 29.7798161,67.7235964 30.2262301,67.8299089 C30.9069255,67.9787956 31.6087848,68.1062722 32.2892341,68.2339948 C32.4381208,68.2551589 32.5870075,68.276569 32.7570583,68.2977331 L32.7570583,68.3403073 C32.9485192,68.3403073 33.1825544,68.2551589 33.2251286,68.3188972 C33.3314411,68.489194 33.4163434,68.4040456 33.5440661,68.3828815 C33.6929528,68.3403073 33.8630036,68.3403073 34.0330544,68.3403073 C34.6286012,68.3614714 35.202738,68.489194 35.7982848,68.4466198 C35.9260075,68.4466198 36.1174684,68.3403073 36.2237809,68.5529323 C36.2663551,68.5315222 36.2875192,68.5103581 36.3300934,68.489194 C36.4149958,68.4677839 36.5215544,68.4677839 36.6064567,68.4466198 L36.6064567,68.489194 C36.5638825,68.5103581 36.5215544,68.5103581 36.4364059,68.5317683 C36.5427184,68.5529323 36.6064567,68.5740964 36.6704411,68.5955065 C36.6278669,68.6380808 36.6064567,68.6380808 36.5638825,68.6592448 C36.5215544,68.6804089 36.45757,68.701819 36.3726676,68.7655573 C37.1382653,68.914444 37.8612887,68.9358542 38.4994098,68.7655573 L38.4994098,68.6380808 L38.5843122,68.6380808 C38.5843122,68.6804089 38.6057223,68.7229831 38.6268864,68.7655573 C39.6051091,68.8507058 40.5621676,68.7229831 41.476652,68.4040456 C41.5618005,68.5103581 41.6255387,68.6592448 41.7532614,68.4466198 C41.7958356,68.3828815 41.9021481,68.3614714 41.9870505,68.3403073 C42.1785114,68.2977331 42.4125466,68.2125847 42.5825973,68.276569 C42.7740583,68.3403073 42.8377966,68.1700104 42.9866833,68.1700104 C43.2418825,68.1700104 43.4759176,68.1488464 43.7097067,68.1062722 C43.8374294,68.0851081 43.9649059,68.0211237 44.1137926,67.9787956 C44.1137926,67.9573854 44.1137926,67.9362214 44.0926286,67.9148112 C43.9437419,67.8936472 43.7736911,67.8724831 43.6459684,67.8724831 C43.9011676,67.7447604 44.1352028,67.6384479 44.3689919,67.5321354 C44.3689919,67.5532995 44.390402,67.5532995 44.390402,67.5747097 C44.3264176,67.5958737 44.2840895,67.6810222 44.1989411,67.6810222 L44.4967145,67.6810222 C44.4329762,67.6810222 44.3478278,67.8724831 44.2415153,67.9999597 C45.007113,67.8084987 45.7089723,67.6384479 46.3894216,67.4683972 L46.3894216,67.4258229 C46.3045192,67.446987 46.2405348,67.446987 46.1767966,67.4683972 C46.1556325,67.021737 46.6446208,67.1706237 46.8149176,66.9154245 C46.6020466,66.9791628 46.3894216,67.0429011 46.1767966,67.0854753 L46.1767966,67.0429011 C46.89982,66.7239636 47.6442536,66.4050261 48.367277,66.0858425 C48.367277,66.1072526 48.3886872,66.1072526 48.3886872,66.1284167 C48.2609645,66.2135651 48.133488,66.2773034 47.942027,66.3836159 C48.0695036,66.4050261 48.154652,66.4050261 48.2183903,66.4261901 C48.2183903,66.4899284 48.2183903,66.5325026 48.1972262,66.5539128 C48.558738,66.5325026 48.4735895,66.2135651 48.579902,66.0221042 C48.6438864,66.0432683 48.7287887,66.0858425 48.7927731,66.0646784 C48.983988,66.0221042 49.1542848,65.9583659 49.3454997,65.8946276 C49.5583708,65.8306433 49.7709958,65.766905 49.9836208,65.6817565 C50.3239684,65.5328698 50.6429059,65.341655 50.9832536,65.1713581 C51.0469919,65.150194 51.1533044,65.1713581 51.2384528,65.1713581 C51.3021911,65.1713581 51.3447653,65.1287839 51.3873395,65.0864558 C51.4722419,65.0224714 51.5573903,64.8949948 51.6211286,64.9161589 C51.918902,64.9587331 52.131527,64.8524206 52.2166755,64.5760573 C52.2380856,64.5760573 52.2380856,64.5546472 52.2592497,64.5546472 C52.3655622,64.4697448 52.4718747,64.3845964 52.5781872,64.320612 C53.0462575,64.0654128 53.4926716,63.8104597 53.9607419,63.5550143 C53.9819059,63.5338503 54.0244801,63.5550143 54.0670544,63.5550143 C54.1307926,63.5550143 54.2159411,63.5550143 54.2582692,63.5338503 C54.5348786,63.4061276 54.7900778,63.257487 55.045277,63.1086003 C54.9815387,63.0871901 55.045277,63.0660261 54.832652,63.0446159 L54.832652,63.0020417 C55.045277,62.9597136 55.1090153,62.9383034 55.236738,62.8957292 L55.1941637,62.8534011 C55.7471364,62.3004284 56.4489958,61.8963425 56.9805583,61.4285183 C57.0868708,61.4496823 57.129445,61.4708464 57.1931833,61.4708464 C57.2145934,61.4071081 57.2145934,61.3433698 57.2145934,61.3007956 C57.2994958,61.1944831 57.3846442,61.0667604 57.4909567,60.9818581 C57.9587809,60.556362 58.4694255,60.1948503 58.8946755,59.7481901 C59.5113864,59.1314792 60.1069333,58.4936042 60.6599059,57.834319 C61.1703044,57.2387722 61.6807028,56.6432253 62.1059528,55.9839401 C62.7014997,55.0694558 63.2118981,54.1338073 63.7434606,53.1767487 C64.1263825,52.4960534 64.4667301,51.8156042 64.8494059,51.1349089 C64.8919801,51.0711706 64.9771286,50.9862683 65.0408669,50.9862683 C65.6150036,50.9222839 66.1893864,50.8797097 66.7423591,50.8159714 C66.8698356,50.7948073 67.0187223,50.7096589 67.146445,50.6459206 C67.0824606,50.5396081 67.0398864,50.4118854 66.9761481,50.3055729 C66.8912458,50.1778503 66.7635231,50.0715378 66.6783747,49.9440612 C66.5934723,49.8377487 66.5297341,49.7100261 66.4657497,49.5825495 C66.4020114,49.476237 66.3382731,49.3910886 66.2742887,49.2847761 C66.1468122,49.0507409 66.0190895,48.8169518 65.912777,48.5617526 C65.891613,48.4977683 65.8490387,48.3914558 65.8702028,48.3277175 C66.2531247,47.4983815 66.4020114,46.6050612 66.7635231,45.7757253 C67.1250348,44.9249792 67.2313473,43.9679206 67.4016442,43.0534362 C67.5505309,42.1815261 67.6354333,41.3096159 67.7417458,40.4374597 C67.8057301,39.8207487 67.8906325,39.2252018 67.9120426,38.6084909 C68.0395192,37.6302683 67.996945,36.7157839 67.9757809,35.8012995 L67.9757809,35.8012995 L67.9757809,35.8012995 L67.9757809,35.8012995 Z M14.5096989,59.5355651 C14.3610583,59.3655143 14.2333357,59.1740534 14.0844489,59.0040026 L14.1481872,58.9400183 C14.3822224,59.1954636 14.6162575,59.4504167 14.8500466,59.7270261 C14.72257,59.6632878 14.5736833,59.6207136 14.5096989,59.5355651 L14.5096989,59.5355651 L14.5096989,59.5355651 L14.5096989,59.5355651 Z M14.8500466,59.7270261 C14.9137849,59.705862 14.9777693,59.705862 15.0415075,59.6844518 C15.1052458,59.7907643 15.14782,59.918487 15.2115583,60.0459636 C14.9137849,60.0247995 14.7648982,59.8970768 14.8500466,59.7270261 L14.8500466,59.7270261 L14.8500466,59.7270261 L14.8500466,59.7270261 Z M36.9679684,68.5103581 L36.9679684,68.4466198 C37.3720544,68.4040456 37.7549762,68.3614714 38.1590622,68.3191433 L38.1590622,68.3828815 C37.7549762,68.4466198 37.3720544,68.489194 36.9679684,68.5103581 L36.9679684,68.5103581 L36.9679684,68.5103581 L36.9679684,68.5103581 Z M42.3273981,67.9573854 C42.0296247,68.0213698 41.7106872,68.0636979 41.4129137,68.1062722 C41.3066012,68.1276823 41.1791247,68.2339948 41.1365505,68.0425339 C41.0939762,68.0636979 41.051402,68.0636979 41.0088278,68.0851081 C41.1151403,68.4040456 41.3703395,68.1488464 41.5829645,68.276569 C41.1151403,68.3403073 40.6684801,68.3828815 40.2220661,68.4466198 L40.2220661,68.4040456 C40.3495426,68.3828815 40.4984294,68.3614714 40.626152,68.3403073 L40.626152,68.276569 C40.4132809,68.2551589 40.2006559,68.2339948 39.9880309,68.2339948 C39.9242926,68.2339948 39.8391442,68.3191433 39.7754059,68.3403073 C39.6902575,68.3614714 39.6051091,68.3828815 39.4987966,68.3828815 C39.1372848,68.4040456 38.7757731,68.4040456 38.4354255,68.4254558 C38.4142614,68.4254558 38.3716872,68.4040456 38.3505231,68.4040456 L38.3505231,68.3403073 C39.7754059,68.1488464 41.1791247,67.9573854 42.6040075,67.7661706 C42.6251716,67.8084987 42.6251716,67.8510729 42.6463356,67.8936472 C42.5188591,67.8936472 42.4337106,67.9362214 42.3273981,67.9573854 L42.3273981,67.9573854 L42.3273981,67.9573854 L42.3273981,67.9573854 Z M42.6463356,67.7447604 C43.13557,67.6810222 43.5822301,67.6384479 44.0500544,67.5747097 C43.0718317,67.8510729 42.7528942,67.8936472 42.6463356,67.7447604 L42.6463356,67.7447604 L42.6463356,67.7447604 L42.6463356,67.7447604 Z M24.122613,24.8060767 C24.8033083,23.8704283 25.5049216,22.9345338 26.1856169,21.9774752 C26.3982419,21.7011119 26.5682927,21.4033384 26.7811638,21.1269752 C26.8449021,21.0418267 26.9298044,20.9992525 27.036363,20.9141041 L27.0149529,20.8717759 C27.1001013,20.7652173 27.1850036,20.680315 27.2275779,20.5951666 C27.3338904,20.4251158 27.3978747,20.2336548 27.4827771,20.0421939 C27.5041872,19.9996197 27.5679255,19.9572916 27.5679255,19.9572916 C27.8656989,20.1059322 27.8656989,19.7869947 27.9720114,19.6806822 C28.1634724,19.4680572 28.3549333,19.234022 28.5249841,19.021397 C28.6524607,18.8513463 28.7801833,18.7024595 28.8864958,18.5109986 C28.9076599,18.4472603 28.8439216,18.3409478 28.8227575,18.2557994 L28.7590193,18.2557994 C28.8227575,18.2132252 28.8864958,18.1494869 28.9502341,18.1069127 C28.9716443,18.1069127 28.9716443,18.1069127 28.9928083,18.0857486 C29.120531,17.8942877 29.2480075,17.7028267 29.3757302,17.5327759 C29.6309294,17.1924283 29.9072926,16.8520806 30.2050661,16.5543072 C30.1624919,16.6606197 30.1199176,16.7671783 30.0775895,16.8520806 C30.0987536,16.8520806 30.0987536,16.8734908 30.1199176,16.8734908 C30.3751169,16.5331431 30.6517262,16.2142056 30.9069255,15.873858 C30.8855153,15.8526939 30.8643512,15.8312838 30.8431872,15.8312838 C30.7368747,15.9375963 30.6517262,16.0439088 30.5454137,16.1502213 C30.5240036,16.1290572 30.5028395,16.1078931 30.4814294,16.1078931 C30.6943005,15.8312838 30.9069255,15.5549205 31.1195505,15.2357369 C31.1621247,15.2997213 31.2046989,15.3846236 31.2896012,15.5549205 C31.3747497,15.3420494 31.4598981,15.1931627 31.5236364,15.044522 C31.4598981,15.1082603 31.3747497,15.1719986 31.3110114,15.2357369 L31.247027,15.1719986 L31.6299489,14.5978619 C32.0340348,14.0234791 32.4381208,13.4281783 32.8422067,12.8537955 C32.9910934,12.6411705 33.1825544,12.4711197 33.3100309,12.2584947 C33.7141169,11.4503228 34.352238,10.8122017 34.8412262,10.0677681 C34.9477848,9.9191275 35.0964255,9.79140485 35.2241481,9.66368219 C35.3304606,9.53620563 35.4156091,9.57877985 35.5007575,9.68509235 C36.0748942,10.4081158 36.6490309,11.1525494 37.2231676,11.8755728 C37.6486637,12.4073814 38.0739137,12.9177798 38.4779997,13.4705064 C38.9672341,14.1512017 39.4350583,14.8316509 39.9242926,15.5123463 C40.4772653,16.299108 41.030238,17.0861158 41.5618005,17.8942877 C42.3699723,19.0851353 43.13557,20.2762291 43.9437419,21.4670767 C44.5392887,22.339233 45.1348356,23.189733 45.7089723,24.0618892 L44.6241911,24.0618892 C43.6248044,24.0404791 42.6040075,23.9553306 41.6043747,23.9979048 C40.2432301,24.0618892 38.8609216,24.2105298 37.499777,24.3168423 C35.7771208,24.4657291 34.0330544,24.4871392 32.3106442,24.4871392 C31.6936872,24.4871392 31.0769762,24.5720416 30.4602653,24.6146158 C29.7158317,24.65719 28.9928083,24.6997642 28.2483747,24.7211744 C27.3764646,24.7635025 26.5257185,24.7849127 25.6538083,24.8060767 C25.16482,24.8274869 24.6541755,24.8060767 24.122613,24.8060767 L24.122613,24.8060767 L24.122613,24.8060767 L24.122613,24.8060767 Z M48.5161637,34.5890417 L48.5161637,34.7805026 C48.4949997,34.7805026 48.4735895,34.8016667 48.4310153,34.8016667 C48.346113,34.5038933 48.2609645,34.1849558 48.154652,33.8871823 C47.942027,33.2704714 47.7079919,32.6537604 47.3253161,32.1007878 C46.89982,31.5052409 46.5171442,30.88853 46.0916481,30.2718189 C45.9853356,30.1229322 45.8364489,29.9952095 45.7089723,29.867733 C45.2623122,29.3784986 44.815652,28.8681002 44.2415153,28.5065884 C43.3907692,27.9750259 42.5188591,27.5283658 41.5829645,27.1454439 C41.3277653,27.0391314 41.0939762,26.9116548 40.838777,26.7627681 L41.3491755,26.7627681 L44.9859489,26.6990298 C45.7727106,26.6776197 46.5383083,26.6776197 47.3253161,26.6350455 C47.516777,26.6350455 47.6230895,26.6990298 47.729402,26.8690806 C47.920863,27.1880181 48.1120778,27.5069556 48.3247028,27.8261392 C48.346113,27.8684673 48.3886872,27.9324517 48.3886872,27.99619 C48.3886872,28.4640142 48.3886872,28.9532486 48.4098512,29.4210728 C48.4312614,29.9103072 48.4735895,30.3781314 48.4949997,30.8673659 C48.4949997,31.3563542 48.4524255,31.8667526 48.4735895,32.3771511 C48.4949997,33.1004206 48.5161637,33.8446081 48.5161637,34.5890417 L48.5161637,34.5890417 L48.5161637,34.5890417 L48.5161637,34.5890417 Z M25.6326443,27.4646275 C26.6322771,27.4220533 27.5890896,27.3580689 28.5675583,27.3157408 C29.333156,27.2731666 30.1199176,27.2517564 30.8855153,27.2094283 C31.2046989,27.1880181 31.5024723,27.1668541 31.8214098,27.2094283 C31.4810622,27.3794791 31.1409606,27.5495298 30.8431872,27.7624009 C30.4602653,28.0173541 30.0987536,28.3577017 29.7158317,28.6343111 C29.333156,28.9106744 28.9928083,29.251022 28.6738708,29.6125338 C28.2697849,30.1017681 27.8231247,30.5270181 27.3978747,30.9948425 C27.1001013,31.3351901 26.7597536,31.6541276 26.5045544,32.0156393 C26.1430427,32.4837097 25.8241052,32.9941081 25.4837575,33.5256706 C25.59007,31.5052409 25.7177927,29.5062213 25.6326443,27.4646275 L25.6326443,27.4646275 L25.6326443,27.4646275 L25.6326443,27.4646275 Z M39.5202067,47.9236315 C38.8395114,48.0936823 38.1378981,48.2851433 37.4360387,48.3702917 C36.8404919,48.4554401 36.2237809,48.43403 35.60707,48.43403 C35.0540973,48.43403 34.5222887,48.4128659 33.9693161,48.3702917 C33.3526051,48.3065534 32.7358942,48.242569 32.1403473,47.9662058 C31.6299489,47.7321706 31.0983864,47.5195456 30.587988,47.2643464 C30.0775895,47.0091472 29.566945,46.7113737 29.1842693,46.2435495 C28.9076599,45.9032018 28.5249841,45.6268386 28.1846364,45.3290651 C28.2483747,45.5842643 28.3972614,45.7968893 28.6312966,45.9457761 C28.5249841,46.0734987 28.3760974,46.0095143 28.1634724,45.6694128 C28.0997341,45.7117409 28.0357497,45.7331511 27.9931755,45.7543151 C28.0571599,45.6054284 28.1208982,45.4567878 28.1846364,45.3290651 C28.0997341,45.1590143 27.9931755,44.9675534 27.9082732,44.7975026 C27.7379763,44.5208933 27.5679255,44.2231198 27.4190388,43.9467565 C27.3764646,43.8827722 27.3764646,43.8190339 27.3338904,43.7552956 C27.2275779,43.6275729 27.1212654,43.5000964 27.036363,43.3723737 C26.8660661,43.1171745 26.7171794,42.8408112 26.5045544,42.585612 C26.5045544,42.6493503 26.5257185,42.7130886 26.5257185,42.798237 C26.5045544,42.798237 26.4833904,42.8194011 26.4833904,42.8194011 L26.0367302,41.7348659 C26.01532,41.7348659 26.01532,41.7348659 25.994156,41.7562761 L26.3770779,43.1597487 C26.3556677,43.1597487 26.3345036,43.1811589 26.3130935,43.1811589 C26.2493552,43.0960104 26.1856169,43.010862 26.1430427,42.9045495 C26.1004685,42.7344987 25.9729919,42.7344987 25.8664333,42.798237 C25.802695,42.8408112 25.7601208,42.9896979 25.781531,43.0534362 C25.9304177,43.4149479 26.1004685,43.7764597 26.2705193,44.1382175 C26.3130935,44.265694 26.3556677,44.3720065 26.419406,44.4997292 C26.4408161,44.5423034 26.5045544,44.5846315 26.5045544,44.6486159 C26.5897029,44.8186667 26.6534411,44.9887175 26.7597536,45.1376042 C26.9512146,45.3928034 27.1638396,45.6480026 27.3553005,45.9032018 C27.5467614,46.1584011 27.7168122,46.4350104 27.886863,46.6902097 C27.9082732,46.7327839 27.9720114,46.7327839 27.9931755,46.7539479 C28.0997341,47.0728854 28.4612458,47.3069206 28.716445,47.179444 C28.7801833,47.6684323 29.3117458,47.8387292 29.5246169,48.3065534 C29.2694177,48.2002409 29.0779568,48.1150925 28.9076599,48.029944 C28.8864958,48.0513542 28.8864958,48.0725183 28.8653318,48.1150925 C29.120531,48.242569 29.3757302,48.3702917 29.6095192,48.5191784 C29.8221442,48.646655 30.0350153,48.7743776 30.2262301,48.9232643 C30.4816755,49.1570534 30.7792028,49.2847761 31.1409606,49.3699245 C31.1195505,49.3059401 31.0983864,49.2847761 31.0983864,49.2847761 C31.6936872,49.5613854 32.3106442,49.8589128 32.7784684,50.0929479 C30.5665778,50.1355222 28.2060466,50.1780964 25.7601208,50.2204245 C25.7601208,49.8163386 25.7389568,49.4336628 25.7389568,49.0295768 C25.7389568,48.8595261 25.781531,48.7106393 25.7601208,48.5403425 C25.6963825,47.5621198 25.6963825,46.5838972 25.568906,45.6268386 C25.4411833,44.6060417 25.4411833,43.6064089 25.4625935,42.585612 C25.4837575,42.0326393 25.4411833,41.4585026 25.4200193,40.90553 C25.4200193,40.1610964 25.4200193,39.4380729 25.4411833,38.6936393 C25.4411833,38.5873268 25.4837575,38.5021784 25.5263318,38.3958659 L25.59007,38.3958659 C25.6112341,38.4384401 25.59007,38.5021784 25.6326443,38.5235886 C25.6963825,38.5873268 25.802695,38.6936393 25.8452693,38.6724753 C25.9729919,38.5873268 26.1642068,38.5021784 26.206781,38.3747018 C26.3130935,38.1195026 26.3556677,37.8428933 26.3556677,37.587694 C26.3556677,37.3964792 26.4408161,37.2687565 26.5257185,37.1410339 C26.5682927,37.0772956 26.5897029,37.0135573 26.6322771,36.9284089 C26.5471286,36.8646706 26.4619802,36.8220964 26.3556677,36.737194 C26.4408161,36.5031589 26.419406,36.2265495 26.7385896,36.0990729 C26.7811638,36.0776628 26.7811638,35.9713503 26.8023279,35.907612 C26.8234919,35.7375612 26.8449021,35.5461003 26.8660661,35.3760495 C26.9086404,35.4397878 26.9298044,35.4609518 26.9723786,35.5035261 C26.9937888,35.4609518 27.0149529,35.4397878 27.0149529,35.4397878 C27.0149529,35.3546393 26.9937888,35.1845886 27.0149529,35.1845886 C27.2701521,35.1420143 27.1638396,34.8656511 27.2915622,34.7379284 C27.3127263,34.7167643 27.2701521,34.65278 27.2701521,34.6104518 C27.2701521,34.5678776 27.2701521,34.5038933 27.2915622,34.5038933 C27.5890896,34.440155 27.5467614,34.1212175 27.7379763,33.9723308 C27.8019607,33.9297565 27.8231247,33.8660183 27.9082732,33.7597058 C28.0783239,34.0574792 27.7805505,34.2063659 27.7593864,34.4189909 C28.1208982,34.2063659 28.2272107,33.6959675 28.0145857,33.5470808 C28.0997341,33.4830964 28.1846364,33.398194 28.2483747,33.3130456 C28.4824099,33.0578464 28.7376091,32.8238112 28.9502341,32.568612 C29.0991208,32.3771511 29.1842693,32.143362 29.333156,31.9519011 C29.4183044,31.8455886 29.5883552,31.7604401 29.7158317,31.6967018 C30.0987536,31.4840768 30.4602653,31.2500417 30.6943005,30.88853 C30.7368747,30.8459558 30.800613,30.8033815 30.8643512,30.7610534 C30.9280895,30.7184792 31.0558122,30.7184792 31.0769762,30.6544948 C31.0983864,30.6121667 31.034402,30.5058541 30.9918278,30.4418697 C31.0769762,30.3992955 31.1621247,30.3143931 31.3321755,30.2292447 C31.2684372,30.3569673 31.2472731,30.4418697 31.2046989,30.5270181 L31.3110114,30.6333308 C31.5024723,30.4844439 31.8002458,30.3143931 31.9914606,30.1866705 C31.9914606,30.1655064 31.8851481,30.080358 31.8851481,30.080358 C31.7576716,30.1443423 31.5662106,30.2506548 31.3747497,30.3355572 C31.4173239,30.2718189 31.4173239,30.2292447 31.438488,30.2080806 C31.7362614,30.0166197 32.0340348,29.8251588 32.3529723,29.676272 C33.0974059,29.3359244 33.8418395,28.9958228 34.586027,28.6766392 C34.7137497,28.6129009 34.8838005,28.6554752 35.0326872,28.6554752 C35.0964255,28.6554752 35.1389997,28.6554752 35.2029841,28.6343111 C35.5430856,28.5279986 35.8834333,28.4216861 36.2237809,28.3365377 C36.3726676,28.2939634 36.5427184,28.2727994 36.6916051,28.2727994 C37.3297262,28.2939634 37.9676012,28.2939634 38.6057223,28.3365377 C38.8820856,28.3577017 39.1372848,28.4216861 39.3924841,28.5065884 C39.7116676,28.6129009 40.0517692,28.7617877 40.3495426,28.9106744 C40.7110544,29.1021353 41.051402,29.3147603 41.3917497,29.5487955 C42.0084606,29.9528814 42.5825973,30.3992955 43.1993083,30.7610534 C43.7948551,31.1225651 44.2626794,31.6115534 44.6456012,32.1645261 C45.1134255,32.8238112 45.6452341,33.4193581 45.8578591,34.22753 L46.1767966,35.6312487 C46.2405348,35.8864479 46.3894216,36.1416472 46.3256833,36.4394206 C46.2193708,36.9709831 46.1342223,37.5239558 46.04932,38.0557643 C46.0067458,38.2683893 45.9641716,38.4810143 45.9853356,38.6936393 C46.0279098,39.3529245 45.7727106,39.9270612 45.5175114,40.5226081 C45.432363,40.714069 45.3048864,40.90553 45.1985739,41.118155 C45.219738,41.139319 45.3474606,41.2033034 45.3686247,41.2033034 L45.5600856,40.8203815 C45.5812497,40.8203815 45.5812497,40.8203815 45.6026598,40.8417917 C45.4963473,41.139319 45.4111989,41.4585026 45.3048864,41.7562761 C45.0496872,42.4155612 44.794488,43.0960104 44.4755505,43.7341315 C44.3052536,44.0956433 44.0074801,44.3934167 43.7948551,44.7335183 C43.5822301,45.0312917 43.4121794,45.3502292 43.1993083,45.6268386 C43.0080934,45.8608737 42.8166325,46.0946628 42.5614333,46.2649597 C41.9870505,46.6902097 41.3917497,47.1154597 40.7750387,47.4558073 C40.3921169,47.6898425 39.9454567,47.817319 39.5202067,47.9236315 L39.5202067,47.9236315 L39.5202067,47.9236315 L39.5202067,47.9236315 Z M28.1846364,46.7965222 L28.1634724,46.8176862 C28.1208982,46.7965222 28.0571599,46.775112 28.0145857,46.7327839 L27.5041872,45.9671862 C27.461613,45.9032018 27.4404489,45.8394636 27.461613,45.7543151 C27.6954021,46.1158268 27.9294372,46.4561745 28.1846364,46.7965222 L28.1846364,46.7965222 L28.1846364,46.7965222 L28.1846364,46.7965222 Z M43.8800036,48.0725183 C43.9863161,47.9662058 44.0926286,47.8598933 44.2203512,47.7747448 C45.1134255,47.2217722 45.7727106,46.4561745 46.3682575,45.6054284 C47.0487067,44.6272058 47.4953669,43.5212604 48.0483395,42.4792995 C48.0909137,42.3941511 48.133488,42.3090026 48.1760622,42.2452643 C48.133488,44.66978 48.4098512,47.0517214 48.7287887,49.4548268 C46.3256833,49.5399753 43.8800036,49.6251237 41.4129137,49.7100261 C42.3699723,49.3059401 43.1569801,48.7318034 43.8800036,48.0725183 Z M62.9781091,49.0721511 C62.9566989,49.1147253 62.9141247,49.1570534 62.8929606,49.1996276 C62.8715505,49.1570534 62.8715505,49.0933151 62.8503864,49.0084128 C62.7226637,49.3485143 62.4463005,49.1784636 62.2548395,49.1784636 C61.1065661,49.1996276 59.9368825,49.1996276 58.788363,49.1996276 C57.6824176,49.1996276 56.5553083,49.1996276 55.449363,49.2210378 C55.0878512,49.2210378 54.7049294,49.3059401 54.3434176,49.3273503 C53.4715075,49.3699245 52.5995973,49.3910886 51.7276872,49.4122526 C51.6637028,49.4122526 51.5999645,49.3059401 51.493652,49.2210378 C51.472488,49.263612 51.4299137,49.3273503 51.3659294,49.4122526 C51.3447653,49.3699245 51.3021911,49.3273503 51.2596169,49.263612 C51.2384528,49.3273503 51.2170426,49.3910886 51.1958786,49.4336628 L51.1321403,49.4336628 C51.0895661,49.1358893 51.0044176,48.8595261 51.0044176,48.5617526 C51.0044176,47.9236315 51.0681559,47.2857565 51.0895661,46.6476354 C51.1107301,46.349862 51.0895661,46.0734987 51.0895661,45.7968893 C51.1747145,45.8608737 51.2384528,45.9032018 51.3236012,45.9671862 C51.3659294,45.8820378 51.4085036,45.8182995 51.4510778,45.7543151 C51.4510778,45.7543151 51.4085036,45.7331511 51.3659294,45.6905768 C51.4085036,45.6694128 51.4510778,45.6268386 51.4510778,45.6056745 C51.472488,45.5416901 51.5148161,45.4779518 51.5148161,45.4353776 C51.5148161,45.2864909 51.472488,45.1590143 51.4510778,45.0312917 C51.472488,45.0312917 51.493652,45.0312917 51.5148161,45.0101276 L51.6425387,45.6480026 L51.706277,45.6480026 C51.6213747,45.4991159 51.897738,45.3716393 51.6637028,45.2013425 C51.6425387,45.1801784 51.685113,45.0524558 51.685113,44.9887175 C51.6213747,44.8612409 51.5788005,44.7335183 51.5148161,44.5634675 C51.5362262,44.5423034 51.5999645,44.5208933 51.6637028,44.4997292 C51.5788005,44.457155 51.5148161,44.4145808 51.4510778,44.3931706 C51.6637028,44.2019558 51.6637028,44.0956433 51.472488,43.8827722 C51.5148161,43.8616081 51.5573903,43.8616081 51.5573903,43.840444 C51.5573903,43.6489831 51.5573903,43.4575222 51.5148161,43.2660612 C51.472488,43.0534362 51.5788005,42.798237 51.2596169,42.6707604 C51.281027,42.7344987 51.3021911,42.7770729 51.3447653,42.8408112 C51.3447653,42.8408112 51.281027,42.8619753 51.2170426,42.9045495 C50.9406794,42.6493503 51.1107301,42.3090026 51.0469919,41.9263268 C51.1958786,41.9689011 51.3021911,42.0114753 51.4085036,42.0538034 C51.3659294,41.9051628 51.2596169,41.7348659 51.1958786,41.543405 L51.1107301,41.543405 L51.1107301,40.1399323 C51.1107301,40.1610964 51.2596169,40.1610964 51.3447653,40.1822604 C51.3447653,40.1610964 51.3659294,40.1399323 51.3659294,40.1185222 C51.3021911,40.0333737 51.2170426,39.9484714 51.1321403,39.8421589 L51.1747145,39.7995847 C51.0044176,39.5869597 51.0895661,39.2891862 51.0895661,39.2254479 L51.0895661,37.7365808 C51.3021911,37.9492058 50.9832536,38.2258151 51.3021911,38.3532917 L51.3021911,38.1406667 L51.281027,38.1406667 C51.2596169,37.8217292 51.2596169,37.5027917 51.2384528,37.1836081 L51.1958786,37.1836081 C51.1747145,37.2261823 51.1747145,37.2475925 51.1533044,37.2899206 L51.1107301,37.2899206 C51.1533044,35.6098386 51.1958786,33.9297565 51.2384528,32.2071003 C51.4510778,32.4837097 51.685113,32.7389089 51.8339997,33.0152722 C52.322988,33.9085925 52.9611091,34.6741901 53.5566559,35.482362 C54.0670544,36.1842214 54.5348786,36.949819 55.0027028,37.6728425 C55.5768395,38.5447526 56.1298122,39.4166628 56.704195,40.288819 C57.129445,40.9481042 57.5761051,41.6073893 58.0227653,42.2452643 C58.4268512,42.8194011 58.8521012,43.3723737 59.2775973,43.9253464 C59.6391091,44.4145808 60.0217848,44.9038151 60.3832966,45.3928034 C60.8087926,45.9883503 61.2340426,46.5838972 61.6595387,47.1580339 C61.8721637,47.4558073 62.1059528,47.7535808 62.339988,48.0513542 C62.4674645,48.221405 62.6589255,48.3491276 62.7866481,48.4554401 C62.765238,48.4554401 62.7440739,48.4554401 62.7014997,48.43403 C62.765238,48.5191784 62.8078122,48.5829167 62.8503864,48.6254909 C63.0844216,48.7529675 63.1055856,48.8806901 62.9781091,49.0721511 L62.9781091,49.0721511 L62.9781091,49.0721511 L62.9781091,49.0721511 Z M64.0626442,43.7552956 L64.0626442,43.6064089 C64.0626442,43.6489831 64.0838083,43.7127214 64.0626442,43.7552956 L64.0626442,43.7552956 L64.0626442,43.7552956 L64.0626442,43.7552956 Z M64.7856676,34.3764167 C64.7645036,34.3764167 64.6367809,34.248694 64.6156169,34.22753 C64.5942067,34.2912683 64.6156169,34.3550065 64.5730426,34.440155 C64.5518786,34.3764167 64.4029919,34.3975808 64.4029919,34.3338425 C64.3815817,34.6316159 64.5304684,34.9293893 64.5093044,35.2271628 C64.5730426,35.1845886 64.8282419,35.1631784 64.8919801,35.0994401 C64.9133903,35.1208503 64.9557184,35.1420143 64.9771286,35.1420143 C64.5518786,35.4609518 64.6581911,35.7801354 64.8494059,36.1416472 C64.8919801,36.2265495 65.0197028,36.3968464 64.8919801,36.5668972 C64.8494059,36.6094714 64.9133903,36.737194 64.9345544,36.8435065 L64.9982926,36.8435065 L64.9982926,36.8858347 L64.8070778,36.949819 C64.7645036,36.8858347 64.5093044,36.7583581 64.5093044,36.6520456 L64.5093044,37.7365808 C64.7219294,37.800319 64.7219294,38.0980925 64.8070778,38.2469792 C64.8494059,38.1832409 64.8708161,38.1406667 64.8919801,38.0769284 L64.9133903,38.0980925 C64.8919801,38.2258151 64.8708161,38.3532917 64.8282419,38.4810143 C64.7856676,38.6724753 64.7430934,38.8425261 64.7219294,39.033987 C64.7219294,39.0551511 64.7645036,39.0977253 64.7645036,39.1188893 C64.5304684,39.6506979 64.6581911,40.2462448 64.5730426,40.7992175 C64.5093044,41.2033034 64.5730426,41.6285534 64.5304684,42.0538034 C64.4878942,42.4155612 64.4029919,42.798237 64.3178434,43.1597487 C64.2966794,43.223487 64.2541051,43.2448972 64.1477926,43.2874714 C64.1901208,43.0322722 64.1689567,42.8619753 64.1263825,42.6281862 C64.1052184,42.6281862 63.8286091,42.4792995 63.807445,42.4792995 C63.807445,42.7770729 63.9774958,43.1811589 64.0414801,43.5212604 C63.9774958,43.5000964 63.7222966,43.3512097 63.7011325,43.3512097 C63.6585583,43.6064089 63.6585583,43.9467565 63.6373942,44.2231198 C63.6159841,44.4357448 63.4245231,44.6272058 63.4033591,44.8612409 C63.4033591,44.9887175 63.5522458,45.0738659 63.5308356,45.2864909 L63.7011325,45.2864909 C63.7011325,44.8612409 63.8925934,44.478319 63.8925934,44.0316589 L63.9563317,44.0316589 C63.9774958,44.0742331 64.0414801,44.1168073 64.02007,44.1382175 C63.9774958,44.3720065 63.8925934,44.6272058 63.9137575,44.8612409 C63.9137575,44.9887175 64.02007,45.1164401 63.9774958,45.2653268 C63.9349216,45.3928034 63.9137575,45.5205261 63.8925934,45.7117409 C63.8711833,45.6054284 63.8500192,45.5631003 63.8500192,45.4991159 C63.8286091,45.4991159 63.6373942,45.4779518 63.6159841,45.4779518 C63.59482,45.6054284 63.7648708,45.7331511 63.7437067,45.8394636 C63.7222966,45.8608737 63.7011325,45.8608737 63.6585583,45.8820378 L62.9566989,44.8612409 C62.4037262,44.053069 61.8507536,43.2448972 61.2977809,42.4155612 C61.1488942,42.2026901 61.0214176,41.9900651 60.9151051,41.7774401 C60.25582,40.6503308 59.5327966,39.5655495 58.7246247,38.5235886 C58.1076676,37.7365808 57.6186794,36.8858347 57.0442966,36.0564987 C56.5127341,35.269737 55.9809255,34.5038933 55.449363,33.7171315 C55.257902,33.4619323 55.024113,33.2278972 54.8538161,32.9515339 C54.3008434,32.0796237 53.8118551,31.1863034 53.2588825,30.3143931 C52.7910583,29.5911236 52.2804137,28.8895103 51.7914255,28.1876509 C51.6213747,27.9536158 51.4510778,27.6984166 51.281027,27.4432173 C51.2596169,27.4006431 51.2384528,27.3580689 51.2384528,27.2943306 C51.1958786,26.8265064 51.1533044,26.3586822 51.1321403,25.912022 C51.1321403,25.4865259 51.1747145,25.0612759 51.1747145,24.6146158 L51.1747145,24.23194 C51.1747145,24.1256275 51.1958786,24.0404791 51.1958786,23.9341666 C51.2170426,23.9127564 51.2384528,23.8704283 51.2596169,23.8490181 C50.6429059,23.8490181 50.0050309,23.8278541 49.3880739,23.8490181 C48.9842341,23.8704283 48.771363,23.7001314 48.4949997,23.4026041 C47.6868278,22.4878736 47.0912809,21.4459127 46.3894216,20.46769 C45.7301364,19.5317955 45.0496872,18.6173111 44.3689919,17.7028267 C43.8162653,16.9583931 43.2632926,16.2353697 42.71032,15.4909361 C42.0936091,14.6404361 41.4980622,13.78969 40.8599411,12.9389439 C40.0943434,11.918147 39.3075817,10.8973502 38.5205739,9.87655328 C38.1590622,9.40848297 37.7549762,8.96206891 37.3508903,8.47283453 C37.6272536,8.51540875 37.8824528,8.55798297 38.1378981,8.57914703 L39.158695,8.64288531 C39.9242926,8.70686969 40.6898903,8.74919781 41.455488,8.85551031 C42.0936091,8.94065875 42.7314841,9.06838141 43.3907692,9.17469391 C44.794488,9.40848297 46.1767966,9.79140485 47.516777,10.238065 C48.3035387,10.4932642 49.0691364,10.8336119 49.8347341,11.1525494 C51.5573903,11.8544088 53.1951442,12.7049088 54.8112419,13.5982291 C55.3218864,13.8745923 55.6194137,14.3212525 56.0023356,14.7253384 C56.5553083,15.2997213 57.1082809,15.873858 57.6398434,16.4694048 C58.2565544,17.1712642 58.8309372,17.8942877 59.426238,18.6173111 C59.9580466,19.2554322 60.5110192,19.8933072 61.0425817,20.5314283 C61.2128786,20.7228892 61.3403551,20.9566783 61.4892419,21.1693033 C61.8295895,21.6797017 62.2122653,22.1689361 62.5100387,22.7219088 C62.7229098,23.1259947 62.8503864,23.5938189 62.9992731,24.0404791 C63.2118981,24.6997642 63.4245231,25.3378853 63.6373942,25.9971705 C63.7860348,26.4861588 63.9137575,26.9965572 64.02007,27.5069556 C64.1052184,27.8473033 64.0838083,28.208815 64.1901208,28.5491627 C64.3178434,28.9958228 64.1901208,29.4848111 64.3178434,29.9314713 C64.3390075,29.9740455 64.3604176,30.0377838 64.3815817,30.080358 C64.4667301,30.1655064 64.5304684,30.2504088 64.4029919,30.3781314 C64.3815817,30.3992955 64.3815817,30.4844439 64.4029919,30.5481822 C64.44532,30.5058541 64.4667301,30.4632798 64.5093044,30.3992955 C64.5093044,30.4418697 64.5304684,30.4632798 64.5304684,30.4844439 C64.5304684,30.5695923 64.5093044,30.6544948 64.5304684,30.7396433 C64.5304684,30.7822175 64.5730426,30.8459558 64.5942067,30.88853 C64.6367809,30.8459558 64.6793551,30.8247917 64.7645036,30.7610534 C64.9557184,31.4840768 64.9771286,32.2071003 64.9771286,32.9515339 C64.9771286,33.6533933 65.1046051,34.3550065 64.8070778,35.0357018 C64.8708161,34.8016667 64.7219294,34.5890417 64.7856676,34.3764167 L64.7856676,34.3764167 L64.7856676,34.3764167 L64.7856676,34.3764167 Z" id="Shape" fill="#DD3735" sketch:type="MSShapeGroup"></path>
            <path d="M51.2658711,41.7164492 C51.2870352,41.7164492 51.3084453,41.7378594 51.3084453,41.7378594 L51.2870352,41.7164492 C51.2870352,41.6952852 51.2870352,41.6952852 51.2658711,41.7164492 L51.2658711,41.7164492 L51.2658711,41.7164492 L51.2658711,41.7164492 Z M54.6260352,62.7286719 C54.3922461,62.8987227 54.1582109,63.0476094 53.8604375,63.1113477 C53.8392734,63.0901836 53.8392734,63.0687734 53.8178633,63.0476094 C54.0518984,62.8987227 54.3070977,62.7498359 54.5411328,62.6009492 C54.5622969,62.6435234 54.6048711,62.6860977 54.6260352,62.7286719 L54.6260352,62.7286719 L54.6260352,62.7286719 L54.6260352,62.7286719 Z M14.7499883,33.9113398 C14.9837773,33.6135664 15.2178125,33.315793 15.4730117,33.0182656 C15.4941758,33.0394297 15.6644727,33.0820039 15.6856367,33.103168 C15.4518477,33.4009414 15.1326641,33.8050273 14.898875,34.1239648 C14.8563008,34.0816367 14.7925625,33.93275 14.7499883,33.9113398 L14.7499883,33.9113398 L14.7499883,33.9113398 L14.7499883,33.9113398 Z M8.71010937,44.3324258 C8.5398125,43.9709141 8.36976172,43.5879922 8.19971094,43.2264805 C8.220875,43.2053164 8.36976172,43.141332 8.39092578,43.141332 C8.62496094,43.4816797 8.73127344,43.8857656 8.90132422,44.2472773 C8.90132422,44.2472773 8.73127344,44.3324258 8.71010937,44.3324258 L8.71010937,44.3324258 L8.71010937,44.3324258 L8.71010937,44.3324258 Z M14.1332773,34.1239648 C14.0055547,34.3154258 13.8780781,34.5280508 13.7503555,34.7195117 C13.7291914,34.6983477 13.4951562,34.8046602 13.4739922,34.78325 C13.6014687,34.5920352 13.9204062,34.2516875 14.0481289,34.0602266 C14.069293,34.0816367 14.0907031,34.1028008 14.1332773,34.1239648 L14.1332773,34.1239648 L14.1332773,34.1239648 L14.1332773,34.1239648 Z M52.3504062,63.600582 C52.3718164,63.600582 52.3718164,63.5791719 52.3929805,63.5791719 C52.5418672,63.600582 52.7121641,63.6217461 52.8822148,63.6217461 C52.6056055,63.813207 52.4355547,63.792043 52.3504062,63.600582 L52.3504062,63.600582 L52.3504062,63.600582 L52.3504062,63.600582 Z M14.1756055,35.0172852 C14.1970156,34.9535469 14.2395898,34.8895625 14.281918,34.8258242 C14.3244922,34.8258242 14.3884766,34.8046602 14.3884766,34.8046602 C14.4733789,34.6557734 14.4733789,34.5494609 14.5585273,34.4217383 C14.5373633,34.4005742 14.5159531,34.4005742 14.4947891,34.3791641 C14.3670664,34.4643125 14.2395898,34.570625 14.1118672,34.6557734 C14.1544414,34.6983477 14.1544414,34.7195117 14.1544414,34.7620859 C13.9843906,34.7409219 13.9204062,34.8258242 13.8355039,35.0598594 C13.8140937,35.1235977 13.7077812,35.1447617 13.6014687,35.2299102 C13.5803047,35.2724844 13.5588945,35.3787969 13.5163203,35.4851094 L13.5377305,35.5065195 C13.4951562,35.5488477 13.431418,35.5702578 13.431418,35.5702578 C13.3036953,35.6977344 13.1548086,35.804293 13.027332,35.9317695 C13.0059219,35.9955078 12.9847578,36.0594922 12.9847578,36.1232305 C13.1336445,35.9743438 13.3888437,35.6977344 13.5803047,35.5276836 L13.6014687,35.5488477 C13.6866172,35.4213711 13.7503555,35.2936484 13.8355039,35.1661719 C13.856668,35.1873359 13.856668,35.2087461 13.8780781,35.2299102 C13.8140937,35.3999609 13.7503555,35.5914219 13.6866172,35.7617188 C13.644043,35.7828828 13.5803047,35.825457 13.5803047,35.804293 C13.4951562,35.8680313 13.431418,35.9529336 13.3462695,36.016918 L12.9635937,36.2721172 C12.7507227,36.4635781 12.5380977,36.6336289 12.3043086,36.8250898 C12.1554219,37.0588789 12.0065352,37.2715039 11.8362383,37.5481133 C12.0914375,37.484375 12.1554219,37.5906875 12.1340117,37.8033125 C12.4317852,37.8458867 12.4529492,37.6118516 12.5380977,37.4418008 C12.5595078,37.3992266 12.5806719,37.3140781 12.6232461,37.2929141 C12.814707,37.1228633 13.027332,36.9739766 13.239957,36.8036797 C13.2825312,36.7611055 13.2825312,36.6762031 13.2825312,36.6122188 C13.2825312,36.5910547 13.1762187,36.5910547 13.1124805,36.5698906 C13.3036953,36.3570195 13.5803047,35.9955078 13.7717656,35.7617188 C13.8780781,35.6977344 13.9843906,35.612832 13.9843906,35.5488477 C13.9629805,35.3150586 14.1118672,35.2513203 14.281918,35.1661719 C14.1970156,35.1024336 14.1756055,35.0384492 14.1756055,35.0172852 L14.1756055,35.0172852 L14.1756055,35.0172852 L14.1756055,35.0172852 Z" id="Shape" fill="#DD3735" sketch:type="MSShapeGroup"></path>
            <path d="M14.6011016,34.78325 C14.5159531,34.9321367 14.4310508,35.0598594 14.3459023,35.2087461 L14.2181797,35.1447617 C14.1332773,35.6339961 13.8355039,36.0594922 13.5377305,36.1443945 C13.6228789,36.1869688 13.7077813,36.229543 13.7717656,36.2081328 C13.8355039,36.1869688 13.8780781,36.0806563 13.9204063,36.016918 L14.4947891,35.1873359 L14.68625,34.8683984 L14.6011016,34.78325 L14.6011016,34.78325 L14.6011016,34.78325 Z M7.51901563,44.1195547 C7.62532813,44.1195547 7.73164063,44.1409648 7.85936328,44.1409648 C7.85936328,44.0558164 7.96567578,44.0772266 7.96567578,43.9920781 L8.02941406,43.9920781 C8.02941406,44.0983906 8.05082422,44.1835391 8.05082422,44.2898516 L7.60416406,44.2898516 C7.58275391,44.2684414 7.49785156,44.1409648 7.51901563,44.1195547 L7.51901563,44.1195547 L7.51901563,44.1195547 L7.51901563,44.1195547 Z M7.34896484,43.141332 C7.28522656,43.0775938 7.17866797,43.0138555 7.17866797,42.9498711 C7.15750391,42.8649688 7.22124219,42.7586563 7.28522656,42.6523438 C7.32755469,42.8009844 7.34896484,42.928707 7.39153906,43.0775938 C7.37012891,43.0987578 7.34896484,43.120168 7.34896484,43.141332 L7.34896484,43.141332 L7.34896484,43.141332 L7.34896484,43.141332 Z M7.88052734,41.7801875 C7.96567578,41.9930586 8.05082422,42.2268477 8.13572656,42.4394727 C8.1145625,42.4394727 7.98683984,42.503457 7.96567578,42.5246211 C7.88052734,42.3119961 7.77421484,42.0779609 7.6893125,41.8653359 C7.71047656,41.8441719 7.83795313,41.7801875 7.88052734,41.7801875 L7.88052734,41.7801875 L7.88052734,41.7801875 L7.88052734,41.7801875 Z M55.221582,62.1119609 C55.3278945,62.0693867 55.4556172,62.0479766 55.625668,62.0054023 C55.434207,62.1542891 55.2853203,62.2606016 55.1578438,62.3883242 C55.1364336,62.3669141 55.1152695,62.34575 55.0941055,62.34575 C55.1364336,62.2606016 55.1790078,62.1968633 55.221582,62.1117148 L55.221582,62.1119609 L55.221582,62.1119609 L55.221582,62.1119609 Z M29.0842109,17.1740117 C29.2116875,17.0888633 29.318,17.025125 29.4457227,16.9399766 L29.4882969,16.9825508 C29.3605742,17.1528477 29.2542617,17.3228984 29.105375,17.5355234 C29.0842109,17.3866367 29.0842109,17.3014883 29.0628008,17.1951758 C29.0416367,17.1951758 29.0628008,17.1951758 29.0842109,17.1740117 L29.0842109,17.1740117 L29.0842109,17.1740117 L29.0842109,17.1740117 Z M35.3153047,27.9351992 C35.5067656,27.8502969 35.6982266,27.7651484 35.9322617,27.6588359 C35.9108516,27.7863125 35.9108516,27.8714609 35.9108516,27.9566094 C35.8471133,27.9351992 35.7619648,27.9140352 35.6982266,27.9140352 C35.57075,27.9351992 35.3367148,28.1054961 35.2304023,28.1266602 C35.2089922,28.1266602 35.3153047,27.9566094 35.3153047,27.9351992 L35.3153047,27.9351992 L35.3153047,27.9351992 L35.3153047,27.9351992 Z M51.2658711,45.9699336 C51.3084453,46.1825586 51.7125313,46.2888711 51.3084453,46.5014961 C51.3721836,46.5440703 51.4359219,46.5654805 51.4999063,46.6080547 C51.4999063,46.6292188 51.4784961,46.671793 51.457332,46.692957 C51.4147578,46.7143672 51.3296094,46.7569414 51.2870352,46.7355313 C51.2658711,46.7355313 51.2232969,46.6503828 51.2232969,46.6080547 C51.2232969,46.4165938 51.244707,46.2251328 51.2658711,45.9699336 L51.2658711,45.9699336 L51.2658711,45.9699336 L51.2658711,45.9699336 Z" id="Shape" fill="#DD3735" sketch:type="MSShapeGroup"></path>
        </g>
    </g>
</svg>