<?xml version="1.0" encoding="UTF-8" standalone="no"?>
<svg width="74px" height="74px" viewBox="0 0 74 74" version="1.1" xmlns="http://www.w3.org/2000/svg" xmlns:xlink="http://www.w3.org/1999/xlink" xmlns:sketch="http://www.bohemiancoding.com/sketch/ns">
    <!-- Generator: Sketch 3.2.2 (9983) - http://www.bohemiancoding.com/sketch -->
    <title>sass-icon</title>
    <desc>Created with Sketch.</desc>
    <defs></defs>
    <g id="Resume-Tools" stroke="none" stroke-width="1" fill="none" fill-rule="evenodd" sketch:type="MSPage">
        <g id="sass-icon" sketch:type="MSLayerGroup">
            <rect id="Rectangle-2" fill="#CC6699" sketch:type="MSShapeGroup" x="0.558365458" y="0.5" width="73" height="73" rx="40"></rect>
            <path d="M55.1298899,38.5223197 C53.5228278,38.5307577 52.1309081,38.9108793 50.9641198,39.4777114 C50.5373607,38.6383002 50.1054811,37.8999791 50.0329556,37.3509328 C49.9482585,36.7099791 49.8500468,36.3276238 49.9523716,35.5640715 C50.0546965,34.8005192 50.5028607,33.7192199 50.4963132,33.6382321 C50.4897658,33.5572443 50.3958351,33.168271 49.468868,33.1617358 C48.5419008,33.1551178 47.7490724,33.3374438 47.6557293,33.5786701 C47.5623862,33.8198963 47.3839264,34.3626555 47.2729556,34.9287431 C47.1105286,35.7570691 45.422295,38.7110983 44.4635979,40.2566506 C44.15016,39.6535022 43.8835614,39.12158 43.8279921,38.7010058 C43.743295,38.0600521 43.6450833,37.6776968 43.7474081,36.9141445 C43.849733,36.1505922 44.2979811,35.0692929 44.2913497,34.9883051 C44.2848023,34.9073173 44.1908716,34.5184268 43.2639045,34.5118088 C42.3369373,34.5051908 41.5441089,34.6875168 41.4508497,34.9287431 C41.3574227,35.1699693 41.257868,35.7334925 41.0679921,36.2788161 C40.8780322,36.8241397 38.6338534,41.7519061 38.0460943,43.0292637 C37.7465906,43.6800618 37.4859519,44.2028015 37.3019519,44.5599255 C37.3013643,44.5590983 37.3006928,44.5579401 37.3006928,44.5579401 C37.3006928,44.5579401 37.2894446,44.5816822 37.2698862,44.6218866 C37.1124118,44.9257358 37.018649,45.0939985 37.018649,45.0939985 C37.018649,45.0939985 37.0196563,45.0963148 37.0214191,45.1002856 C36.89643,45.3234779 36.7626271,45.5307869 36.6963132,45.5307869 C36.6499775,45.5307869 36.5571381,44.9365727 36.7164592,44.1211518 C37.0503789,42.4117212 37.8526928,39.7457406 37.8446344,39.6539985 C37.8405213,39.6068453 37.9937986,39.142344 37.3208388,38.899546 C36.6666819,38.6635314 36.4337439,39.0571372 36.3739775,39.0583781 C36.3162257,39.0595363 36.2732475,39.1973562 36.2732475,39.1973562 C36.2732475,39.1973562 37.0020286,36.1994 34.8831746,36.1994 C33.5584921,36.1994 31.722941,37.6275654 30.8186381,38.9219645 C30.248087,39.228709 29.0269884,39.8857114 27.7313497,40.5871372 C27.2338278,40.8565727 26.7260651,41.1318818 26.2444921,41.3932929 C26.2117548,41.3576384 26.1791855,41.3218185 26.1455249,41.2863294 C23.5762402,38.5850253 18.8267402,36.6742418 19.028284,33.0426117 C19.1015651,31.7223197 19.5671892,28.245799 28.1544154,24.028889 C35.1888059,20.574456 40.8201125,21.5250496 41.7933315,23.6318088 C43.1834884,26.6415946 38.7836052,32.2356287 31.478503,33.0426117 C28.6951673,33.3501007 27.2296308,32.287001 26.8650724,31.8910788 C26.4813753,31.4742272 26.4241271,31.4554487 26.2808388,31.5337066 C26.0473972,31.6611032 26.1953023,32.029147 26.2808388,32.2484511 C26.499003,32.807838 27.3939884,33.7998769 28.9199629,34.2934146 C30.262357,34.7275557 33.5301198,34.9659693 37.4820067,33.459546 C41.9082475,31.7722856 45.3644592,27.0785484 44.3492694,23.1553124 C43.3168716,19.1650691 36.6034738,17.8532978 30.2495979,20.0779401 C26.4681965,21.401872 22.3745322,23.4797601 19.4312038,26.1929766 C15.9315943,29.4189231 15.3734665,32.2267771 15.6034665,33.3999839 C16.4205541,37.5685825 22.2507184,40.2831226 24.5853023,42.2950788 C24.4701344,42.357619 24.3620176,42.4164365 24.2638059,42.4699596 C23.0932402,43.0405144 18.6491198,45.3325776 17.5374811,47.7544365 C16.2765103,50.5014876 17.7381855,52.4724122 18.7059483,52.7377942 C21.7041746,53.5599158 24.7809702,52.0811226 26.4344519,49.6505776 C28.0875979,47.2206117 27.8857184,44.0565436 27.1269702,42.6122467 C27.1175687,42.5942954 27.10716,42.5767577 27.0974227,42.558889 C27.3996965,42.3826019 27.70793,42.2033367 28.0133935,42.0265533 C28.6091271,41.681838 29.1938643,41.3602856 29.7013753,41.0881202 C29.4174848,41.8548161 29.2094775,42.7739742 29.1012767,44.1012978 C28.9741892,45.6605825 29.6225541,47.6762613 30.4712038,48.469181 C30.8448278,48.8182808 31.2943351,48.8265533 31.579233,48.8265533 C32.5666381,48.8265533 33.0171527,48.0170058 33.5132475,47.0594633 C34.1217402,45.885181 34.6615687,44.5182321 34.6615687,44.5182321 C34.6615687,44.5182321 33.9839081,48.2109961 35.8300359,48.2109961 C36.50266,48.2109961 37.1793972,47.3514827 37.4807475,46.9132054 C37.481503,46.9179207 37.4820067,46.9205679 37.4820067,46.9205679 C37.4820067,46.9205679 37.4994665,46.8920277 37.5337986,46.834782 C37.6036381,46.729473 37.6431746,46.6624657 37.6431746,46.6624657 C37.6431746,46.6624657 37.6445176,46.6555995 37.6467001,46.6434389 C37.917076,46.1807577 38.5166709,45.1259304 39.4160213,43.3865533 C40.577941,41.1391616 41.6925176,38.3237796 41.6925176,38.3237796 C41.6925176,38.3237796 41.7961855,39.0120521 42.1357293,40.1503489 C42.3355103,40.8200083 42.7598351,41.5603976 43.0947621,42.270344 C42.8252257,42.6388842 42.6595249,42.8504949 42.6595249,42.8504949 C42.6595249,42.8504949 42.6611198,42.854383 42.6640578,42.8614973 C42.4485797,43.1432589 42.2070797,43.4473562 41.9544994,43.7438428 C41.0374373,44.820344 39.9451052,46.049473 39.798795,46.4043635 C39.6264629,46.8222905 39.6672585,47.1298623 40.0001709,47.3771275 C40.2435176,47.5578818 40.6765724,47.5859255 41.12843,47.5558136 C41.9524848,47.5012151 42.5323534,47.2998623 42.8185103,47.1770983 C43.2644921,47.0216579 43.7838388,46.7772054 44.2712038,46.4242175 C45.1708899,45.7724268 45.7134884,44.8399499 45.6613607,43.6049474 C45.6324848,42.9242029 45.412222,42.2496628 45.1336198,41.6127625 C45.2152111,41.4970302 45.2971381,41.3803878 45.379233,41.262091 C46.7974264,39.2188647 47.8974811,36.9737066 47.8974811,36.9737066 C47.8974811,36.9737066 48.001149,37.6619791 48.3407767,38.8001932 C48.5126052,39.3763732 48.8516454,40.0049182 49.1565213,40.6213027 C47.8230249,41.6891178 46.9959483,42.9298282 46.708784,43.7438428 C46.1779373,45.2492735 46.5937001,45.9314243 47.3736855,46.0866993 C47.7269957,46.1570156 48.2259446,45.9974389 48.6013315,45.8409231 C49.0684665,45.6882127 49.6296162,45.4340813 50.1538315,45.0542905 C51.0535176,44.4024998 51.9184519,43.4898769 51.8663242,42.2547917 C51.8424008,41.6925095 51.6877804,41.1344462 51.4778424,40.5983878 C52.6082001,40.134383 54.071722,39.8762808 55.9357293,40.0907869 C59.9347913,40.5510691 60.7193096,43.0118088 60.5693059,44.0417358 C60.4193023,45.0716628 59.5805578,45.6378331 59.3000249,45.8087431 C59.0197439,45.9797358 58.9341235,46.0389669 58.9576271,46.1661153 C58.9917074,46.3510058 59.1213972,46.3438915 59.3605468,46.3041835 C59.6897658,46.2493367 61.460514,45.4664268 61.5363132,43.5652394 C61.6325103,41.151653 59.2860906,38.5004803 55.1298899,38.5223197 L55.1298899,38.5223197 Z M24.3056928,48.7635995 C22.9810943,50.1877114 21.1305176,50.7259207 20.3369337,50.2725046 C19.4800578,49.782855 19.8194337,47.6863538 21.4449629,46.1751324 C22.4357257,45.2540715 23.7147439,44.4058088 24.5632257,43.8834 C24.7562074,43.7688258 25.03993,43.6007285 25.3847621,43.3971421 C25.4418424,43.364962 25.47416,43.3471762 25.47416,43.3471762 L25.4728169,43.345108 C25.5393826,43.3058136 25.6075432,43.2656092 25.6780541,43.2240813 C26.2695067,45.375181 25.6960176,47.2689231 24.3056928,48.7635995 L24.3056928,48.7635995 Z M33.9556198,42.2984706 C33.4942767,43.4068209 32.5286965,46.2425533 31.9410213,46.0906701 C31.4365322,45.9601299 31.129222,43.804563 31.8402913,41.6829961 C32.1981344,40.615181 32.9625906,39.3390642 33.4116782,38.843872 C34.1345833,38.0468161 34.9306016,37.7862321 35.124087,38.1093562 C35.3706235,38.5209961 34.2448826,41.60358 33.9556198,42.2984706 L33.9556198,42.2984706 Z M41.9282257,46.0474049 C41.7326417,46.1482467 41.5532585,46.2115314 41.4699884,46.1627236 C41.4088789,46.1267382 41.5506563,45.9939645 41.5506563,45.9939645 C41.5506563,45.9939645 42.5479665,44.9366555 42.9407293,44.4552783 C43.1691344,44.175254 43.4341381,43.8429474 43.7228132,43.4712637 C43.7250797,43.50849 43.7264227,43.5453027 43.7264227,43.581619 C43.7234848,44.8483878 42.4819045,45.7035995 41.9282257,46.0474049 L41.9282257,46.0474049 Z M48.0700651,44.6675508 C47.9241746,44.5653027 47.9484337,44.2345679 48.4282439,43.2044754 C48.6166089,42.7999499 49.0463899,42.1191226 49.7934702,41.4683246 C49.8800979,41.7360229 49.9328132,41.9925533 49.9313862,42.231546 C49.921733,43.825327 48.7678716,44.4205338 48.0700651,44.6675508 L48.0700651,44.6675508 Z" id="Imported-Layers" fill="#FFFFFF" sketch:type="MSShapeGroup"></path>
        </g>
    </g>
</svg>