<?xml version="1.0" encoding="UTF-8" standalone="no"?>
<svg width="74px" height="74px" viewBox="0 0 74 74" version="1.1" xmlns="http://www.w3.org/2000/svg" xmlns:xlink="http://www.w3.org/1999/xlink" xmlns:sketch="http://www.bohemiancoding.com/sketch/ns">
    <!-- Generator: Sketch 3.2.2 (9983) - http://www.bohemiancoding.com/sketch -->
    <title>sublime-icon</title>
    <desc>Created with Sketch.</desc>
    <defs></defs>
    <g id="Resume-Tools" stroke="none" stroke-width="1" fill="none" fill-rule="evenodd" sketch:type="MSPage">
        <g id="sublime-icon" sketch:type="MSLayerGroup">
            <rect id="Rectangle-2" fill="#FF8200" sketch:type="MSShapeGroup" x="0.558365458" y="0.5" width="73" height="73" rx="40"></rect>
            <g id="Imported-Layers" transform="translate(17.000000, 19.000000)" sketch:type="MSShapeGroup">
                <path d="M36.9914598,35.8727144 L2.11649467,35.8727144 C0.920442884,35.8727144 -0.0116770978,34.743883 0.115138501,33.4490519 L2.35982526,5.45955285 C2.46891032,4.04022219 3.33230334,2.96330897 4.36118143,2.96330897 L34.9294821,2.96330897 C35.9585291,2.96330897 36.8217532,4.04022219 36.9308383,5.45955285 L38.992816,33.4490519 C39.1198005,34.743883 38.1875116,35.8727144 36.9914598,35.8727144" id="Fill-1" fill="#DCDCDC"></path>
                <path d="M35.5941242,32.9331685 L3.51399919,32.9331685 C2.41369234,32.9331685 1.5562095,31.8043522 1.67289336,30.5095802 L3.73774176,2.51999001 C3.83821484,1.10044207 4.63220544,0.0237630208 5.57884759,0.0237630208 L33.6972938,0.0237630208 C34.6437671,0.0237630208 35.4379265,1.10044207 35.5383996,2.51999001 L37.4350611,30.5095802 C37.551745,31.8043522 36.6942622,32.9331685 35.5941242,32.9331685" id="Fill-2" fill="#262626"></path>
                <path d="M12.4679235,19.8166016 L12.5136852,19.7641624 C13.1555308,19.0301875 14.2494209,18.8706126 15.0138606,19.3682639 C16.1567208,20.1119626 17.6570624,20.6387854 19.4466653,20.6410427 C21.6113113,20.6436473 22.6440732,19.7117232 22.6229654,18.750454 C22.5608241,15.9123136 12.30666,17.8134943 12.9579619,12.1337408 C13.2156458,9.88597528 15.6663446,8.14332756 19.3363982,8.16485888 C21.1298848,8.1754509 22.7087475,8.49807341 24.0566065,9.11970342 C24.8836941,9.50101613 25.1535361,10.3850157 24.6145276,11.0083821 L24.6070976,11.0170641 C24.1504939,11.5449287 23.2688638,11.6979052 22.5665654,11.3561824 C21.4459951,10.8111274 20.1780079,10.5541407 18.9633813,10.5480633 C17.4865115,10.5405968 16.6285221,11.0794007 16.5768502,11.8996745 C16.4338238,14.171055 26.0670812,12.6737602 26.4813005,18.3609802 C26.7097712,21.4972599 24.3853814,24.0395183 19.1785119,24.0395183 C16.3764106,24.0395183 14.2227407,23.3439178 12.6568804,22.2567598 C11.8578239,21.7019811 11.7923054,20.5891244 12.4679235,19.8166016" id="Fill-3" fill="#FF8200"></path>
            </g>
        </g>
    </g>
</svg>