<?xml version="1.0" encoding="UTF-8" standalone="no"?>
<svg width="74px" height="74px" viewBox="0 0 74 74" version="1.1" xmlns="http://www.w3.org/2000/svg" xmlns:xlink="http://www.w3.org/1999/xlink" xmlns:sketch="http://www.bohemiancoding.com/sketch/ns">
    <!-- Generator: Sketch 3.2.2 (9983) - http://www.bohemiancoding.com/sketch -->
    <title>susy-icon</title>
    <desc>Created with Sketch.</desc>
    <defs></defs>
    <g id="Resume-Tools" stroke="none" stroke-width="1" fill="none" fill-rule="evenodd" sketch:type="MSPage">
        <g id="susy-icon" sketch:type="MSLayerGroup">
            <rect id="Rectangle-2" fill="#FF0080" sketch:type="MSShapeGroup" x="0.0583654581" y="0.5" width="73" height="73" rx="40"></rect>
            <g id="Imported-Layers" transform="translate(15.064463, 18.250000)" fill="#FFFFFF" sketch:type="MSShapeGroup">
                <path d="M29.2317073,0 C30.2330366,2.77092697 31.2360854,5.54115169 32.2349787,8.31292135 C32.6466585,9.45533708 32.7382226,9.20224719 31.695625,9.89396067 C31.4613415,10.0494382 31.2186037,10.1925562 31.029314,10.3105337 C29.9676585,8.99634831 28.9871067,7.64438202 27.8613994,6.42078652 C26.0749695,4.47907303 23.9562439,2.99789326 21.2836921,2.42570225 C17.5752774,1.63174157 14.2993201,3.61980337 13.6608079,7.15744382 C13.2110122,9.6488764 14.0287835,11.7240169 16.1757378,13.2234551 C17.7379146,14.3144663 19.5302195,14.8610955 21.3573445,15.3323034 C22.9685274,15.7478933 24.5926067,16.1285112 26.1762774,16.6304775 C31.0642774,18.1796348 33.8030305,22.0845506 33.6428293,27.1814607 C33.4995366,31.741573 30.1737134,35.7882022 25.5915,36.9594101 C20.9582744,38.0973315 18.1682226,36.1627809 16.8876159,35.7537921 C16.3635945,35.5865169 15.6783689,35.3794944 15.2433323,35.5728933 C14.1677774,36.0508427 13.1943902,36.7495787 12.179878,37.3595506 L12.0365854,37.3595506 C11.5885091,36.084691 11.1534726,34.8053371 10.6892043,33.5360955 C9.97474695,31.5825843 9.24022866,29.6360955 8.49639634,27.6384831 C9.04535061,27.3647472 9.56808232,27.1039326 10.1403933,26.8185393 C10.4261189,27.1945225 10.686625,27.5514045 10.9618902,27.8969101 C13.5125,31.0978933 16.5482988,33.6696629 20.6307073,34.7769663 C23.2738841,35.4939607 25.7247622,35.1088483 27.834747,33.2396067 C30.3283262,31.030618 31.1617165,25.1807584 26.6882622,22.7103933 C24.6722774,21.5970506 22.4824787,20.9870787 20.2978384,20.3224719 C18.6872287,19.8325843 17.0870793,19.277809 15.5425274,18.6167135 C7.82592988,15.3134831 8.94346951,6.19606742 13.217747,2.53918539 C14.7323506,1.24339888 16.4349543,0.387640449 18.444061,0.145224719 C21.3010305,-0.199578652 23.4512805,0.762078652 24.7844756,1.15547753 C26.4691677,1.65252809 27.7947683,0.889185393 29.0884146,0 L29.2317073,0" id="Fill-1"></path>
                <path d="M35.2515762,12.1301966 C35.7202866,11.8272472 35.9969848,11.6483146 36.1563262,11.5452247 C37.348378,12.641573 38.5018841,13.7113764 39.6657073,14.7702247 C40.6270579,15.6446629 41.5964329,16.5106742 42.5711098,17.3707865 C42.9456768,17.701264 43.0131677,18.0198034 42.6132378,18.3689607 C40.4970915,20.2171348 38.3805152,22.0650281 36.2003171,23.9688202 C36.0386829,23.8494382 35.8005305,23.6734551 35.4077652,23.3832865 C36.655128,21.6912921 37.836003,20.0002809 39.1227713,18.3905899 C39.600939,17.7924157 39.5145335,17.5035112 39.055997,16.9592697 C37.7557591,15.4164326 36.5519573,13.7955056 35.2515762,12.1301966" id="Fill-2"></path>
                <path d="M7.7590122,12.1301966 C7.29030183,11.8272472 7.01360366,11.6483146 6.8542622,11.5452247 C5.66221037,12.641573 4.50870427,13.7113764 3.3447378,14.7702247 C2.38353049,15.6446629 1.41415549,16.5106742 0.439478659,17.3707865 C0.0649115854,17.701264 -0.00257926829,18.0198034 0.397207317,18.3689607 C2.51349695,20.2171348 4.62992988,22.0650281 6.81027134,23.9688202 C6.9717622,23.8494382 7.20991463,23.6734551 7.60282317,23.3832865 C6.35531707,21.6912921 5.17444207,20.0002809 3.88767378,18.3905899 C3.40964939,17.7924157 3.49591159,17.5035112 3.95459146,16.9592697 C5.25468598,15.4164326 6.4584878,13.7955056 7.7590122,12.1301966" id="Fill-3"></path>
            </g>
        </g>
    </g>
</svg>