<?xml version="1.0" encoding="UTF-8" standalone="no"?>
<svg width="74px" height="74px" viewBox="0 0 74 74" version="1.1" xmlns="http://www.w3.org/2000/svg" xmlns:xlink="http://www.w3.org/1999/xlink" xmlns:sketch="http://www.bohemiancoding.com/sketch/ns">
    <!-- Generator: Sketch 3.2.2 (9983) - http://www.bohemiancoding.com/sketch -->
    <title>wordpress-icon</title>
    <desc>Created with Sketch.</desc>
    <defs></defs>
    <g id="Resume-Tools" stroke="none" stroke-width="1" fill="none" fill-rule="evenodd" sketch:type="MSPage">
        <g id="wordpress-icon" sketch:type="MSLayerGroup">
            <rect id="Rectangle-2" fill="#FFFFFF" sketch:type="MSShapeGroup" x="0.558365458" y="0.5" width="73" height="73" rx="40"></rect>
            <g id="Imported-Layers" transform="translate(6.058365, 6.000000)" fill="#21759B" sketch:type="MSShapeGroup">
                <path d="M0.234584795,31.0387953 C0.234584795,43.2317661 7.31962573,53.7703158 17.5967602,58.7625848 L2.90203509,18.5017427 C1.1928655,22.3326901 0.234584795,26.5726199 0.234584795,31.0387953" id="Fill-1"></path>
                <path d="M51.8352632,29.4851696 C51.8352632,25.6767018 50.4669123,23.0407953 49.2954386,20.9893567 C47.7341988,18.4506199 46.2694035,16.3027368 46.2694035,13.764 C46.2694035,10.9330292 48.4165614,8.29676023 51.4425965,8.29676023 C51.5792865,8.29676023 51.7087251,8.3134386 51.8414269,8.32177778 C46.3611345,3.30014035 39.0589123,0.233859649 31.0395205,0.233859649 C20.2769006,0.233859649 10.8093918,5.75621053 5.30118129,14.1182339 C6.02451462,14.1414386 6.70578947,14.1555789 7.28373099,14.1555789 C10.505193,14.1555789 15.4938363,13.764 15.4938363,13.764 C17.1536959,13.6668304 17.349848,16.1065848 15.6907135,16.3027368 C15.6907135,16.3027368 14.0214269,16.4981637 12.1654152,16.5956959 L23.3827018,49.9640234 L30.1251111,29.7454971 L25.3260936,16.5956959 C23.6662339,16.4981637 22.0948421,16.3027368 22.0948421,16.3027368 C20.4342573,16.2048421 20.6289591,13.6668304 22.290269,13.764 C22.290269,13.764 27.3764444,14.1555789 30.4032047,14.1555789 C33.6243041,14.1555789 38.6140351,13.764 38.6140351,13.764 C40.2746199,13.6668304 40.4704094,16.1065848 38.8105497,16.3027368 C38.8105497,16.3027368 37.1394503,16.4981637 35.2848889,16.5956959 L46.4176959,49.7094971 L49.4912281,39.4436023 C50.8211462,35.1808304 51.8352632,32.1214386 51.8352632,29.4851696" id="Fill-2"></path>
                <path d="M31.5804795,33.7334386 L22.3366784,60.5906784 C25.0973099,61.4024795 28.0160234,61.8459064 31.0395205,61.8459064 C34.6268187,61.8459064 38.0672749,61.2266316 41.2691579,60.0997544 C41.1875789,59.9677778 41.111076,59.827462 41.0487135,59.6751813 L31.5804795,33.7334386" id="Fill-3"></path>
                <path d="M58.0711579,16.2603158 C58.2034971,17.2414386 58.2781871,18.2939883 58.2781871,19.428117 C58.2781871,22.5527719 57.6929942,26.0668304 55.9356023,30.4615789 L46.5268304,57.6654386 C55.6850643,52.325462 61.8440936,42.4036491 61.8440936,31.0387953 C61.8440936,25.6828655 60.4757427,20.6478129 58.0711579,16.2603158" id="Fill-4"></path>
            </g>
        </g>
    </g>
</svg>