<?xml version="1.0" encoding="UTF-8"?>
<svg width="280px" height="90px" viewBox="0 0 280 90" version="1.1" xmlns="http://www.w3.org/2000/svg" xmlns:xlink="http://www.w3.org/1999/xlink">
    <!-- Generator: Sketch 42 (36781) - http://www.bohemiancoding.com/sketch -->
    <title>Nirmal Logo</title>
    <desc>Created with Sketch.</desc>
    <defs></defs>
    <g id="Symbols" stroke="none" stroke-width="1" fill="none" fill-rule="evenodd">
        <g id="Nirmal-Logo" fill-rule="nonzero">
            <g id="nirmal-logo">
                <g id="Layer_1">
                    <g id="Group">
                        <path d="M76.2255965,6.43817787 C76.4078091,6.92407809 76.2255965,7.47071584 75.9219089,7.77440347 C75.6182213,8.07809111 75.010846,8.13882863 74.5249458,7.95661605 C64.3210412,3.82646421 59.5227766,19.010846 64.0173536,21.8047722 C67.9652928,24.3557484 71.1843818,21.3796095 71.5488069,19.6182213 C73.3709328,12.3904555 67.29718,15.4880694 68.8156182,12.1475054 C69.6052061,10.3253796 73.978308,11.2364425 75.8004338,14.5770065 C80.537961,23.0195228 71.4880694,31.5835141 62.3774403,28.3036876 C55.8785249,25.8741866 54.6030369,15.9132321 57.3969631,10.0824295 C62.0737527,0.485900217 74.5249458,1.09327549 76.2255965,6.43817787 Z" id="Shape" fill="#E9583D"></path>
                        <path d="M273.62256,70.4555315 C266.212581,85.9436009 258.013015,78.1691974 256.433839,66.8720174 C254.368764,52.537961 286.498915,0.0607375271 259.167028,0.0607375271 C243.132321,0.0607375271 241.91757,20.2863341 242.221258,33.1019523 C242.524946,50.35141 244.650759,63.7744035 239.913232,72.70282 C236.694143,78.7765727 235.05423,78.7158351 234.203905,78.8373102 C227.826464,79.9913232 237.362256,60.7982646 230.984816,57.5184382 C215.557484,49.6225597 220.052061,80.7809111 209.969631,78.5943601 C199.583514,76.2863341 209.544469,38.8112798 221.145336,47.9826464 C223.635575,49.9262473 225.396963,52.2950108 229.40564,51.8698482 C233.657267,51.4446855 236.390456,42.3340564 226.308026,38.021692 C191.019523,23.0802603 197.093275,82.3600868 185.856833,77.8047722 C179.236443,75.0715835 195.27115,47.1930586 187.436009,39.3579176 C181.422993,33.3449024 170.308026,33.1019523 162.10846,50.2906725 C161.926247,50.6550976 161.258134,50.472885 161.258134,49.9869848 C161.440347,42.3340564 156.399132,31.1583514 145.89154,38.0824295 C142.308026,40.4511931 139.878525,45.6138829 138.360087,49.3796095 C138.238612,49.6832972 137.813449,49.5010846 137.813449,49.197397 C138.056399,46.0390456 137.752711,42.6984816 136.537961,40.1475054 C134.290672,35.3492408 126.637744,33.8915401 122.872017,37.0498915 C121.960954,37.8394794 122.750542,39.4793926 124.02603,39.4793926 C128.642082,39.4186551 127.73102,44.824295 127.73102,45.2494577 C128.095445,49.6225597 122.932755,74.2819957 116.373102,78.1691974 C111.5141,81.0238612 107.809111,77.6225597 112.789588,60.494577 C113.761388,57.154013 116.980477,48.1041215 117.041215,44.4598698 C117.101952,40.7548807 116.433839,37.0498915 112.668113,36.1995662 C104.893709,34.4989154 99.791757,42.637744 88.0086768,40.9370933 C86.1258134,40.6334056 84.9718004,34.8633406 86.9761388,34.9240781 C87.8872017,34.9240781 88.2516269,33.64859 87.4013015,33.1626898 C76.5900217,27.6355748 72.2776573,42.6984816 81.1453362,48.2255965 C82.1778742,48.8329718 82.7852495,50.0477223 82.6030369,51.0802603 C81.8741866,57.5184382 80.3557484,65.4750542 79.5661605,68.4511931 C75.9826464,82.4208243 70.2125813,80.4772234 67.6616052,74.5856833 C65.0498915,68.5726681 66.8112798,64.3817787 69.5444685,53.813449 C72.3991323,43.1843818 71.3665944,35.5921909 64.5032538,35.5921909 C57.4577007,35.5921909 57.032538,54.7245119 53.3275488,69.2407809 C51.8698482,75.010846 46.4034707,80.4164859 43.7310195,75.6789588 C42.637744,73.6746204 43.0021692,69.5444685 43.670282,64.9284165 C44.2776573,60.2516269 46.7071584,53.1453362 47.132321,45.9175705 C47.3752711,41.7266811 44.1561822,36.5032538 38.3861171,35.4707158 C25.4490239,33.1626898 21.9869848,48.4078091 20.164859,53.5097614 C19.6789588,54.9067245 17.5531453,54.6030369 17.6138829,53.0845987 C17.7353579,50.472885 17.7960954,48.3470716 17.9175705,47.8611714 C18.1605206,39.4793926 13.7266811,35.8958785 9.59652928,34.681128 C6.13449024,33.7093275 1.82212581,34.6203905 0.242950108,38.9327549 C-0.121475054,39.9652928 0.971800434,41.0585683 2.06507592,40.7548807 C3.46203905,40.329718 4.67678959,40.208243 5.77006508,41.0585683 C10.9327549,44.8850325 7.1670282,64.6854664 6.31670282,69.6659436 C2.30802603,92.7462039 12.8156182,90.6203905 14.9414317,88.1908894 C17.1887202,85.5184382 19.9826464,77.5010846 24.4164859,63.9566161 C27.0889371,55.7570499 29.7613883,52.3557484 31.5835141,50.9587852 C32.3123644,50.472885 33.4056399,51.0802603 33.2841649,51.9913232 C32.8590022,55.8177874 31.9479393,64.1388286 31.8264642,71.6095445 C31.5227766,84.4859002 41.3015184,94.5683297 52.659436,86.6724512 C54.2386117,85.5791757 55.5140998,84 56.2429501,82.7852495 C56.6073753,82.1778742 57.6399132,82.2386117 58.186551,82.9067245 C58.4902386,83.3318872 58.9761388,84 59.7657267,84.9110629 C64.4425163,90.9240781 87.2190889,96.9370933 92.5639913,64.6854664 C92.989154,61.8308026 93.6572668,55.0281996 93.9002169,51.9913232 C94.021692,50.1084599 101.249458,50.1084599 102.585683,50.1084599 C103.496746,50.1084599 104.225597,51.0195228 104.043384,51.8698482 C101.735358,63.8958785 98.1518438,78.35141 103.618221,86.2472885 C108.355748,93.1106291 118.195228,89.9522777 122.750542,81.6312364 C123.114967,81.0238612 124.147505,81.2668113 124.329718,81.9956616 C124.694143,83.8785249 125.240781,85.8221258 125.362256,86.0043384 C126.759219,89.9522777 129.735358,89.9522777 132.832972,89.1626898 C135.930586,88.373102 137.145336,81.813449 138.542299,76.7722343 C139.939262,71.7310195 141.214751,67.3579176 144.130152,60.373102 C146.073753,55.6963124 148.199566,53.3275488 149.839479,51.8091106 C150.446855,51.2624729 151.600868,51.8698482 151.54013,52.7809111 C151.236443,55.3926247 150.932755,57.6399132 150.386117,62.1952278 C148.503254,78.2299349 144.67679,89.3449024 154.759219,89.4056399 C158.646421,88.6160521 159.618221,84.6681128 160.650759,81.1453362 C163.505423,71.2451193 166.906725,56.2429501 173.527115,51.505423 C174.255965,50.9587852 175.409978,51.8091106 175.349241,52.659436 C173.527115,66.3861171 169.275488,97.1193059 189.258134,87.9479393 C192.112798,86.6724512 194.238612,84.3644252 195.5141,82.7852495 C195.878525,82.2993492 196.789588,82.4208243 197.154013,83.0889371 C200.312364,88.7375271 208.451193,91.1062907 215.557484,86.5509761 C224.668113,79.9913232 222.724512,77.0759219 224.364425,82.7245119 C226.793926,90.9240781 239.609544,92.6247289 246.958785,79.2624729 C247.383948,78.35141 248.780911,78.472885 249.388286,79.4446855 C252,83.9392625 254.186551,87.5227766 261.839479,89.527115 C265.605206,90.5596529 271.739696,88.1301518 275.748373,82.2993492 C282.793926,72.0954447 279.088937,59.0976139 273.62256,70.4555315 Z M252.364425,51.3839479 C251.817787,52.537961 251.453362,53.6312364 251.149675,54.4815618 C251.088937,54.7852495 250.785249,54.845987 250.481562,54.7852495 C250.238612,54.6030369 250.056399,54.3600868 250.117137,53.9956616 C250.603037,46.4642082 251.574837,29.2754881 252.4859,24.0520607 C253.700651,16.8850325 254.490239,12.0867679 258.681128,12.7548807 C262.08243,13.2407809 260.624729,22.7158351 259.652928,27.2711497 C258.438178,31.5835141 254.247289,46.8286334 252.364425,51.3839479 Z" id="Shape" fill="#000000"></path>
                    </g>
                </g>
            </g>
        </g>
    </g>
</svg>