<?xml version="1.0" encoding="UTF-8"?>
<svg width="116px" height="116px" viewBox="0 0 116 116" version="1.1" xmlns="http://www.w3.org/2000/svg" xmlns:xlink="http://www.w3.org/1999/xlink">
    <!-- Generator: Sketch 42 (36781) - http://www.bohemiancoding.com/sketch -->
    <title>nirmal-tm</title>
    <desc>Created with Sketch.</desc>
    <defs></defs>
    <g id="Global-Icons" stroke="none" stroke-width="1" fill="none" fill-rule="evenodd">
        <g id="nirmal-tm">
            <circle id="Oval" fill="#E9583D" cx="58" cy="58" r="58"></circle>
            <path d="M80.0067324,37.4283175 C80.4212459,38.4949418 80.0067324,39.6948941 79.3158767,40.3615343 C78.6250209,41.0281744 77.2433093,41.1615025 76.1379401,40.7615184 C52.925186,31.695212 42.0096648,65.0272206 52.2343303,71.1603101 C61.2154553,76.7600876 68.5385266,70.2270139 69.3675535,66.3605009 C73.5126881,50.4944649 59.6955726,57.2941946 63.1498515,49.9611527 C64.9460765,45.9613117 74.8943997,47.9612322 79.0395343,55.2942741 C89.8168844,73.8268708 69.2293823,92.6261236 48.5037091,85.4264098 C33.7193955,80.0932884 30.8178012,58.2274908 37.1736744,45.4279996 C47.8128533,24.3621702 76.1379401,25.6954505 80.0067324,37.4283175 Z" id="Shape" fill="#FFFFFF" fill-rule="nonzero"></path>
        </g>
    </g>
</svg>