<?xml version="1.0" encoding="UTF-8"?>
<svg width="124px" height="123px" viewBox="0 0 124 123" version="1.1" xmlns="http://www.w3.org/2000/svg" xmlns:xlink="http://www.w3.org/1999/xlink">
    <!-- Generator: Sketch 42 (36781) - http://www.bohemiancoding.com/sketch -->
    <title>animation-icon</title>
    <desc>Created with Sketch.</desc>
    <defs>
        <path d="M123,61.951227 C123,95.6563233 95.4655031,122.979719 61.5,122.979719 C27.5344969,122.979719 0,95.6563233 0,61.951227 C0,28.2461307 27.5344969,0.922735395 61.5,0.922735395 C95.4655031,0.922735395 123,28.2461307 123,61.951227 Z" id="path-1"></path>
    </defs>
    <g id="Global-Icons" stroke="none" stroke-width="1" fill="none" fill-rule="evenodd">
        <g id="animation-icon" transform="translate(0.500000, -1.000000)">
            <g id="skills-circle" transform="translate(0.220282, 0.839763)">
                <mask id="mask-2" fill="white">
                    <use xlink:href="#path-1"></use>
                </mask>
                <use id="Shape" fill="#226DBF" xlink:href="#path-1"></use>
            </g>
            <path d="M78.1805929,49.0080323 L78.1805929,49.0023934 C77.9588074,48.9953934 75.2128734,48.9226712 71.6563222,50.5151712 C71.6518437,50.5175045 71.6471704,50.5198379 71.6424971,50.5221712 C70.5403849,51.0143101 69.5245334,51.6361434 68.5108239,52.2863656 C64.5936523,54.9988656 62.0344542,58.7850879 59.7833024,62.8995323 C59.7856391,62.9030323 59.7856391,62.9053656 59.7879757,62.907699 C57.461078,67.2053101 53.3676853,71.1435879 48.3110153,71.7520045 L48.3110153,71.7496712 C47.5533618,71.8581712 47.0671473,71.8488379 46.9886754,71.8465045 L46.8755433,71.8465045 C42.0058041,71.8465045 37.9252628,67.7738656 37.9252628,62.9100323 C37.9250681,58.0452267 42.0046358,53.972199 46.8755433,53.972199 L46.9886754,53.9698656 C47.2274014,53.9630601 51.3036589,53.8837267 55.4208074,57.4043379 C56.5464806,58.3670323 58.2623486,58.1578101 59.0756919,56.9205601 C59.0895169,56.8997545 59.1031473,56.878949 59.1169724,56.8581434 C59.8045268,55.8174767 59.6057183,54.4334212 58.6523717,53.6280323 C53.8486424,49.5705601 47.0379394,47.5419212 41.0980219,50.256949 C33.4831275,53.7378934 30.6143255,63.4704212 35.2063948,70.4896712 C37.7336589,74.3525045 42.1164047,76.7636156 46.7392397,76.8083379 L46.7392397,76.809699 C46.7509229,76.809699 46.7785731,76.8106712 46.799408,76.8118379 C46.8247216,76.8118379 46.8500351,76.8141712 46.8755433,76.8141712 C47.3557216,76.8141712 47.8325896,76.7968656 48.3110153,76.7496156 L48.3110153,76.748449 C48.5328008,76.7272545 48.8067711,76.7097545 49.033814,76.6607545 C49.2785764,76.6251712 49.5385268,76.5835601 49.813276,76.5304767 L49.8156127,76.5304767 C54.7908899,75.5753656 59.0879592,72.5468934 62.0922859,68.526949 C64.0338338,65.9287823 65.2159757,62.8789212 67.2145764,60.3180879 C68.709243,58.4026156 70.5316226,56.7169767 72.6702265,55.5427267 C72.6735367,55.5415601 72.6770417,55.5392267 72.681715,55.5380601 C72.7440252,55.5022823 72.8088668,55.4655323 72.871177,55.4320879 L72.871177,55.4367545 C75.6691011,53.9537267 77.8250351,53.9607267 77.9728272,53.9675323 L78.0768074,53.972199 C86.2154971,53.972199 90.0779526,64.438949 83.8701011,69.702949 C79.4308866,73.467199 73.8739823,71.6670323 69.9048206,68.2986712 C68.762012,67.3287823 67.0233618,67.5963379 66.2355268,68.8707267 C66.2191704,68.8971712 66.202814,68.9236156 66.1864575,68.9498656 C65.5429097,69.9843101 65.7664476,71.3265601 66.695649,72.1154212 C71.5733717,76.2574767 78.3046292,78.3656434 84.3284707,75.3311434 C91.75254,71.5913934 94.2811671,61.871699 89.541111,55.0247267 C86.9793816,51.3242545 82.6877645,49.0414767 78.1805929,49.0080323" id="Imported-Layers-2" fill="#FFFFFF"></path>
        </g>
    </g>
</svg>