<?xml version="1.0" encoding="UTF-8"?>
<svg width="124px" height="124px" viewBox="0 0 124 124" version="1.1" xmlns="http://www.w3.org/2000/svg" xmlns:xlink="http://www.w3.org/1999/xlink">
    <!-- Generator: Sketch 42 (36781) - http://www.bohemiancoding.com/sketch -->
    <title>design-icon</title>
    <desc>Created with Sketch.</desc>
    <defs>
        <path d="M123,61.951227 C123,95.6563233 95.4655031,122.979719 61.5,122.979719 C27.5344969,122.979719 0,95.6563233 0,61.951227 C0,28.2461307 27.5344969,0.922735395 61.5,0.922735395 C95.4655031,0.922735395 123,28.2461307 123,61.951227 Z" id="path-1"></path>
        <rect id="path-3" x="0" y="0" width="200" height="200"></rect>
        <mask id="mask-4" maskContentUnits="userSpaceOnUse" maskUnits="objectBoundingBox" x="0" y="0" width="200" height="200" fill="white">
            <use xlink:href="#path-3"></use>
        </mask>
    </defs>
    <g id="Global-Icons" stroke="none" stroke-width="1" fill="none" fill-rule="evenodd">
        <g id="design-icon" transform="translate(0.500000, 0.000000)">
            <g id="skills-circle" transform="translate(0.365490, 0.049010)">
                <mask id="mask-2" fill="white">
                    <use xlink:href="#path-1"></use>
                </mask>
                <use id="Shape" fill="#226DBF" xlink:href="#path-1"></use>
                <g id="grid" mask="url(#mask-2)" stroke="#90B5DE" stroke-width="2" opacity="0.499708489">
                    <g transform="translate(-37.865490, -38.500000)" id="Rectangle-2">
                        <use mask="url(#mask-4)" xlink:href="#path-3"></use>
                    </g>
                </g>
            </g>
            <g id="Group" transform="translate(32.000000, 34.000000)" fill="#FFFFFF">
                <path d="M55.7686631,34.7131822 C56.0844767,34.3998455 56.0844767,33.8908283 55.7686631,33.5774916 L54.6267801,32.4356086 C54.3109664,32.1222719 53.8031877,32.1222719 53.489851,32.4356086 C53.1765143,32.7489452 53.1765143,33.259201 53.489851,33.5725377 L54.631734,34.7131822 C54.7877831,34.8704698 54.9933716,34.9484943 55.2001986,34.9484943 C55.4070255,34.9484943 55.610137,34.8704698 55.7686631,34.7131822" id="Fill-839"></path>
                <path d="M53.2913838,30.9989661 C53.6047205,30.6856295 53.6047205,30.1766122 53.2913838,29.8607986 L52.1507392,28.720154 C51.8349256,28.4068173 51.3271468,28.4068173 51.0138102,28.720154 C50.699235,29.0334907 50.699235,29.5437464 51.0138102,29.8570831 L52.1544547,30.9989661 C52.3117423,31.1562537 52.5185692,31.2330398 52.7229192,31.2330398 C52.9297462,31.2330398 53.1328577,31.1562537 53.2913838,30.9989661" id="Fill-840"></path>
                <path d="M49.5771677,26.1465825 L48.4365232,25.0046995 C48.121948,24.6913628 47.6129308,24.6913628 47.2983556,25.0046995 C46.9837805,25.3192746 46.9837805,25.8282919 47.2983556,26.142867 L48.4402386,27.2835116 C48.5962877,27.4407992 48.8018762,27.5188237 49.0074647,27.5188237 C49.2142917,27.5188237 49.4174032,27.4407992 49.5771677,27.2847501 C49.8905044,26.9701749 49.8905044,26.4611577 49.5771677,26.1465825" id="Fill-841"></path>
                <path d="M29.9595677,8.80407917 L31.1014508,9.9459622 C31.2587383,10.1020113 31.4655653,10.1800358 31.6699153,10.1800358 C31.8755038,10.1800358 32.0810923,10.1020113 32.2383798,9.9459622 C32.552955,9.63138705 32.552955,9.12236977 32.2383798,8.80779462 L31.0964968,7.66591159 C30.7831602,7.35257492 30.2729044,7.35257492 29.9595677,7.66591159 C29.6449926,7.98048674 29.6449926,8.48950402 29.9595677,8.80407917" id="Fill-842"></path>
                <path d="M26.2431843,6.32710947 L27.3850673,7.46775402 C27.5423549,7.62628008 27.7479434,7.70306614 27.9535319,7.70306614 C28.1591204,7.70306614 28.3659473,7.62628008 28.5232349,7.46775402 C28.8353331,7.15317886 28.8353331,6.64540008 28.5232349,6.33082492 L27.3801134,5.18894189 C27.0667767,4.87560523 26.5577595,4.87560523 26.2431843,5.18894189 C25.9298477,5.50351705 25.9298477,6.01129583 26.2431843,6.32710947" id="Fill-843"></path>
                <path d="M37.4096733,19.4748646 L41.1461821,15.7358789 L44.8864064,19.4748646 L41.1461821,23.2113734 L37.4096733,19.4748646 Z M39.6302767,57.7935858 L35.8900524,54.057077 L39.6302767,50.3180913 L43.365547,54.057077 L39.6302767,57.7935858 Z M6.64818667,24.8152113 L2.91043939,21.0762255 L6.64818667,17.3397167 L10.3884109,21.0762255 L6.64818667,24.8152113 Z M46.0753518,23.9705646 C46.0914521,23.9569413 46.1137448,23.9495104 46.1298452,23.9334101 C46.4444203,23.6200734 46.4444203,23.1110561 46.1298452,22.7977195 L45.5514727,22.219347 L47.4438776,20.3257037 C47.9145018,19.856318 47.9145018,19.0946498 47.4438776,18.622787 L41.9994982,13.1759307 C41.5486897,12.7251222 40.74739,12.7251222 40.295343,13.1759307 L38.4016997,15.069574 L38.1379024,14.8057767 C37.8394276,14.5060634 37.3675648,14.5011095 37.0517512,14.7735761 C36.5154873,14.4528086 35.9717924,14.1493798 35.4169512,13.8707207 C35.5754773,13.8447125 35.7327648,13.7827883 35.8566133,13.6614167 C36.16995,13.3480801 36.16995,12.8378243 35.8566133,12.5244877 L34.7147303,11.3813661 C34.4001552,11.0680295 33.8923764,11.0680295 33.5778012,11.3813661 C33.2619876,11.6959413 33.2619876,12.2049586 33.5778012,12.5182952 L34.5029494,13.4459204 C31.2581191,11.9746004 27.7160524,11.1856855 24.0464218,11.1856855 C18.5178255,11.1856855 13.2616958,12.9430955 8.90966,16.1879258 L7.50150273,14.7797686 C7.03087848,14.3066673 6.26673333,14.3066673 5.79734758,14.7797686 L0.352968182,20.2229095 C-0.117656061,20.6935337 -0.117656061,21.4564404 0.352968182,21.9270646 L5.79734758,27.3726825 C6.02151333,27.6005637 6.32865758,27.7256507 6.64818667,27.7256507 C6.96895424,27.7256507 7.27486,27.6005637 7.50150273,27.3726825 L12.9446436,21.9270646 C13.1750018,21.7016604 13.3000888,21.3945161 13.3000888,21.0762255 C13.3000888,20.755458 13.1750018,20.4483137 12.9446436,20.2229095 L11.8027606,19.079788 C15.3683585,16.5730946 19.5977842,15.2058073 24.0464218,15.2058073 C28.0293891,15.2058073 31.8364915,16.300628 35.1482,18.3243122 L34.8509636,18.622787 C34.3815779,19.0946498 34.3815779,19.856318 34.8509636,20.3257037 L40.2965815,25.7713216 C40.5219858,25.9979643 40.8303685,26.1242898 41.1461821,26.1242898 C41.4681882,26.1242898 41.7753324,25.9979643 41.9994982,25.7713216 L42.297973,25.4740852 C44.3228958,28.7870322 45.4177164,32.5928961 45.4177164,36.5746249 C45.4177164,41.0232625 44.0479521,45.2539267 41.5412588,48.8182861 L40.4823542,47.7593816 C40.2557115,47.5339773 39.9498058,47.4076519 39.6302767,47.4076519 C39.3095091,47.4076519 39.0036033,47.5339773 38.7769606,47.7593816 L33.3338197,53.203761 C33.1059385,53.4304037 32.979613,53.7363095 32.979613,54.057077 C32.979613,54.3766061 33.1059385,54.6837504 33.3338197,54.9091546 L38.7769606,60.353534 C39.0135112,60.5888461 39.3206555,60.7052637 39.6302767,60.7052637 C39.9398979,60.7052637 40.2470421,60.5888461 40.4823542,60.353534 L45.9254952,54.9091546 C46.3961194,54.4385304 46.3961194,53.6756237 45.9254952,53.203761 L44.4331209,51.7113867 C47.6804282,47.359351 49.4378382,42.1032213 49.4378382,36.5746249 C49.4378382,32.0776864 48.2563236,27.7689977 46.0753518,23.9705646 L46.0753518,23.9705646 Z" id="Fill-844"></path>
                <path d="M24.2458179,4.80501159 C24.4031055,4.96229917 24.6099324,5.04032371 24.8130439,5.04032371 C25.0198709,5.04032371 25.2254594,4.96229917 25.382747,4.80501159 L27.099287,3.08847159 C27.2516206,2.93737644 27.3358376,2.73426492 27.3358376,2.52000705 C27.3358376,2.30574917 27.2516206,2.10016068 27.099287,1.9515425 L25.382747,0.2350025 C25.0681718,-0.0783341667 24.5591545,-0.0783341667 24.2458179,0.2350025 L22.5268009,1.9515425 C22.3769442,2.10016068 22.2927273,2.30574917 22.2927273,2.52000705 C22.2927273,2.73426492 22.3769442,2.93737644 22.5268009,3.08847159 L24.2458179,4.80501159 Z" id="Fill-845"></path>
                <path d="M60.5383779,36.6297375 L58.8230764,34.9131975 C58.5060242,34.5986223 57.9982455,34.5998608 57.6849088,34.911959 L55.9683688,36.6297375 C55.8147967,36.7795942 55.7318182,36.9851827 55.7318182,37.1994405 C55.7318182,37.4124599 55.8147967,37.6168099 55.9683688,37.7666666 L57.6849088,39.4844451 C57.8360039,39.6367787 58.0403539,39.7197572 58.2533733,39.7197572 C58.4663927,39.7197572 58.6707427,39.6367787 58.8230764,39.4844451 L60.5383779,37.7666666 C60.852953,37.4533299 60.852953,36.9443127 60.5383779,36.6297375" id="Fill-846"></path>
            </g>
        </g>
    </g>
</svg>