<?xml version="1.0" encoding="UTF-8"?>
<svg width="123px" height="123px" viewBox="0 0 123 123" version="1.1" xmlns="http://www.w3.org/2000/svg" xmlns:xlink="http://www.w3.org/1999/xlink">
    <!-- Generator: Sketch 42 (36781) - http://www.bohemiancoding.com/sketch -->
    <title>development-icon</title>
    <desc>Created with Sketch.</desc>
    <defs>
        <path d="M123,61.951227 C123,95.6563233 95.4655031,122.979719 61.5,122.979719 C27.5344969,122.979719 0,95.6563233 0,61.951227 C0,28.2461307 27.5344969,0.922735395 61.5,0.922735395 C95.4655031,0.922735395 123,28.2461307 123,61.951227 Z" id="path-1"></path>
        <path d="M31.7972217,0.0952283971 C30.7002217,-0.247771603 29.5302217,0.365228397 29.1902217,1.4612284 L21.0952217,27.3582284 C20.7522217,28.4562284 21.3652217,29.6242284 22.4622217,29.9682284 C22.6702217,30.0322284 22.8802217,30.0632284 23.0852217,30.0632284 C23.9712217,30.0632284 24.7932217,29.4922284 25.0712217,28.6012284 L33.1652217,2.7042284 C33.5082217,1.6072284 32.8962217,0.439228397 31.7972217,0.0952283971" id="path-3"></path>
        <filter x="-50%" y="-50%" width="200%" height="200%" filterUnits="objectBoundingBox" id="filter-4">
            <feGaussianBlur stdDeviation="1.5" in="SourceAlpha" result="shadowBlurInner1"></feGaussianBlur>
            <feOffset dx="0" dy="1" in="shadowBlurInner1" result="shadowOffsetInner1"></feOffset>
            <feComposite in="shadowOffsetInner1" in2="SourceAlpha" operator="arithmetic" k2="-1" k3="1" result="shadowInnerInner1"></feComposite>
            <feColorMatrix values="0 0 0 0 0   0 0 0 0 0   0 0 0 0 0  0 0 0 0.5 0" type="matrix" in="shadowInnerInner1"></feColorMatrix>
        </filter>
    </defs>
    <g id="Global-Icons" stroke="none" stroke-width="1" fill="none" fill-rule="evenodd">
        <g id="development-icon" transform="translate(-0.500000, 0.000000)">
            <g id="skills-circle" transform="translate(0.500000, 0.000000)">
                <mask id="mask-2" fill="white">
                    <use xlink:href="#path-1"></use>
                </mask>
                <use id="Shape" fill="#226DBF" xlink:href="#path-1"></use>
            </g>
            <g id="Group" transform="translate(34.000000, 46.000000)">
                <path d="M54.28985,13.83285 L40.65985,5.26685005 C39.84785,4.75585005 38.77685,5.00085005 38.26685,5.81285005 C37.75585,6.62485005 38.00085,7.69585005 38.81285,8.20585005 L50.03485,15.25685 L38.85385,21.87185 C38.02685,22.35985 37.75385,23.42485 38.24285,24.24885 C38.56485,24.79685 39.14485,25.10185 39.73785,25.10185 C40.03685,25.10185 40.34285,25.02285 40.61885,24.85885 L54.25085,16.79585 C54.77185,16.48785 55.09485,15.93085 55.10385,15.32585 C55.11085,14.72085 54.80285,14.15485 54.28985,13.83285" id="Fill-29" fill="#FFFFFF"></path>
                <path d="M16.2911172,21.8956461 L5.06811719,14.8446461 L16.2521172,8.22864606 C17.0761172,7.74164606 17.3511172,6.67664606 16.8611172,5.85164606 C16.3741172,5.02664606 15.3101172,4.75464606 14.4831172,5.24164606 L0.85311719,13.3056461 C0.33211719,13.6136461 0.00811718961,14.1706461 0.000117189609,14.7766461 C-0.00688281039,15.3816461 0.30011719,15.9466461 0.81211719,16.2686461 L14.4441172,24.8346461 C14.7321172,25.0146461 15.0511172,25.1016461 15.3651172,25.1016461 C15.9441172,25.1016461 16.5071172,24.8126461 16.8371172,24.2886461 C17.3471172,23.4766461 17.1041172,22.4056461 16.2911172,21.8956461" id="Fill-31" fill="#FFFFFF"></path>
                <g id="Fill-33">
                    <use fill="#FFFFFF" fill-rule="evenodd" xlink:href="#path-3"></use>
                    <use fill="black" fill-opacity="1" filter="url(#filter-4)" xlink:href="#path-3"></use>
                </g>
            </g>
        </g>
    </g>
</svg>