<?xml version="1.0" encoding="UTF-8" standalone="no"?>
<svg width="123px" height="124px" viewBox="0 0 123 124" version="1.1" xmlns="http://www.w3.org/2000/svg" xmlns:xlink="http://www.w3.org/1999/xlink" xmlns:sketch="http://www.bohemiancoding.com/sketch/ns">
    <!-- Generator: Sketch 3.2.2 (9983) - http://www.bohemiancoding.com/sketch -->
    <title>skills-icon</title>
    <desc>Created with Sketch.</desc>
    <defs></defs>
    <g id="Icons" stroke="none" stroke-width="1" fill="none" fill-rule="evenodd" sketch:type="MSPage">
        <g id="skills-icon" sketch:type="MSLayerGroup" transform="translate(-0.500000, 0.000000)">
            <g id="Group" transform="translate(0.365490, 0.049010)" fill="#FFFFFF" sketch:type="MSShapeGroup">
                <path d="M61.6347054,0.922735395 C95.3398017,0.922735395 122.663197,28.2461307 122.663197,61.951227 C122.663197,95.6563233 95.3398017,122.979719 61.6347054,122.979719 C27.9296091,122.979719 0.606213801,95.6563233 0.606213801,61.951227 C0.606213801,28.2461307 27.9296091,0.922735395 61.6347054,0.922735395 L61.6347054,0.922735395 Z" id="Shape"></path>
            </g>
            <g id="Skills" transform="translate(35.295907, 34.200993)" fill="#226DBF" sketch:type="MSShapeGroup">
                <g id="Group" transform="translate(0.248530, 0.312620)">
                    <path d="M4.83161534,36.2805127 C2.70973275,36.2805127 0.992602332,37.9976431 0.992602332,40.1195257 C0.992602332,42.2377287 2.70973275,43.9573122 4.83161534,43.9573122 C6.94981836,43.9573122 8.66940182,42.2377287 8.66940182,40.1195257 C8.66940182,37.9976431 6.94981836,36.2805127 4.83161534,36.2805127" id="Shape"></path>
                    <path d="M10.7164666,8.42620426 C12.8346696,8.42620426 14.5518,6.70784732 14.5518,4.58719126 C14.5518,2.46776171 12.8346696,0.748178253 10.7164666,0.748178253 C8.59581052,0.748178253 6.87745358,2.46776171 6.87745358,4.58719126 C6.87745358,6.70784732 8.59581052,8.42620426 10.7164666,8.42620426" id="Shape"></path>
                    <path d="M16.4148865,12.4369303 L14.9258891,9.66131164 C14.5849161,9.02597339 13.7950361,8.78434861 13.1547918,9.12777469 C12.5194535,9.46752121 12.2790553,10.2610808 12.6200283,10.8988721 L14.1127052,13.6744907 C14.3457444,14.112359 14.7971044,14.3650225 15.2644091,14.3650225 C15.4729178,14.3650225 15.6851061,14.3135086 15.8825761,14.2080277 C16.5179144,13.8670546 16.7570861,13.0722686 16.4148865,12.4369303" id="Shape"></path>
                    <path d="M17.8339722,20.6178302 C18.0706909,21.0593781 18.5232774,21.3095885 18.9893556,21.3095885 C19.2003174,21.3095885 19.4088261,21.2593011 19.6050695,21.1538202 C20.2428608,20.8103941 20.4795795,20.0180611 20.1410595,19.3802698 L18.6508356,16.6058777 C18.3098626,15.9705394 17.5175296,15.7301411 16.8797383,16.0723407 C16.241947,16.4145403 16.0064548,17.2068733 16.3462013,17.8422116 L17.8339722,20.6178302 L17.8339722,20.6178302 Z" id="Shape"></path>
                    <path d="M37.101402,35.6181909 L34.0731198,33.8875688 C33.4451407,33.5294244 32.6454485,33.7489718 32.2860777,34.3744979 C31.9316129,35.002477 32.1474807,35.8009427 32.7766864,36.159087 L35.803742,37.8897092 C36.0085711,38.0062288 36.2317981,38.0614222 36.452572,38.0614222 C36.9100646,38.0614222 37.3479328,37.8247035 37.5895576,37.400327 C37.947702,36.7723479 37.7293811,35.9738823 37.101402,35.6181909" id="Shape"></path>
                    <path d="M44.6776267,39.9355474 L41.645665,38.2061518 C41.0189124,37.849234 40.2204467,38.0675548 39.8610759,38.6930809 C39.5053846,39.3222866 39.7224789,40.1195257 40.348005,40.4788966 L43.3775136,42.2082922 C43.5847958,42.3248118 43.8043432,42.3800052 44.0275702,42.3800052 C44.4789302,42.3800052 44.920478,42.14206 45.1621028,41.71891 C45.5202471,41.0921574 45.3006997,40.2936918 44.6776267,39.9355474" id="Shape"></path>
                    <path d="M14.0084509,33.9378562 L10.9580914,35.6243236 C10.3239796,35.9751088 10.0933935,36.7711214 10.4454053,37.4015535 C10.6833505,37.8332892 11.1298044,38.077367 11.5897501,38.077367 C11.8031648,38.077367 12.0214857,38.0246266 12.2214087,37.9142396 L15.2717683,36.2253192 C15.90588,35.8757605 16.1352396,35.0809744 15.7856809,34.4468627 C15.4361222,33.815204 14.6388831,33.5858444 14.0084509,33.9378562" id="Shape"></path>
                    <path d="M46.8093214,9.30929991 C46.6032658,9.30929991 46.3996632,9.28476947 46.2021932,9.2467473 C44.9597267,9.01002861 43.9760563,8.05702122 43.681691,6.83663211 C43.6191384,6.59255428 43.5823428,6.34111733 43.5823428,6.08109472 C43.5823428,4.30018517 45.0308649,2.85043649 46.8093214,2.85043649 C48.590231,2.85043649 50.0387531,4.30018517 50.0387531,6.08109472 C50.0387531,7.86077775 48.590231,9.30929991 46.8093214,9.30929991 M28.6482142,30.7856953 C28.4446116,31.6675645 27.9858925,32.4513119 27.3493277,33.0547605 C27.225449,33.1725066 27.0905316,33.2779875 26.9519347,33.3834684 C26.1902647,33.9574805 25.2556551,34.3094923 24.2339625,34.3094923 C24.0058295,34.3094923 23.7887351,34.2739231 23.5740938,34.2432601 C22.6075947,34.1009836 21.7367643,33.6667949 21.0670834,33.0155118 C20.4415574,32.4034775 19.9901974,31.6160506 19.7976334,30.7268223 C19.7301748,30.4177388 19.6896995,30.0988432 19.6896995,29.7689088 C19.6896995,28.5031384 20.2158774,27.3575671 21.0535917,26.5333445 C21.6619465,25.9360284 22.4346552,25.5067458 23.3005795,25.3252206 C23.6010773,25.262668 23.9138404,25.2283254 24.2339625,25.2283254 C24.8055217,25.2283254 25.3488708,25.3460715 25.8529712,25.5398619 C26.9825977,25.9740506 27.8951299,26.8399749 28.3857386,27.9413915 C28.633496,28.5006854 28.774546,29.1176258 28.774546,29.7689088 C28.774546,30.119694 28.7254851,30.4569875 28.6482142,30.7856953 M28.1625116,52.2498256 C28.7512421,51.6157138 29.5852768,51.2109617 30.5186599,51.2109617 C30.8780307,51.2109617 31.2190038,51.284553 31.5428055,51.3937134 C32.8196146,51.8242225 33.7480916,53.0200812 33.7480916,54.4403934 C33.7480916,56.2213029 32.2971164,57.6698251 30.5186599,57.6698251 C28.7402034,57.6698251 27.2892282,56.2213029 27.2892282,54.4403934 C27.2892282,53.5916403 27.6228421,52.8262908 28.1625116,52.2498256 M52.657377,6.08354777 C52.657377,2.85902215 50.0350736,0.239171737 46.810548,0.239171737 C43.5909284,0.239171737 40.9661719,2.85902215 40.9661719,6.08354777 C40.9661719,7.11137297 41.2360067,8.07541905 41.7033115,8.91681295 L28.3722468,22.9065198 C27.1616699,22.1730598 25.7474903,21.7462302 24.2351891,21.7462302 C19.8049926,21.7462302 16.2039248,25.347298 16.2039248,29.7750414 C16.2039248,34.2003318 19.8049926,37.8026261 24.2351891,37.8026261 C24.317366,37.8026261 24.3921838,37.7940405 24.4768138,37.7915874 L27.4548086,49.479113 C25.7904186,50.5106178 24.6718308,52.3491738 24.6718308,54.4477525 C24.6718308,57.6710516 27.2965873,60.2921285 30.5186599,60.2921285 C33.7395059,60.2921285 36.3605828,57.6710516 36.3605828,54.4477525 C36.3605828,51.3311608 33.9075394,48.7849017 30.8338759,48.6193213 L27.8546547,36.9305692 C30.4659194,35.6046992 32.2615472,32.8977658 32.2615472,29.7750414 C32.2615472,28.1229167 31.7598999,26.5848584 30.9001081,25.3080493 L44.2323993,11.319569 C45.0100141,11.7059234 45.8845241,11.9279238 46.810548,11.9279238 C50.0350736,11.9279238 52.657377,9.30684686 52.657377,6.08354777" id="Shape"></path>
                    <path d="M46.8902719,44.5227387 C46.8902719,46.6397152 48.6074023,48.3592986 50.7280584,48.3592986 C52.8474879,48.3592986 54.5658448,46.6397152 54.5658448,44.5227387 C54.5658448,42.4008561 52.8474879,40.6837257 50.7280584,40.6837257 C48.6074023,40.6837257 46.8902719,42.4008561 46.8902719,44.5227387 Z" id="Shape"></path>
                </g>
            </g>
        </g>
    </g>
</svg>