<?xml version="1.0" encoding="UTF-8" standalone="no"?>
<svg width="123px" height="124px" viewBox="0 0 123 124" version="1.1" xmlns="http://www.w3.org/2000/svg" xmlns:xlink="http://www.w3.org/1999/xlink" xmlns:sketch="http://www.bohemiancoding.com/sketch/ns">
    <!-- Generator: Sketch 3.2.2 (9983) - http://www.bohemiancoding.com/sketch -->
    <title>tools-icon</title>
    <desc>Created with Sketch.</desc>
    <defs></defs>
    <g id="Icons" stroke="none" stroke-width="1" fill="none" fill-rule="evenodd" sketch:type="MSPage">
        <g id="tools-icon" sketch:type="MSLayerGroup" transform="translate(-0.500000, 0.000000)">
            <g id="Group" transform="translate(0.365490, 0.049010)" fill="#FFFFFF" sketch:type="MSShapeGroup">
                <path d="M61.6347054,0.922735395 C95.3398017,0.922735395 122.663197,28.2461307 122.663197,61.951227 C122.663197,95.6563233 95.3398017,122.979719 61.6347054,122.979719 C27.9296091,122.979719 0.606213801,95.6563233 0.606213801,61.951227 C0.606213801,28.2461307 27.9296091,0.922735395 61.6347054,0.922735395 L61.6347054,0.922735395 Z" id="Shape"></path>
            </g>
            <g id="Tools" transform="translate(28.824856, 36.107413)" fill="#226DBF" sketch:type="MSShapeGroup">
                <g id="Group" transform="translate(4.057284, 0.581501)">
                    <g transform="translate(18.870691, 43.377567)" id="Shape">
                        <path d="M3.03262151,0.819447378 L0.882071811,7.3790237 C0.882071811,7.85603535 1.35641859,8.2451063 1.94402232,8.2451063 L16.0918146,8.2451063 C16.6807508,8.2451063 17.15643,7.85603535 17.15643,7.3790237 L15.0045478,0.819447378 L3.03262151,0.819447378 L3.03262151,0.819447378 Z"></path>
                    </g>
                    <g transform="translate(0.777148, 0.619903)" id="Shape">
                        <path d="M9.32345513,41.9965932 L9.32345513,38.2617967 L39.1825119,38.2617967 L39.1825119,41.9965932 L9.32345513,41.9965932 L9.32345513,41.9965932 Z M2.85661616,26.7427108 L0.0825011787,26.7427108 L0.0825011787,4.78856157 C0.0825011787,2.65800715 1.81065943,0.929848901 3.94254948,0.929848901 L50.2791362,0.929848901 C52.4110262,0.929848901 54.1405201,2.65800715 54.1405201,4.78856157 L54.1405201,18.3952971 L51.1758613,18.3952971 L51.1758613,3.45611102 L2.8566778,3.45611102 L2.8566778,26.7427108 L2.85661616,26.7427108 Z"></path>
                    </g>
                    <g transform="translate(41.522082, 20.726177)" id="Shape">
                        <path d="M22.4954961,27.7372944 L3.45233846,27.7372944 L3.45233846,2.83675361 L22.4954961,2.83675361 L22.4954961,27.7372944 L22.4954961,27.7372944 Z M12.9752497,29.9438064 C12.5928409,29.9438064 12.2850485,29.6346815 12.2850485,29.2536052 C12.2850485,28.8738613 12.5928409,28.5647364 12.9752497,28.5647364 C13.356326,28.5647364 13.6654509,28.8738613 13.6654509,29.2536052 C13.6654509,29.6346815 13.356326,29.9438064 12.9752497,29.9438064 L12.9752497,29.9438064 Z M24.2569748,0.131911041 L1.69352458,0.131911041 C0.914050246,0.131911041 0.282476169,0.700860684 0.282476169,1.40172137 L0.282476169,29.6013706 C0.282476169,30.2995665 0.914050246,30.8685161 1.69352458,30.8685161 L24.2569748,30.8685161 C25.0364491,30.8685161 25.6666908,30.2995665 25.6666908,29.6013706 L25.6666908,1.40172137 C25.6666908,0.700860684 25.0364491,0.131911041 24.2569748,0.131911041 L24.2569748,0.131911041 Z"></path>
                    </g>
                </g>
                <g id="Group" transform="translate(0.396529, 29.750260)">
                    <path d="M11.0744002,18.7330584 L0.754630405,18.7330584 L0.754630405,3.99034049 L11.0744002,3.99034049 L11.0744002,18.7330584 L11.0744002,18.7330584 Z M5.91407298,21.6834598 C5.30231809,21.6834598 4.8073407,21.1889248 4.8073407,20.5776122 C4.8073407,19.9671843 5.30231809,19.4722069 5.91407298,19.4722069 C6.5249432,19.4722069 7.01992059,19.9671843 7.01992059,20.5776122 C7.01992059,21.1889248 6.5249432,21.6834598 5.91407298,21.6834598 L5.91407298,21.6834598 Z M4.80822538,1.77820295 L7.01992059,1.77820295 C7.22339655,1.77820295 7.38883135,1.94231073 7.38883135,2.14578669 C7.38883135,2.34970499 7.22339655,2.51513979 7.01992059,2.51513979 L4.80822538,2.51513979 C4.60607644,2.51513979 4.4401993,2.34970499 4.4401993,2.14578669 C4.4401993,1.94231073 4.60607644,1.77820295 4.80822538,1.77820295 L4.80822538,1.77820295 Z M9.96766796,0.305213939 L1.86047801,0.305213939 C0.846194586,0.305213939 0.0168088836,1.13504198 0.0168088836,2.14755605 L0.0168088836,20.5762852 C0.0168088836,21.5901263 0.846194586,22.4190696 1.86047801,22.4190696 L9.96766796,22.4190696 C10.9806244,22.4190696 11.8095677,21.5901263 11.8095677,20.5762852 L11.8095677,2.14755605 C11.8095677,1.13504198 10.9806244,0.305213939 9.96766796,0.305213939 L9.96766796,0.305213939 Z" id="Shape"></path>
                </g>
            </g>
        </g>
    </g>
</svg>