<?xml version="1.0" encoding="UTF-8" standalone="no"?>
<svg width="124px" height="123px" viewBox="0 0 124 123" version="1.1" xmlns="http://www.w3.org/2000/svg" xmlns:xlink="http://www.w3.org/1999/xlink" xmlns:sketch="http://www.bohemiancoding.com/sketch/ns">
    <!-- Generator: Sketch 3.2.2 (9983) - http://www.bohemiancoding.com/sketch -->
    <title>animation-footer-icon</title>
    <desc>Created with Sketch.</desc>
    <defs>
        <path id="path-1" d="M123,61.951227 C123,95.6563233 95.4655031,122.979719 61.5,122.979719 C27.5344969,122.979719 0,95.6563233 0,61.951227 C0,28.2461307 27.5344969,0.922735395 61.5,0.922735395 C95.4655031,0.922735395 123,28.2461307 123,61.951227 Z"></path>
    </defs>
    <g id="Icons" stroke="none" stroke-width="1" fill="none" fill-rule="evenodd" sketch:type="MSPage">
        <g id="animation-footer-icon" sketch:type="MSLayerGroup" transform="translate(0.500000, -1.000000)">
            <g id="skills-circle" transform="translate(0.220282, 0.839763)">
                <mask id="mask-2" sketch:name="Shape" fill="white">
                    <use xlink:href="#path-1"></use>
                </mask>
                <use id="Shape" fill="#111127" sketch:type="MSShapeGroup" xlink:href="#path-1"></use>
            </g>
            <path d="M77.6805929,49.0080323 L77.6805929,49.0023934 C77.4588074,48.9953934 74.7128734,48.9226712 71.1563222,50.5151712 C71.1518437,50.5175045 71.1471704,50.5198379 71.1424971,50.5221712 C70.0403849,51.0143101 69.0245334,51.6361434 68.0108239,52.2863656 C64.0936523,54.9988656 61.5344542,58.7850879 59.2833024,62.8995323 C59.2856391,62.9030323 59.2856391,62.9053656 59.2879757,62.907699 C56.961078,67.2053101 52.8676853,71.1435879 47.8110153,71.7520045 L47.8110153,71.7496712 C47.0533618,71.8581712 46.5671473,71.8488379 46.4886754,71.8465045 L46.3755433,71.8465045 C41.5058041,71.8465045 37.4252628,67.7738656 37.4252628,62.9100323 C37.4250681,58.0452267 41.5046358,53.972199 46.3755433,53.972199 L46.4886754,53.9698656 C46.7274014,53.9630601 50.8036589,53.8837267 54.9208074,57.4043379 C56.0464806,58.3670323 57.7623486,58.1578101 58.5756919,56.9205601 C58.5895169,56.8997545 58.6031473,56.878949 58.6169724,56.8581434 C59.3045268,55.8174767 59.1057183,54.4334212 58.1523717,53.6280323 C53.3486424,49.5705601 46.5379394,47.5419212 40.5980219,50.256949 C32.9831275,53.7378934 30.1143255,63.4704212 34.7063948,70.4896712 C37.2336589,74.3525045 41.6164047,76.7636156 46.2392397,76.8083379 L46.2392397,76.809699 C46.2509229,76.809699 46.2785731,76.8106712 46.299408,76.8118379 C46.3247216,76.8118379 46.3500351,76.8141712 46.3755433,76.8141712 C46.8557216,76.8141712 47.3325896,76.7968656 47.8110153,76.7496156 L47.8110153,76.748449 C48.0328008,76.7272545 48.3067711,76.7097545 48.533814,76.6607545 C48.7785764,76.6251712 49.0385268,76.5835601 49.313276,76.5304767 L49.3156127,76.5304767 C54.2908899,75.5753656 58.5879592,72.5468934 61.5922859,68.526949 C63.5338338,65.9287823 64.7159757,62.8789212 66.7145764,60.3180879 C68.209243,58.4026156 70.0316226,56.7169767 72.1702265,55.5427267 C72.1735367,55.5415601 72.1770417,55.5392267 72.181715,55.5380601 C72.2440252,55.5022823 72.3088668,55.4655323 72.371177,55.4320879 L72.371177,55.4367545 C75.1691011,53.9537267 77.3250351,53.9607267 77.4728272,53.9675323 L77.5768074,53.972199 C85.7154971,53.972199 89.5779526,64.438949 83.3701011,69.702949 C78.9308866,73.467199 73.3739823,71.6670323 69.4048206,68.2986712 C68.262012,67.3287823 66.5233618,67.5963379 65.7355268,68.8707267 C65.7191704,68.8971712 65.702814,68.9236156 65.6864575,68.9498656 C65.0429097,69.9843101 65.2664476,71.3265601 66.195649,72.1154212 C71.0733717,76.2574767 77.8046292,78.3656434 83.8284707,75.3311434 C91.25254,71.5913934 93.7811671,61.871699 89.041111,55.0247267 C86.4793816,51.3242545 82.1877645,49.0414767 77.6805929,49.0080323" id="Imported-Layers" fill="#FFFFFF" sketch:type="MSShapeGroup"></path>
        </g>
    </g>
</svg>