<svg width="124" height="124" viewBox="0 0 124 124" xmlns="http://www.w3.org/2000/svg" xmlns:xlink="http://www.w3.org/1999/xlink" xmlns:sketch="http://www.bohemiancoding.com/sketch/ns"><title>design-footer-icon</title><desc>Created with Sketch.</desc><defs><path id="a" d="M123 61.951c0 33.705-27.534 61.028-61.5 61.028s-61.5-27.323-61.5-61.028 27.534-61.028 61.5-61.028 61.5 27.323 61.5 61.028z"/></defs><g sketch:type="MSLayerGroup" fill="none"><g transform="translate(.5) translate(.365 .049)"><mask sketch:name="Shape"><use xlink:href="#a"/></mask><use fill="#111127" sketch:type="MSShapeGroup" xlink:href="#a"/></g><g fill="#fff" sketch:type="MSShapeGroup"><path d="M88.269 68.713c.316-.313.316-.822 0-1.136l-1.142-1.142c-.316-.313-.824-.313-1.137 0-.313.313-.313.824 0 1.137l1.142 1.141c.156.157.362.235.568.235.207 0 .41-.078.568-.235"/><path d="M85.791 64.999c.313-.313.313-.822 0-1.138l-1.141-1.141c-.316-.313-.824-.313-1.137 0-.315.313-.315.824 0 1.137l1.141 1.142c.157.157.364.234.568.234.207 0 .41-.077.568-.234"/><path d="M82.077 60.147l-1.141-1.142c-.315-.313-.824-.313-1.138 0-.315.315-.315.824 0 1.138l1.142 1.141c.156.157.362.235.567.235.207 0 .41-.078.57-.234.313-.315.313-.824 0-1.138"/><path d="M62.46 42.804l1.142 1.142c.157.156.364.234.568.234.206 0 .411-.078.568-.234.315-.315.315-.824 0-1.138l-1.142-1.142c-.313-.313-.824-.313-1.137 0-.315.315-.315.824 0 1.138"/><path d="M58.743 40.327l1.142 1.141c.157.159.363.235.568.235.206 0 .412-.077.57-.235.312-.315.312-.822 0-1.137l-1.143-1.142c-.313-.313-.822-.313-1.137 0-.313.315-.313.822 0 1.138"/><path d="M69.91 53.475l3.737-3.739 3.74 3.739-3.74 3.737-3.737-3.737zm2.221 38.319l-3.74-3.737 3.74-3.739 3.735 3.739-3.735 3.737zm-32.982-32.978l-3.738-3.739 3.738-3.737 3.74 3.737-3.74 3.739zm39.427-.845l.054-.037c.315-.313.315-.822 0-1.136l-.578-.578 1.892-1.894c.471-.469.471-1.231 0-1.703l-5.444-5.447c-.451-.451-1.252-.451-1.704 0l-1.894 1.894-.264-.264c-.298-.3-.77-.305-1.086-.032-.536-.321-1.08-.624-1.635-.903.159-.026.316-.088.44-.209.313-.313.313-.824 0-1.137l-1.142-1.143c-.315-.313-.822-.313-1.137 0-.316.315-.316.824 0 1.137l.925.928c-3.245-1.471-6.787-2.26-10.457-2.26-5.529 0-10.785 1.757-15.137 5.002l-1.408-1.408c-.471-.473-1.235-.473-1.704 0l-5.444 5.443c-.471.471-.471 1.234 0 1.704l5.444 5.446c.224.228.531.353.851.353.321 0 .627-.125.853-.353l5.443-5.446c.23-.225.355-.533.355-.851 0-.321-.125-.628-.355-.853l-1.142-1.143c3.566-2.507 7.795-3.874 12.244-3.874 3.983 0 7.79 1.095 11.102 3.119l-.297.298c-.469.472-.469 1.234 0 1.703l5.446 5.446c.225.227.534.353.85.353.322 0 .629-.126.853-.353l.298-.297c2.025 3.313 3.12 7.119 3.12 11.101 0 4.449-1.37 8.679-3.876 12.244l-1.059-1.059c-.227-.225-.533-.352-.852-.352-.321 0-.627.126-.853.352l-5.443 5.444c-.228.227-.354.533-.354.853 0 .32.126.627.354.852l5.443 5.444c.237.235.544.352.853.352.31 0 .617-.116.852-.352l5.443-5.444c.471-.471.471-1.234 0-1.705l-1.492-1.492c3.247-4.352 5.005-9.608 5.005-15.137 0-4.497-1.182-8.806-3.362-12.604z"/><path d="M56.746 38.805c.157.157.364.235.567.235.207 0 .412-.078.57-.235l1.717-1.717c.152-.151.237-.354.237-.568 0-.214-.084-.42-.237-.568l-1.717-1.717c-.315-.313-.824-.313-1.137 0l-1.719 1.717c-.15.149-.234.354-.234.568 0 .214.084.417.234.568l1.719 1.717z"/><path d="M93.038 70.63l-1.715-1.717c-.317-.315-.825-.313-1.138-.001l-1.717 1.718c-.154.15-.237.355-.237.57 0 .213.083.417.237.567l1.717 1.718c.151.152.355.235.568.235.213 0 .417-.083.57-.235l1.715-1.718c.315-.313.315-.822 0-1.137"/></g></g></svg>