<svg width="123" height="123" viewBox="0 0 123 123" xmlns="http://www.w3.org/2000/svg" xmlns:xlink="http://www.w3.org/1999/xlink" xmlns:sketch="http://www.bohemiancoding.com/sketch/ns"><title>development-footer-icon</title><desc>Created with Sketch.</desc><defs><path id="a" d="M123 61.951c0 33.705-27.534 61.028-61.5 61.028s-61.5-27.323-61.5-61.028 27.534-61.028 61.5-61.028 61.5 27.323 61.5 61.028z"/></defs><g sketch:type="MSLayerGroup" fill="none"><g transform="translate(-.5) translate(.5)"><mask sketch:name="Shape"><use xlink:href="#a"/></mask><use fill="#111127" sketch:type="MSShapeGroup" xlink:href="#a"/></g><g fill="#fff" sketch:type="MSShapeGroup"><path d="M87.79 59.833l-13.63-8.566c-.812-.511-1.883-.266-2.393.546-.511.812-.266 1.883.546 2.393l11.222 7.051-11.181 6.615c-.827.488-1.1 1.553-.611 2.377.322.548.902.853 1.495.853.299 0 .605-.079.881-.243l13.632-8.063c.521-.308.844-.865.853-1.47.007-.605-.301-1.171-.814-1.493"/><path d="M49.791 67.896l-11.223-7.051 11.184-6.616c.824-.487 1.099-1.552.609-2.377-.487-.825-1.551-1.097-2.378-.61l-13.63 8.064c-.521.308-.845.865-.853 1.471-.007.605.3 1.17.812 1.492l13.632 8.566c.288.18.607.267.921.267.579 0 1.142-.289 1.472-.813.51-.812.267-1.883-.546-2.393"/><path d="M65.297 46.095c-1.097-.343-2.267.27-2.607 1.366l-8.095 25.897c-.343 1.098.27 2.266 1.367 2.61.208.064.418.095.623.095.886 0 1.708-.571 1.986-1.462l8.094-25.897c.343-1.097-.269-2.265-1.368-2.609"/></g></g></svg>